<svg width="33" height="23" viewBox="0 0 33 23" fill="none" xmlns="http://www.w3.org/2000/svg">
<g clip-path="url(#clip0_17_231)">
<path d="M32.7273 9.32329C33 8.28309 32.6883 7.58962 30.1169 6.665C23.026 4.81575 15.935 2.92798 8.84414 1.04021C8.06492 0.847581 7.16881 0.616425 6.50648 0.847581C5.76622 1.11726 5.14284 1.6181 4.987 2.27304C4.59738 3.62145 4.24674 4.93133 3.85712 6.20269C4.2857 6.39532 4.63635 6.74205 4.87011 7.08879C5.14284 7.51257 5.29868 7.97488 5.22076 8.43719C5.14284 8.86098 4.79219 9.24624 4.40258 9.4774C3.97401 9.74708 3.42855 9.86265 2.8831 9.90118C2.84414 9.90118 2.84414 9.90118 2.80518 9.90118C2.41557 11.2496 2.06492 12.6365 1.71427 14.0235C1.59738 14.4472 1.51946 14.871 1.71427 15.2948C2.10388 16.1809 3.46751 16.4121 4.59738 16.7203C12.0779 18.7236 18.8571 20.5729 25.2857 22.3065C26.2987 22.5762 27.4286 23.0385 28.2857 22.6533C28.948 22.3836 29.1818 21.7672 29.4156 21.1893C30.4675 18.1843 32.3766 10.5561 32.7273 9.32329Z" fill="white"/>
<path d="M27.4675 23C26.8831 23 26.2597 22.8074 25.6364 22.6533C25.4805 22.6147 25.3247 22.5762 25.1688 22.4992C22.0519 21.6516 18.8961 20.804 15.5844 19.9179C12.039 18.9548 8.33766 17.9531 4.48052 16.9129C4.36363 16.8744 4.24675 16.8358 4.0909 16.7973C3.03896 16.5276 1.87013 16.2194 1.48052 15.3719C1.24675 14.871 1.36363 14.3702 1.48052 13.9849C1.7922 12.7521 2.14285 11.4422 2.57142 9.86265C2.61039 9.7856 2.64935 9.70855 2.76623 9.70855H2.80519H2.84415C3.38961 9.67002 3.8961 9.55444 4.28571 9.32329C4.67532 9.09213 4.94805 8.7454 5.02597 8.39866C5.10389 8.01341 4.98701 7.58962 4.71428 7.20436C4.48052 6.85763 4.16883 6.58795 3.77922 6.39532C3.70129 6.35679 3.66233 6.24121 3.66233 6.16416C4.01298 4.93133 4.40259 3.58292 4.7922 2.23451C4.98701 1.57957 5.61039 1.00168 6.42857 0.693473C7.16883 0.423791 8.02597 0.616421 8.88311 0.847577L30.1558 6.51089C32.5714 7.35846 33.2338 8.05193 32.8831 9.40034C32.8052 9.6315 32.6883 10.0553 32.5325 10.6717C31.8312 13.33 30.3896 18.8007 29.4935 21.2663C29.2987 21.7672 29.026 22.5377 28.2467 22.8459C28.0519 22.9615 27.7792 23 27.4675 23ZM2.92207 10.0938C2.4935 11.5963 2.14285 12.8677 1.87013 14.062C1.75324 14.4858 1.67532 14.871 1.87013 15.2178C2.18181 15.9112 3.27272 16.1809 4.24675 16.4506C4.36363 16.4891 4.51948 16.5276 4.63636 16.5662C8.53246 17.6064 12.1948 18.608 15.7403 19.5712C19.0519 20.4573 22.2078 21.3049 25.3247 22.1524C25.4805 22.191 25.6364 22.2295 25.8312 22.3065C26.6883 22.5377 27.5455 22.8074 28.2078 22.5377C28.7922 22.3065 28.987 21.7672 29.2208 21.1893C30.1169 18.7621 31.5584 13.2529 32.2597 10.6332C32.4156 10.0168 32.5325 9.59297 32.6104 9.36181C32.8442 8.55277 32.8052 7.89783 30.1169 6.93468L8.80519 1.23284C7.98701 1.00168 7.20779 0.847577 6.58441 1.04021C5.84415 1.27136 5.2987 1.7722 5.14285 2.31156C4.7922 3.62145 4.40259 4.8928 4.05194 6.08711C4.44155 6.31826 4.75324 6.62647 4.98701 6.9732C5.2987 7.47404 5.41558 7.97488 5.33766 8.43719C5.25974 8.8995 4.94805 9.32329 4.44155 9.6315C4.01298 9.90118 3.50649 10.0553 2.92207 10.0938Z" fill="black"/>
<path d="M28.948 2.0804C28.948 0.963146 28.4415 0.385257 25.7143 0.192627C18.3896 0.231153 11.026 0.269679 3.70129 0.269679C2.88311 0.269679 1.987 0.308205 1.40259 0.73199C0.740248 1.15578 0.272716 1.84924 0.272716 2.50418C0.272716 3.89112 0.272716 5.23953 0.233755 6.58794C0.701287 6.66499 1.12986 6.89615 1.44155 7.16583C1.83116 7.51256 2.06492 7.89782 2.10388 8.36013C2.18181 8.82244 1.94804 9.24623 1.63635 9.59296C1.2857 9.97822 0.81817 10.2094 0.272716 10.402C0.233755 10.402 0.233755 10.402 0.194794 10.402C0.194794 11.8275 0.194794 13.2144 0.233755 14.6399C0.233755 15.0637 0.272716 15.526 0.584404 15.8727C1.20778 16.6047 2.57142 16.4891 3.74025 16.4891C11.4935 16.4891 18.5065 16.4891 25.1688 16.4891C26.2208 16.4891 27.4286 16.6432 28.1688 16.0268C28.7143 15.603 28.7922 14.9095 28.8701 14.2931C29.1428 11.1725 28.948 3.31323 28.948 2.0804Z" fill="white"/>
<path d="M26.1818 16.7588C25.987 16.7588 25.8312 16.7588 25.6364 16.7588C25.4805 16.7588 25.2857 16.7588 25.1299 16.7588C21.9351 16.7588 18.6234 16.7588 15.1948 16.7588C11.5325 16.7588 7.67532 16.7588 3.66233 16.7588C3.54544 16.7588 3.3896 16.7588 3.27272 16.7588C2.18181 16.7588 0.974016 16.7973 0.350639 16.0653C-9.8981e-06 15.6415 -9.90555e-06 15.1022 -0.0389709 14.7169C-9.90555e-06 13.407 -9.90555e-06 12.0586 -9.90555e-06 10.402C-9.90555e-06 10.325 0.0389511 10.2479 0.155834 10.2094H0.194795C0.194795 10.2094 0.194795 10.2094 0.233756 10.2094C0.779211 10.0553 1.20778 9.78559 1.51947 9.47739C1.83116 9.13065 2.02596 8.74539 1.987 8.39866C1.94804 8.0134 1.71428 7.62814 1.36363 7.31993C1.05194 7.05025 0.662328 6.85762 0.233756 6.78057C0.155834 6.78057 0.0779122 6.66499 0.0779122 6.58794C0.0779122 5.31658 0.116873 3.92965 0.116873 2.50419C0.116873 1.81072 0.584406 1.07873 1.2857 0.577889C1.90908 0.154104 2.80519 0.115578 3.70129 0.115578L25.7143 0C28.2857 0.19263 29.1039 0.693467 29.1039 2.0804C29.1039 2.31156 29.1039 2.77387 29.1039 3.39028C29.1428 6.12563 29.2208 11.7889 28.987 14.4087C28.948 14.9481 28.8701 15.7571 28.2078 16.258C27.7403 16.6817 26.961 16.7588 26.1818 16.7588ZM3.70129 16.335C7.71428 16.335 11.5714 16.335 15.2338 16.335C18.6623 16.335 21.9351 16.335 25.1688 16.335C25.3247 16.335 25.5195 16.335 25.6753 16.335C26.5714 16.335 27.4675 16.3735 28.0519 15.9112C28.5195 15.526 28.6364 14.9866 28.6753 14.3317C28.9091 11.7504 28.8312 6.0871 28.7922 3.35176C28.7922 2.73534 28.7922 2.27303 28.7922 2.04188C28.7922 1.1943 28.5584 0.577889 25.7532 0.346734L3.70129 0.462312C2.84415 0.462312 2.02596 0.500838 1.48051 0.886097C0.857133 1.30988 0.467523 1.9263 0.467523 2.50419C0.467523 3.89112 0.467523 5.20101 0.428562 6.43384C0.857133 6.54941 1.24674 6.74204 1.55843 7.01173C1.987 7.39699 2.25973 7.8593 2.29869 8.32161C2.33765 8.78392 2.14285 9.28476 1.75324 9.70854C1.40259 10.0553 0.935055 10.3635 0.389601 10.5561C0.389601 12.1357 0.389601 13.4456 0.428562 14.6399C0.428562 15.1022 0.467523 15.4489 0.701289 15.7571C1.20778 16.335 2.29869 16.335 3.31168 16.335C3.46752 16.335 3.58441 16.335 3.70129 16.335Z" fill="black"/>
<path d="M10.2078 16.2194C10.2078 15.9112 10.1688 15.603 10.1688 15.2563C10.1688 14.6399 10.1299 14.0235 10.1299 13.407C10.1299 11.2111 10.0909 9.01509 10.0909 6.78058C10.0909 4.5846 10.1299 2.38862 10.2078 0.192642C8.02596 0.192642 5.84414 0.192642 3.70129 0.231168C2.88311 0.231168 1.987 0.269694 1.40259 0.69348C0.740248 1.15579 0.272716 1.84926 0.272716 2.5042C0.272716 3.89113 0.272716 5.23954 0.233755 6.58795C0.701287 6.665 1.12986 6.89616 1.44155 7.16584C1.83116 7.51257 2.06492 7.89783 2.10388 8.36015C2.18181 8.82246 1.94804 9.24624 1.63635 9.59298C1.2857 9.97824 0.81817 10.2094 0.272716 10.402C0.233755 10.402 0.233755 10.402 0.194794 10.402C0.194794 11.8275 0.194794 13.2144 0.233755 14.6399C0.233755 15.0637 0.272716 15.526 0.584404 15.8727C1.20778 16.6047 2.57142 16.4891 3.74025 16.4891C5.96103 16.4891 8.14285 16.4891 10.2467 16.4891C10.2078 16.4121 10.2078 16.335 10.2078 16.2194Z" fill="#ACD4F7"/>
<path d="M2.92208 16.7203C1.94805 16.7203 0.935065 16.6432 0.428571 16.0268C0.0779221 15.603 0.0779221 15.0637 0.038961 14.6784C0 13.407 0 12.0586 0 10.402C0 10.325 0.038961 10.2479 0.155844 10.2094H0.194805C0.194805 10.2094 0.194805 10.2094 0.233766 10.2094C0.779221 10.0553 1.20779 9.7856 1.51948 9.47739C1.83117 9.13066 2.02597 8.7454 1.98701 8.39866C1.94805 8.01341 1.71429 7.62815 1.36364 7.31994C1.05195 7.05026 0.662338 6.85763 0.233766 6.78057C0.155844 6.78057 0.0779221 6.665 0.0779221 6.58794C0.0779221 5.31659 0.116883 3.92965 0.116883 2.50419C0.116883 1.81073 0.584416 1.07873 1.28571 0.577894C1.90909 0.154109 2.80519 0.115583 3.7013 0.115583L10.2078 0.0770569C10.2468 0.0770569 10.3247 0.115583 10.3636 0.154109C10.4026 0.192635 10.4026 0.231161 10.4026 0.308213C10.3247 2.54272 10.2857 4.7387 10.2857 6.85763C10.2857 8.51424 10.2857 10.2094 10.3247 11.866C10.3247 12.4054 10.3247 12.9447 10.3247 13.4841C10.3247 13.8308 10.3247 14.1776 10.3636 14.4858C10.3636 14.7554 10.3636 15.0251 10.4026 15.2948C10.4026 15.4489 10.4026 15.603 10.4026 15.7957C10.4026 15.9498 10.4026 16.1039 10.4026 16.258C10.4026 16.3735 10.4026 16.4506 10.4026 16.5662C10.4026 16.6047 10.4026 16.6817 10.3636 16.7203C10.3247 16.7588 10.2857 16.7973 10.2078 16.7973C8.1039 16.7973 5.92208 16.7973 3.7013 16.7973C3.58442 16.7973 3.42857 16.7973 3.31169 16.7973C3.19481 16.7203 3.03896 16.7203 2.92208 16.7203ZM0.38961 10.5561C0.38961 12.1357 0.38961 13.4456 0.428571 14.6399C0.428571 15.1022 0.467532 15.4489 0.701299 15.7571C1.20779 16.335 2.2987 16.335 3.31169 16.335C3.42857 16.335 3.58442 16.335 3.7013 16.335C5.84416 16.335 7.94805 16.335 10.013 16.335C10.013 16.2965 10.013 16.258 10.013 16.2194C10.013 16.0653 10.013 15.9112 10.013 15.7571C10.013 15.603 10.013 15.4104 10.013 15.2563C10.013 14.9866 10.013 14.7169 9.97403 14.4472C9.97403 14.1005 9.93506 13.7538 9.93506 13.4456C9.93506 12.9062 9.93506 12.3668 9.93506 11.8275C9.93506 10.1709 9.8961 8.47572 9.8961 6.8191C9.8961 4.7387 9.93507 2.61977 10.013 0.423791L3.7013 0.462317C2.84416 0.462317 2.02597 0.500842 1.48052 0.886102C0.857143 1.30989 0.467532 1.9263 0.467532 2.50419C0.467532 3.89113 0.467532 5.20101 0.428571 6.43384C0.857143 6.54942 1.24675 6.74205 1.55844 7.01173C1.98701 7.39699 2.25974 7.8593 2.2987 8.32161C2.33766 8.78393 2.14286 9.28476 1.75325 9.70855C1.4026 10.0938 0.974026 10.3635 0.38961 10.5561Z" fill="black"/>
<path d="M16.9091 12.3283C16.8701 12.3283 16.8312 12.3283 16.7922 12.2898C16.7143 12.2127 16.6753 12.0972 16.7532 12.0201L22.3247 4.31492C22.4026 4.23786 22.5195 4.19934 22.5974 4.27639C22.6753 4.35344 22.7143 4.46902 22.6363 4.54607L17.0649 12.2513C17.026 12.3283 16.948 12.3283 16.9091 12.3283Z" fill="black"/>
<path d="M17.7273 7.05025C17.3766 7.05025 17.0649 6.93467 16.8312 6.70352C16.5584 6.43384 16.4026 6.0871 16.4026 5.66332C16.4026 4.96985 16.6364 4.19933 17.2597 4.04523C17.8831 3.89112 18.3117 4.08375 18.5454 4.27638C19.013 4.70017 19.1299 5.39364 19.0909 5.7789C19.0519 6.0871 18.8961 6.9732 17.8831 7.05025C17.8052 7.05025 17.7662 7.05025 17.7273 7.05025ZM17.6883 4.35343C17.5714 4.35343 17.4545 4.35343 17.3377 4.39196C16.7922 4.54606 16.7532 5.54774 16.7532 5.66332C16.7532 5.97153 16.8701 6.24121 17.0649 6.43384C17.2597 6.58794 17.4935 6.70352 17.8052 6.66499C18.4286 6.62647 18.5844 6.20268 18.6623 5.74037C18.7013 5.47069 18.5844 4.8928 18.2338 4.58459C18.1169 4.43049 17.9221 4.35343 17.6883 4.35343Z" fill="black"/>
<path d="M21.8961 12.5209C21.5454 12.5209 21.2337 12.4054 21 12.1742C20.7273 11.9045 20.5714 11.5578 20.5714 11.134C20.5714 10.4405 20.8052 9.67002 21.4286 9.51592C22.0519 9.36181 22.4805 9.55444 22.7143 9.74707C23.1818 10.1709 23.2987 10.8643 23.2597 11.2496C23.2208 11.5578 23.0649 12.4439 22.0519 12.5209C21.974 12.5209 21.935 12.5209 21.8961 12.5209ZM21.8571 9.82412C21.7402 9.82412 21.6234 9.82412 21.5065 9.86265C20.961 10.0168 20.9221 11.0184 20.9221 11.134C20.9221 11.4422 21.0389 11.7119 21.2337 11.9045C21.4286 12.0586 21.6623 12.1742 21.974 12.1357C22.5974 12.0972 22.7532 11.6734 22.8312 11.2111C22.8701 10.9414 22.7532 10.3635 22.4026 10.0553C22.2467 9.90117 22.0909 9.82412 21.8571 9.82412Z" fill="black"/>
<path d="M7.79219 13.7152H3.97401C3.93505 13.7152 3.89609 13.6767 3.89609 13.6382C3.89609 13.5997 3.93505 13.5611 3.97401 13.5611H7.79219C7.83115 13.5611 7.87011 13.5997 7.87011 13.6382C7.87011 13.7152 7.83115 13.7152 7.79219 13.7152Z" fill="black"/>
<path d="M7.79222 12.1742H4.67533C4.63637 12.1742 4.59741 12.1357 4.59741 12.0971C4.59741 12.0586 4.63637 12.0201 4.67533 12.0201H7.79222C7.83118 12.0201 7.87014 12.0586 7.87014 12.0971C7.87014 12.1742 7.83118 12.1742 7.79222 12.1742Z" fill="black"/>
<path d="M7.7922 10.6332H3.66233C3.62337 10.6332 3.58441 10.5946 3.58441 10.5561C3.58441 10.5176 3.62337 10.4791 3.66233 10.4791H7.7922C7.83117 10.4791 7.87013 10.5176 7.87013 10.5561C7.87013 10.5946 7.83117 10.6332 7.7922 10.6332Z" fill="black"/>
<path d="M7.7922 7.55108H3.66233C3.62337 7.55108 3.58441 7.51255 3.58441 7.47402C3.58441 7.4355 3.62337 7.39697 3.66233 7.39697H7.7922C7.83117 7.39697 7.87013 7.4355 7.87013 7.47402C7.87013 7.51255 7.83117 7.55108 7.7922 7.55108Z" fill="black"/>
<path d="M7.7922 2.92797H3.66233C3.62337 2.92797 3.58441 2.88944 3.58441 2.85092C3.58441 2.81239 3.62337 2.77386 3.66233 2.77386H7.7922C7.83117 2.77386 7.87013 2.81239 7.87013 2.85092C7.87013 2.88944 7.83117 2.92797 7.7922 2.92797Z" fill="black"/>
<path d="M7.79221 6.01005H4.16883C4.12987 6.01005 4.09091 5.97152 4.09091 5.93299C4.09091 5.89447 4.12987 5.85594 4.16883 5.85594H7.79221C7.83117 5.85594 7.87013 5.89447 7.87013 5.93299C7.87013 5.97152 7.83117 6.01005 7.79221 6.01005Z" fill="black"/>
<path d="M7.79222 9.09212H4.67533C4.63637 9.09212 4.59741 9.0536 4.59741 9.01507C4.59741 8.97654 4.63637 8.93802 4.67533 8.93802H7.79222C7.83118 8.93802 7.87014 8.97654 7.87014 9.01507C7.87014 9.0536 7.83118 9.09212 7.79222 9.09212Z" fill="black"/>
<path d="M7.79222 4.469H4.67533C4.63637 4.469 4.59741 4.43047 4.59741 4.39195C4.59741 4.35342 4.63637 4.3149 4.67533 4.3149H7.79222C7.83118 4.3149 7.87014 4.35342 7.87014 4.39195C7.87014 4.43047 7.83118 4.469 7.79222 4.469Z" fill="black"/>
<path d="M32.7273 9.32329C33 8.28309 32.6883 7.58962 30.1169 6.665C23.026 4.81575 15.935 2.92798 8.84414 1.04021C8.06492 0.847581 7.16881 0.616425 6.50648 0.847581C5.76622 1.11726 5.14284 1.6181 4.987 2.27304C4.59738 3.62145 4.24674 4.93133 3.85712 6.20269C4.2857 6.39532 4.63635 6.74205 4.87011 7.08879C5.14284 7.51257 5.29868 7.97488 5.22076 8.43719C5.14284 8.86098 4.79219 9.24624 4.40258 9.4774C3.97401 9.74708 3.42855 9.86265 2.8831 9.90118C2.84414 9.90118 2.84414 9.90118 2.80518 9.90118C2.41557 11.2496 2.06492 12.6365 1.71427 14.0235C1.59738 14.4472 1.51946 14.871 1.71427 15.2948C2.10388 16.1809 3.46751 16.4121 4.59738 16.7203C12.0779 18.7236 18.8571 20.5729 25.2857 22.3065C26.2987 22.5762 27.4286 23.0385 28.2857 22.6533C28.948 22.3836 29.1818 21.7672 29.4156 21.1893C30.4675 18.1843 32.3766 10.5561 32.7273 9.32329Z" fill="white"/>
<path d="M27.4675 23C26.8831 23 26.2597 22.8074 25.6364 22.6533C25.4805 22.6147 25.3247 22.5762 25.1688 22.4992C22.0519 21.6516 18.8961 20.804 15.5844 19.9179C12.039 18.9548 8.33766 17.9531 4.48052 16.9129C4.36363 16.8744 4.24675 16.8358 4.0909 16.7973C3.03896 16.5276 1.87013 16.2194 1.48052 15.3719C1.24675 14.871 1.36363 14.3702 1.48052 13.9849C1.7922 12.7521 2.14285 11.4422 2.57142 9.86265C2.61039 9.7856 2.64935 9.70855 2.76623 9.70855H2.80519H2.84415C3.38961 9.67002 3.8961 9.55444 4.28571 9.32329C4.67532 9.09213 4.94805 8.7454 5.02597 8.39866C5.10389 8.01341 4.98701 7.58962 4.71428 7.20436C4.48052 6.85763 4.16883 6.58795 3.77922 6.39532C3.70129 6.35679 3.66233 6.24121 3.66233 6.16416C4.01298 4.93133 4.40259 3.58292 4.7922 2.23451C4.98701 1.57957 5.61039 1.00168 6.42857 0.693473C7.16883 0.423791 8.02597 0.616421 8.88311 0.847577L30.1558 6.51089C32.5714 7.35846 33.2338 8.05193 32.8831 9.40034C32.8052 9.6315 32.6883 10.0553 32.5325 10.6717C31.8312 13.33 30.3896 18.8007 29.4935 21.2663C29.2987 21.7672 29.026 22.5377 28.2467 22.8459C28.0519 22.9615 27.7792 23 27.4675 23ZM2.92207 10.0938C2.4935 11.5963 2.14285 12.8677 1.87013 14.062C1.75324 14.4858 1.67532 14.871 1.87013 15.2178C2.18181 15.9112 3.27272 16.1809 4.24675 16.4506C4.36363 16.4891 4.51948 16.5276 4.63636 16.5662C8.53246 17.6064 12.1948 18.608 15.7403 19.5712C19.0519 20.4573 22.2078 21.3049 25.3247 22.1524C25.4805 22.191 25.6364 22.2295 25.8312 22.3065C26.6883 22.5377 27.5455 22.8074 28.2078 22.5377C28.7922 22.3065 28.987 21.7672 29.2208 21.1893C30.1169 18.7621 31.5584 13.2529 32.2597 10.6332C32.4156 10.0168 32.5325 9.59297 32.6104 9.36181C32.8442 8.55277 32.8052 7.89783 30.1169 6.93468L8.80519 1.23284C7.98701 1.00168 7.20779 0.847577 6.58441 1.04021C5.84415 1.27136 5.2987 1.7722 5.14285 2.31156C4.7922 3.62145 4.40259 4.8928 4.05194 6.08711C4.44155 6.31826 4.75324 6.62647 4.98701 6.9732C5.2987 7.47404 5.41558 7.97488 5.33766 8.43719C5.25974 8.8995 4.94805 9.32329 4.44155 9.6315C4.01298 9.90118 3.50649 10.0553 2.92207 10.0938Z" fill="#999999"/>
<path d="M28.948 2.0804C28.948 0.963146 28.4415 0.385257 25.7143 0.192627C18.3896 0.231153 11.026 0.269679 3.70129 0.269679C2.88311 0.269679 1.987 0.308205 1.40259 0.73199C0.740248 1.15578 0.272716 1.84924 0.272716 2.50418C0.272716 3.89112 0.272716 5.23953 0.233755 6.58794C0.701287 6.66499 1.12986 6.89615 1.44155 7.16583C1.83116 7.51256 2.06492 7.89782 2.10388 8.36013C2.18181 8.82244 1.94804 9.24623 1.63635 9.59296C1.2857 9.97822 0.81817 10.2094 0.272716 10.402C0.233755 10.402 0.233755 10.402 0.194794 10.402C0.194794 11.8275 0.194794 13.2144 0.233755 14.6399C0.233755 15.0637 0.272716 15.526 0.584404 15.8727C1.20778 16.6047 2.57142 16.4891 3.74025 16.4891C11.4935 16.4891 18.5065 16.4891 25.1688 16.4891C26.2208 16.4891 27.4286 16.6432 28.1688 16.0268C28.7143 15.603 28.7922 14.9095 28.8701 14.2931C29.1428 11.1725 28.948 3.31323 28.948 2.0804Z" fill="white"/>
<path d="M26.1818 16.7588C25.987 16.7588 25.8312 16.7588 25.6364 16.7588C25.4805 16.7588 25.2857 16.7588 25.1299 16.7588C21.9351 16.7588 18.6234 16.7588 15.1948 16.7588C11.5325 16.7588 7.67532 16.7588 3.66233 16.7588C3.54544 16.7588 3.3896 16.7588 3.27272 16.7588C2.18181 16.7588 0.974016 16.7973 0.350639 16.0653C-9.8981e-06 15.6415 -9.90555e-06 15.1022 -0.0389709 14.7169C-9.90555e-06 13.407 -9.90555e-06 12.0586 -9.90555e-06 10.402C-9.90555e-06 10.325 0.0389511 10.2479 0.155834 10.2094H0.194795C0.194795 10.2094 0.194795 10.2094 0.233756 10.2094C0.779211 10.0553 1.20778 9.78559 1.51947 9.47739C1.83116 9.13065 2.02596 8.74539 1.987 8.39866C1.94804 8.0134 1.71428 7.62814 1.36363 7.31993C1.05194 7.05025 0.662328 6.85762 0.233756 6.78057C0.155834 6.78057 0.0779122 6.66499 0.0779122 6.58794C0.0779122 5.31658 0.116873 3.92965 0.116873 2.50419C0.116873 1.81072 0.584406 1.07873 1.2857 0.577889C1.90908 0.154104 2.80519 0.115578 3.70129 0.115578L25.7143 0C28.2857 0.19263 29.1039 0.693467 29.1039 2.0804C29.1039 2.31156 29.1039 2.77387 29.1039 3.39028C29.1428 6.12563 29.2208 11.7889 28.987 14.4087C28.948 14.9481 28.8701 15.7571 28.2078 16.258C27.7403 16.6817 26.961 16.7588 26.1818 16.7588ZM3.70129 16.335C7.71428 16.335 11.5714 16.335 15.2338 16.335C18.6623 16.335 21.9351 16.335 25.1688 16.335C25.3247 16.335 25.5195 16.335 25.6753 16.335C26.5714 16.335 27.4675 16.3735 28.0519 15.9112C28.5195 15.526 28.6364 14.9866 28.6753 14.3317C28.9091 11.7504 28.8312 6.0871 28.7922 3.35176C28.7922 2.73534 28.7922 2.27303 28.7922 2.04188C28.7922 1.1943 28.5584 0.577889 25.7532 0.346734L3.70129 0.462312C2.84415 0.462312 2.02596 0.500838 1.48051 0.886097C0.857133 1.30988 0.467523 1.9263 0.467523 2.50419C0.467523 3.89112 0.467523 5.20101 0.428562 6.43384C0.857133 6.54941 1.24674 6.74204 1.55843 7.01173C1.987 7.39699 2.25973 7.8593 2.29869 8.32161C2.33765 8.78392 2.14285 9.28476 1.75324 9.70854C1.40259 10.0553 0.935055 10.3635 0.389601 10.5561C0.389601 12.1357 0.389601 13.4456 0.428562 14.6399C0.428562 15.1022 0.467523 15.4489 0.701289 15.7571C1.20778 16.335 2.29869 16.335 3.31168 16.335C3.46752 16.335 3.58441 16.335 3.70129 16.335Z" fill="#999999"/>
<path d="M10.2078 16.2194C10.2078 15.9112 10.1688 15.603 10.1688 15.2563C10.1688 14.6399 10.1299 14.0235 10.1299 13.407C10.1299 11.2111 10.0909 9.01509 10.0909 6.78058C10.0909 4.5846 10.1299 2.38862 10.2078 0.192642C8.02596 0.192642 5.84414 0.192642 3.70129 0.231168C2.88311 0.231168 1.987 0.269694 1.40259 0.69348C0.740248 1.15579 0.272716 1.84926 0.272716 2.5042C0.272716 3.89113 0.272716 5.23954 0.233755 6.58795C0.701287 6.665 1.12986 6.89616 1.44155 7.16584C1.83116 7.51257 2.06492 7.89783 2.10388 8.36015C2.18181 8.82246 1.94804 9.24624 1.63635 9.59298C1.2857 9.97824 0.81817 10.2094 0.272716 10.402C0.233755 10.402 0.233755 10.402 0.194794 10.402C0.194794 11.8275 0.194794 13.2144 0.233755 14.6399C0.233755 15.0637 0.272716 15.526 0.584404 15.8727C1.20778 16.6047 2.57142 16.4891 3.74025 16.4891C5.96103 16.4891 8.14285 16.4891 10.2467 16.4891C10.2078 16.4121 10.2078 16.335 10.2078 16.2194Z" fill="#009247"/>
<path d="M2.92208 16.7203C1.94805 16.7203 0.935065 16.6432 0.428571 16.0268C0.0779221 15.603 0.0779221 15.0637 0.038961 14.6784C0 13.407 0 12.0586 0 10.402C0 10.325 0.038961 10.2479 0.155844 10.2094H0.194805C0.194805 10.2094 0.194805 10.2094 0.233766 10.2094C0.779221 10.0553 1.20779 9.7856 1.51948 9.47739C1.83117 9.13066 2.02597 8.7454 1.98701 8.39866C1.94805 8.01341 1.71429 7.62815 1.36364 7.31994C1.05195 7.05026 0.662338 6.85763 0.233766 6.78057C0.155844 6.78057 0.0779221 6.665 0.0779221 6.58794C0.0779221 5.31659 0.116883 3.92965 0.116883 2.50419C0.116883 1.81073 0.584416 1.07873 1.28571 0.577894C1.90909 0.154109 2.80519 0.115583 3.7013 0.115583L10.2078 0.0770569C10.2468 0.0770569 10.3247 0.115583 10.3636 0.154109C10.4026 0.192635 10.4026 0.231161 10.4026 0.308213C10.3247 2.54272 10.2857 4.7387 10.2857 6.85763C10.2857 8.51424 10.2857 10.2094 10.3247 11.866C10.3247 12.4054 10.3247 12.9447 10.3247 13.4841C10.3247 13.8308 10.3247 14.1776 10.3636 14.4858C10.3636 14.7554 10.3636 15.0251 10.4026 15.2948C10.4026 15.4489 10.4026 15.603 10.4026 15.7957C10.4026 15.9498 10.4026 16.1039 10.4026 16.258C10.4026 16.3735 10.4026 16.4506 10.4026 16.5662C10.4026 16.6047 10.4026 16.6817 10.3636 16.7203C10.3247 16.7588 10.2857 16.7973 10.2078 16.7973C8.1039 16.7973 5.92208 16.7973 3.7013 16.7973C3.58442 16.7973 3.42857 16.7973 3.31169 16.7973C3.19481 16.7203 3.03896 16.7203 2.92208 16.7203ZM0.38961 10.5561C0.38961 12.1357 0.38961 13.4456 0.428571 14.6399C0.428571 15.1022 0.467532 15.4489 0.701299 15.7571C1.20779 16.335 2.2987 16.335 3.31169 16.335C3.42857 16.335 3.58442 16.335 3.7013 16.335C5.84416 16.335 7.94805 16.335 10.013 16.335C10.013 16.2965 10.013 16.258 10.013 16.2194C10.013 16.0653 10.013 15.9112 10.013 15.7571C10.013 15.603 10.013 15.4104 10.013 15.2563C10.013 14.9866 10.013 14.7169 9.97403 14.4472C9.97403 14.1005 9.93506 13.7538 9.93506 13.4456C9.93506 12.9062 9.93506 12.3668 9.93506 11.8275C9.93506 10.1709 9.8961 8.47572 9.8961 6.8191C9.8961 4.7387 9.93507 2.61977 10.013 0.423791L3.7013 0.462317C2.84416 0.462317 2.02597 0.500842 1.48052 0.886102C0.857143 1.30989 0.467532 1.9263 0.467532 2.50419C0.467532 3.89113 0.467532 5.20101 0.428571 6.43384C0.857143 6.54942 1.24675 6.74205 1.55844 7.01173C1.98701 7.39699 2.25974 7.8593 2.2987 8.32161C2.33766 8.78393 2.14286 9.28476 1.75325 9.70855C1.4026 10.0938 0.974026 10.3635 0.38961 10.5561Z" fill="#999999"/>
<path d="M7.79219 13.7152H3.97401C3.93505 13.7152 3.89609 13.6767 3.89609 13.6382C3.89609 13.5997 3.93505 13.5611 3.97401 13.5611H7.79219C7.83115 13.5611 7.87011 13.5997 7.87011 13.6382C7.87011 13.7152 7.83115 13.7152 7.79219 13.7152Z" fill="white"/>
<path d="M7.79222 12.1742H4.67533C4.63637 12.1742 4.59741 12.1357 4.59741 12.0971C4.59741 12.0586 4.63637 12.0201 4.67533 12.0201H7.79222C7.83118 12.0201 7.87014 12.0586 7.87014 12.0971C7.87014 12.1742 7.83118 12.1742 7.79222 12.1742Z" fill="white"/>
<path d="M7.7922 10.6332H3.66233C3.62337 10.6332 3.58441 10.5946 3.58441 10.5561C3.58441 10.5176 3.62337 10.4791 3.66233 10.4791H7.7922C7.83117 10.4791 7.87013 10.5176 7.87013 10.5561C7.87013 10.5946 7.83117 10.6332 7.7922 10.6332Z" fill="white"/>
<path d="M7.7922 7.55108H3.66233C3.62337 7.55108 3.58441 7.51255 3.58441 7.47402C3.58441 7.4355 3.62337 7.39697 3.66233 7.39697H7.7922C7.83117 7.39697 7.87013 7.4355 7.87013 7.47402C7.87013 7.51255 7.83117 7.55108 7.7922 7.55108Z" fill="white"/>
<path d="M7.7922 2.92797H3.66233C3.62337 2.92797 3.58441 2.88944 3.58441 2.85092C3.58441 2.81239 3.62337 2.77386 3.66233 2.77386H7.7922C7.83117 2.77386 7.87013 2.81239 7.87013 2.85092C7.87013 2.88944 7.83117 2.92797 7.7922 2.92797Z" fill="white"/>
<path d="M7.79221 6.01005H4.16883C4.12987 6.01005 4.09091 5.97152 4.09091 5.93299C4.09091 5.89447 4.12987 5.85594 4.16883 5.85594H7.79221C7.83117 5.85594 7.87013 5.89447 7.87013 5.93299C7.87013 5.97152 7.83117 6.01005 7.79221 6.01005Z" fill="white"/>
<path d="M7.79222 9.09212H4.67533C4.63637 9.09212 4.59741 9.0536 4.59741 9.01507C4.59741 8.97654 4.63637 8.93802 4.67533 8.93802H7.79222C7.83118 8.93802 7.87014 8.97654 7.87014 9.01507C7.87014 9.0536 7.83118 9.09212 7.79222 9.09212Z" fill="white"/>
<path d="M7.79222 4.469H4.67533C4.63637 4.469 4.59741 4.43047 4.59741 4.39195C4.59741 4.35342 4.63637 4.3149 4.67533 4.3149H7.79222C7.83118 4.3149 7.87014 4.35342 7.87014 4.39195C7.87014 4.43047 7.83118 4.469 7.79222 4.469Z" fill="white"/>
<path d="M27.6234 15.4874C27.5844 15.4874 27.5454 15.4489 27.5454 15.4104C27.7013 14.7554 27.7792 14.062 27.7792 13.407C27.7792 13.3685 27.8182 13.33 27.8571 13.33C27.8961 13.33 27.9351 13.3685 27.9351 13.407C27.9351 14.1005 27.8571 14.794 27.7013 15.4489C27.6623 15.4489 27.6623 15.4874 27.6234 15.4874Z" fill="#999999"/>
<path d="M26.9221 15.6801C26.8831 15.6801 26.8441 15.6415 26.8441 15.603L26.9221 14.7169C26.9221 14.6784 26.961 14.6399 27 14.6784C27.039 14.6784 27.0779 14.7169 27.039 14.7554L26.961 15.6415C27 15.6415 26.961 15.6801 26.9221 15.6801Z" fill="#999999"/>
<path d="M10.987 2.6583C10.948 2.6583 10.9091 2.61977 10.9091 2.58124C10.8701 2.08041 10.8701 1.57957 10.9091 1.07873C10.9091 1.0402 10.948 1.00168 10.987 1.00168C11.026 1.00168 11.0649 1.0402 11.0649 1.07873C11.026 1.57957 11.026 2.08041 11.0649 2.58124C11.0649 2.61977 11.026 2.6583 10.987 2.6583Z" fill="#999999"/>
<g opacity="0.1294">
<path opacity="0.1294" d="M28.0909 16.1424C27.974 16.1424 27.8961 16.1809 27.8182 16.258C27.7792 16.2965 27.7402 16.2965 27.7402 16.2965C27.0779 16.4506 27.1558 16.4506 26.6883 16.4506C25.7532 16.4506 25.7922 16.4121 25.1299 16.335C24.6234 16.2965 24.5454 16.3735 23.8831 16.4121C23.026 16.4121 22.1299 16.4121 21.2727 16.4121C20.8052 16.4121 20.3377 16.3735 19.8701 16.3735C19.5974 16.4121 19.3247 16.4121 19.013 16.4121C17.7273 16.4121 16.4805 16.4121 15.1948 16.4121C14.3766 16.4891 12.039 16.4121 11.1428 16.4121C10.2467 16.4121 9.35064 16.4506 8.4935 16.4506C7.71428 16.4121 7.01298 16.4121 6.50648 16.4891C5.99999 16.4891 6.31168 16.4506 5.80518 16.4121C5.41557 16.4506 5.37661 17.0285 5.76622 17.1441C6.42856 17.3367 7.0909 17.3367 7.48051 17.2596C8.64934 17.2982 10.6364 17.2596 11.4156 17.1826C12.5454 17.1441 13.6753 17.2596 14.8052 17.2596C15.2338 17.2596 15.5065 17.2982 16.1688 17.2596C17.2208 17.2211 18.2727 17.3752 19.3247 17.2982C19.9091 17.2982 20.4545 17.2211 21.039 17.2211C21.8182 17.2211 22.013 17.2982 22.6753 17.2982C23.2987 17.2982 23.9221 17.2596 24.5065 17.2982C24.8571 17.3367 25.0909 17.3367 25.6753 17.3367C25.987 17.3367 26.2987 17.3752 26.6104 17.3367C27.1948 17.2596 27.6623 17.1826 28.1299 16.8744L28.0909 16.9129C28.2078 16.8744 28.3247 16.7973 28.3636 16.7203C28.5195 16.4891 28.3636 16.1424 28.0909 16.1424Z" fill="black"/>
</g>
<path d="M19.0519 3.58292C19.4026 3.42881 20.1039 6.27974 20.1039 6.27974C20.1039 6.27974 22.7532 6.08711 22.987 6.51089C23.2208 6.9732 20.8052 8.43719 20.8052 8.43719C20.8052 8.43719 21.7792 11.2881 21.4675 11.4807C21 11.7504 19.0519 9.90118 19.0519 9.90118C19.0519 9.90118 16.948 11.6734 16.6363 11.4807C16.4415 11.4037 17.3766 8.51424 17.3766 8.51424C17.3766 8.51424 15.0779 7.08878 15.2337 6.70352C15.3506 6.35679 18 6.39531 18 6.39531C18 6.39531 18.5844 3.77555 19.0519 3.58292Z" fill="#009247"/>
<path d="M21.3896 11.6734C20.8052 11.6734 19.7532 10.7873 19.0519 10.1323C17.6883 11.2881 16.8311 11.7889 16.5584 11.6348C16.3636 11.5578 16.2078 11.4807 17.1428 8.59129C16.948 8.47571 16.5195 8.20603 16.1298 7.89782C15.1169 7.16583 14.961 6.85762 15.0389 6.62646C15.1169 6.47236 15.2727 6.27973 16.6363 6.20268C17.1039 6.16415 17.5714 6.16415 17.8441 6.16415C18.0389 5.27805 18.5065 3.58291 18.974 3.35176C19.0519 3.31323 19.1298 3.31323 19.2078 3.35176C19.5974 3.54439 20.026 5.16248 20.2597 6.01005C21.3117 5.93299 22.948 5.89447 23.1428 6.35678C23.4156 6.85762 22.1688 7.74371 21.0389 8.47571C22.013 11.3652 21.7013 11.5193 21.5844 11.5963C21.5065 11.6348 21.4675 11.6734 21.3896 11.6734ZM19.0519 9.67001C19.0909 9.67001 19.1298 9.67001 19.1688 9.70854C20.0649 10.5561 21.0389 11.2496 21.3506 11.2881C21.3896 10.9414 21 9.59296 20.6104 8.47571C20.5714 8.39866 20.6104 8.28308 20.6883 8.24455C21.8182 7.55108 22.7532 6.78057 22.7922 6.54941C22.6363 6.39531 21.3896 6.35678 20.1039 6.43383C20.026 6.43383 19.9091 6.39531 19.9091 6.27973C19.6363 5.23953 19.2857 4.04522 19.0519 3.77554C18.8182 4.0067 18.4285 5.16248 18.1558 6.43383C18.1169 6.51088 18.0389 6.58794 17.961 6.58794C16.9091 6.54941 15.6623 6.62646 15.3896 6.78057C15.5454 7.05025 16.5195 7.78224 17.4545 8.36013C17.5324 8.39866 17.5714 8.51423 17.5324 8.59129C17.1818 9.63149 16.8311 10.8258 16.7922 11.2496C17.1818 11.0955 18.1169 10.3635 18.8961 9.70854C18.974 9.67001 19.013 9.67001 19.0519 9.67001Z" fill="#009247"/>
</g>
<defs>
<clipPath id="clip0_17_231">
<rect width="33" height="23" fill="white"/>
</clipPath>
</defs>
</svg>
