<svg width="1441" height="542" viewBox="0 0 1441 542" fill="none" xmlns="http://www.w3.org/2000/svg">
<mask id="mask0_125_9419" style="mask-type:luminance" maskUnits="userSpaceOnUse" x="0" y="0" width="1441" height="542">
<path d="M1440.55 0H0.553711V541.613H1440.55V0Z" fill="white"/>
</mask>
<g mask="url(#mask0_125_9419)">
<path d="M1440.55 0H0.553711V541.613H1440.55V0Z" fill="#241DCF"/>
<path d="M1440.55 0H0.553711V541.613H1440.55V0Z" fill="#E8E7FF"/>
<mask id="mask1_125_9419" style="mask-type:luminance" maskUnits="userSpaceOnUse" x="70" y="155" width="641" height="387">
<path d="M711 155.613H70V541.613H711V155.613Z" fill="white"/>
</mask>
<g mask="url(#mask1_125_9419)">
<path d="M119.139 540.029C33.5346 422.914 75.005 267.449 128.6 230.889C206.397 177.806 259.371 239.45 339.97 239.358C426.631 239.266 418.732 147.213 539.882 156.232C657.887 165.022 703.651 286.406 709.828 376.83C716.12 468.975 695.706 518.961 683.513 540.029H119.139Z" fill="url(#paint0_linear_125_9419)"/>
<path d="M578.23 540.901C579.218 540.121 595.315 509.115 605.969 523.895C605.969 523.895 621.951 469.664 643.857 472.234C665.764 474.804 647.211 515.013 647.211 515.013C647.211 515.013 665.947 507.325 661.608 527.636C661.608 527.636 685.489 523.298 683.698 540.442L578.23 540.901Z" fill="#8FE98C"/>
<path d="M676.548 485.834C674.664 484.272 670.767 485.863 667.846 489.385C664.924 492.908 664.083 497.03 665.967 498.591C667.852 500.152 671.748 498.562 674.67 495.039C677.592 491.516 678.433 487.395 676.548 485.834Z" fill="#8FE98C"/>
<path d="M677.471 501.127C676.358 500.205 674.051 501.151 672.319 503.239C670.587 505.327 670.085 507.768 671.198 508.69C672.312 509.612 674.618 508.667 676.35 506.578C678.082 504.49 678.584 502.05 677.471 501.127Z" fill="#8FE98C"/>
<path d="M646.338 518.984C646.292 518.961 646.223 518.938 646.2 518.892C646.131 518.777 646.154 518.639 646.269 518.571C646.452 518.433 650.999 515.449 654.995 516.321C655.109 516.344 655.201 516.459 655.178 516.597C655.155 516.712 655.04 516.803 654.903 516.78C651.114 515.954 646.567 518.938 646.544 518.961C646.452 518.984 646.407 518.984 646.338 518.984Z" fill="black"/>
<path d="M649.392 519.328C649.346 519.305 649.277 519.282 649.254 519.236C649.185 519.121 649.208 518.984 649.323 518.915C649.415 518.846 651.504 517.492 655.224 517.721C655.362 517.721 655.454 517.836 655.431 517.974C655.431 518.112 655.316 518.203 655.178 518.18C651.596 517.951 649.576 519.282 649.553 519.282C649.507 519.328 649.438 519.328 649.392 519.328Z" fill="black"/>
<path d="M592.49 528.164C592.444 528.164 592.376 528.141 592.33 528.095C592.238 528.003 592.238 527.865 592.33 527.774C592.49 527.613 596.302 523.711 600.367 523.711C600.504 523.711 600.596 523.803 600.596 523.941C600.596 524.079 600.504 524.17 600.367 524.17C596.486 524.17 592.697 528.049 592.651 528.095C592.628 528.141 592.559 528.164 592.49 528.164Z" fill="black"/>
<path d="M595.544 527.865C595.475 527.865 595.429 527.842 595.383 527.797C595.291 527.705 595.291 527.567 595.383 527.475C595.452 527.406 597.22 525.639 600.917 525.065C601.055 525.043 601.17 525.134 601.17 525.249C601.193 525.364 601.101 525.502 600.986 525.502C597.45 526.029 595.728 527.751 595.728 527.774C595.682 527.842 595.613 527.865 595.544 527.865Z" fill="black"/>
<path d="M496.047 361.338L490.329 353.008L492.029 351.837L497.746 360.168L496.047 361.338ZM484.589 344.677L478.871 336.346L480.57 335.175L486.288 343.506L484.589 344.677ZM473.153 328.015L467.436 319.684L469.135 318.513L474.853 326.844L473.153 328.015ZM461.695 311.33L455.977 302.999L457.677 301.828L463.394 310.159L461.695 311.33ZM450.26 294.668L444.542 286.337L446.241 285.167L451.959 293.498L450.26 294.668Z" fill="white"/>
<path d="M152.711 337.103C152.711 337.103 137.808 312.477 102.079 318.881C102.079 318.881 126.143 354.545 152.711 337.103Z" fill="#3E9896"/>
<path d="M175.972 343.598C175.972 343.598 171.54 294.255 111.401 277.134C111.401 277.157 121.666 350.506 175.972 343.598Z" fill="#80C4A4"/>
<path d="M145.087 267.793C154.502 267.288 186.787 265.934 208.854 269.216C211.725 269.629 213.539 266.21 211.564 264.098C210.416 262.859 208.418 261.849 205.111 261.62C205.111 261.62 206.26 241.033 190.691 239.656C172.849 238.096 172.619 258.338 172.619 258.338C172.619 258.338 164.514 250.65 158.658 260.403C158.658 260.403 148.555 254.551 143.434 265.361C142.883 266.508 143.778 267.862 145.087 267.793Z" fill="white"/>
<path d="M327.64 287.003C323.415 286.75 313.541 286.337 304.953 287.072C301.394 287.37 298.339 284.524 298.408 280.967C298.431 279.498 298.959 277.8 300.314 275.895C305.527 268.482 314.597 275.551 314.505 279.314C314.505 279.314 316.342 273.646 321.899 274.655C327.456 275.642 325.504 283.881 325.504 283.881C325.504 283.881 327.295 283.491 328.535 284.34C329.775 285.167 329.109 287.072 327.64 287.003Z" fill="white"/>
<path d="M643.283 253.151C637.474 252.83 623.857 252.233 612.031 253.243C607.14 253.656 602.915 249.754 603.007 244.843C603.053 242.823 603.765 240.505 605.648 237.843C612.835 227.653 625.326 237.384 625.212 242.571C625.212 242.571 627.738 234.768 635.407 236.145C643.077 237.499 640.367 248.859 640.367 248.859C640.367 248.859 642.847 248.332 644.569 249.502C646.245 250.604 645.327 253.266 643.283 253.151Z" fill="white"/>
<path d="M317.467 538.445H268.672L268.718 436.294H317.49L317.467 538.445Z" fill="#230C1E"/>
<path d="M440.018 473.427V333.477C440.018 326.821 434.622 321.428 427.963 321.428H156.5C149.841 321.428 144.444 326.821 144.444 333.477V473.427H440.018Z" fill="#230C1E"/>
<path d="M144.444 473.427V495.85C144.444 500.509 147.521 504.295 151.333 504.295H433.13C436.941 504.295 440.018 500.509 440.018 495.85V473.427H144.444Z" fill="#5B2750"/>
<path d="M433.107 467.346V333.867C433.107 330.379 430.168 327.533 426.54 327.533H157.924C154.296 327.533 151.356 330.379 151.356 333.867V467.346H433.107Z" fill="#DCF4FF"/>
<path d="M359.075 541.36C359.902 536.541 356.664 532.616 351.819 532.616H234.435C229.613 532.616 225.02 536.541 224.193 541.36H359.075Z" fill="#5B2750"/>
<path d="M433.13 504.64H151.333C147.338 504.64 144.1 500.692 144.1 495.85V333.477C144.1 326.638 149.657 321.084 156.5 321.084V321.795C150.047 321.795 144.812 327.028 144.812 333.477V495.85C144.812 500.302 147.751 503.951 151.356 503.951H433.153V504.64H433.13Z" fill="#21111D"/>
<path d="M398.185 480.695L397.607 480.28L390.887 489.641L391.465 490.055L398.185 480.695Z" fill="#21111D"/>
<path d="M398.181 485.377L397.608 484.954L390.887 494.059L391.46 494.481L398.181 485.377Z" fill="#21111D"/>
<path d="M284.087 506.636L283.469 506.283L280.12 512.141L280.738 512.494L284.087 506.636Z" fill="#21111D"/>
<path d="M284.326 510.71L283.712 510.35L280.691 515.497L281.305 515.857L284.326 510.71Z" fill="#21111D"/>
<path d="M433.452 467.713H151.356V467.001H432.74V333.867C432.74 330.562 429.961 327.877 426.517 327.877V327.166C430.329 327.166 433.429 330.172 433.429 333.844V467.713H433.452Z" fill="#21111D"/>
<path d="M380.27 317.687L389.524 317.825C391.131 317.412 394.3 316.356 398.066 315.323C399.122 318.444 400.018 320.808 400.408 320.739L400.546 321.451C400.592 321.635 400.684 321.772 400.845 321.887C401.533 325.169 402.337 329.346 403.233 332.811C403.876 335.267 404.473 334.854 402.888 336.713C401.97 337.792 396.711 341.991 394.53 342.519L380.293 347.247C379.329 342.909 364.839 331.572 365.39 330.723L380.27 317.687Z" fill="#FE9F73"/>
<path d="M301.807 479.142L302.128 478.729L300.475 386.24C300.475 386.24 330.923 406.642 340.04 407.032C349.156 407.423 386.883 351.47 386.883 351.47C378.938 333.225 362.198 330.7 362.198 330.7L331.061 364.827L294.551 331.756C289.683 328.795 252.277 328.175 252.277 328.175C252.277 328.175 213.378 327.326 204.377 339.054C197.718 347.752 182.08 381.741 179.279 403.796C176.5 425.852 179.279 440.127 196.133 442.743L202.264 442.881L202.746 479.165C202.769 479.142 236.731 486.784 301.807 479.142Z" fill="#E9516A"/>
<path d="M211.633 410.085L210.921 409.282L217.718 403.544L220.29 372.125L221.369 372.217L218.752 404.072L211.633 410.085Z" fill="#21111D"/>
<path d="M202.287 443.386L196.087 443.248C187.821 441.963 182.516 437.878 179.876 430.717C177.58 424.521 177.235 415.937 178.774 403.705L179.83 403.842C176.684 428.766 181.437 439.874 196.202 442.192L202.287 442.33V443.386Z" fill="#21111D"/>
<path d="M331.406 373.961L330.51 365.102L295.194 333.064C292.599 330.723 287.57 330.677 287.524 330.677V329.598C287.754 329.598 293.012 329.621 295.929 332.261L331.544 364.575L332.485 373.846L331.406 373.961Z" fill="#21111D"/>
<path d="M331.429 365.194L330.625 364.46L361.969 330.126L362.267 330.172C362.428 330.195 379.007 333.087 387.343 351.24L386.378 351.699C378.869 335.382 364.564 331.756 362.382 331.297L331.429 365.194Z" fill="#21111D"/>
<path d="M261.117 482.86C260.796 482.86 260.474 482.86 260.176 482.86V481.781C273.586 481.919 297.559 479.096 301.233 478.66L299.901 377.335L300.98 377.312L302.335 479.601L301.853 479.67C301.6 479.716 275.859 482.86 261.117 482.86Z" fill="#21111D"/>
<path d="M238.499 289.481C238.499 289.481 245.847 284.731 253.31 285.947C257.627 286.636 261.003 290.055 261.76 294.37L262.495 298.593L239.165 293.062C239.165 293.062 236.019 295.288 236.203 294.737C236.387 294.209 238.499 289.481 238.499 289.481Z" fill="#FE9F73"/>
<path d="M261.691 293.911L264.768 311.697C264.768 311.697 266.123 318.009 260.704 319.753L263.207 328.061C264.148 331.136 262.77 334.487 259.9 335.979C258.499 336.713 256.8 337.356 254.779 337.7C248.419 338.801 244.148 334.624 243.206 332.329C242.265 330.034 241.897 318.376 241.897 318.376L240.726 312.822L237.695 291.019L261.691 293.911Z" fill="#FE9F73"/>
<path d="M247.661 303.137C247.592 303.137 247.523 303.114 247.477 303.068C247.363 302.976 247.363 302.793 247.454 302.678C247.5 302.632 251.128 298.799 254.55 301.461C254.665 301.553 254.688 301.714 254.596 301.829C254.504 301.943 254.343 301.966 254.228 301.875C251.197 299.511 247.983 302.884 247.868 303.045C247.799 303.091 247.73 303.137 247.661 303.137Z" fill="#4C222E"/>
<path d="M259.326 299.786C259.257 299.809 259.166 299.786 259.12 299.74C259.005 299.648 258.982 299.488 259.074 299.373C259.166 299.258 261.232 296.596 263.092 297.629C263.23 297.698 263.276 297.858 263.207 297.996C263.138 298.134 262.977 298.179 262.84 298.111C261.37 297.307 259.51 299.694 259.51 299.717C259.441 299.74 259.372 299.786 259.326 299.786Z" fill="#4C222E"/>
<path d="M252.529 306.029C252.973 306.029 253.333 305.669 253.333 305.225C253.333 304.782 252.973 304.422 252.529 304.422C252.085 304.422 251.726 304.782 251.726 305.225C251.726 305.669 252.085 306.029 252.529 306.029Z" fill="black"/>
<path d="M260.842 303.779C261.286 303.779 261.645 303.42 261.645 302.976C261.645 302.532 261.286 302.173 260.842 302.173C260.398 302.173 260.038 302.532 260.038 302.976C260.038 303.42 260.398 303.779 260.842 303.779Z" fill="black"/>
<path d="M238.453 289.206C238.453 289.206 231.656 290.055 230.967 296.229C230.278 302.402 233.723 305.019 234.09 306.763C234.458 308.507 235.307 320.533 243.459 318.215L242.334 298.294L238.086 291.019L238.453 289.206Z" fill="#4C222E"/>
<path d="M241.944 311.605C244.62 311.605 246.789 309.437 246.789 306.763C246.789 304.088 244.62 301.92 241.944 301.92C239.268 301.92 237.099 304.088 237.099 306.763C237.099 309.437 239.268 311.605 241.944 311.605Z" fill="#FE9F73"/>
<path d="M242.104 309.746C241.117 309.907 240.313 309.287 239.969 308.576C239.555 307.75 239.716 306.832 240.336 306.258C241.277 305.432 242.311 305.684 242.862 305.914C242.563 305.409 242.173 305.065 241.691 304.904C240.657 304.56 239.555 305.133 239.555 305.133C239.486 305.179 239.417 305.133 239.372 305.088C239.326 305.019 239.372 304.95 239.417 304.904C239.463 304.881 240.635 304.261 241.76 304.651C242.426 304.881 242.931 305.386 243.275 306.189L243.459 306.625L243.069 306.35C243.023 306.304 241.691 305.409 240.497 306.465C239.831 307.061 239.923 307.91 240.175 308.461C240.451 309.035 241.094 309.632 242.012 309.471H242.035C242.104 309.448 242.173 309.517 242.196 309.586C242.219 309.655 242.173 309.723 242.081 309.746C242.104 309.746 242.104 309.746 242.104 309.746Z" fill="#F07162"/>
<path d="M246.857 316.586C246.857 316.586 249.062 327.166 262.541 325.88L260.704 319.753C260.681 319.753 252.368 322.966 246.857 316.586Z" fill="#F07162"/>
<path d="M257.053 309.953C257.007 309.953 256.938 309.93 256.915 309.884C256.869 309.815 256.915 309.746 256.961 309.701L259.464 308.369L257.535 302.265C257.512 302.196 257.558 302.127 257.627 302.104C257.696 302.081 257.765 302.127 257.788 302.196L259.762 308.507L257.053 309.953C257.076 309.953 257.076 309.953 257.053 309.953Z" fill="#F07162"/>
<path d="M241.967 319.867L241.324 310.756L243.597 310.619L245.158 319.592L241.967 319.867Z" fill="#FE9F73"/>
<path d="M242.38 298.57C242.38 298.57 262.426 293.865 262.863 288.908C263.299 283.95 258.5 284.639 258.5 284.639C258.5 284.639 258.224 277.754 252.461 280.806C246.697 283.859 235.308 285.557 233.103 291.776C230.876 297.996 242.38 298.57 242.38 298.57Z" fill="#4C222E"/>
<path d="M241.783 297.376L242.541 301.737C242.541 301.737 244.676 304.009 244.676 307.383C244.676 307.383 245.985 307.635 246.031 306.556C246.077 305.501 243.551 298.616 245.801 296.894C248.052 295.173 240.773 295.035 240.566 295.196C240.359 295.334 236.639 298.134 237.168 297.95C237.696 297.766 241.783 297.376 241.783 297.376Z" fill="#4C222E"/>
<path d="M292.645 421.445C297.559 417.131 292.415 416.396 292.415 416.396C294.804 413.803 294.252 412.586 293.38 412.036C292.737 411.623 291.933 411.577 291.221 411.852C288.971 412.724 282.082 415.432 277.88 417.36C274.895 417.153 275.836 412.104 277.191 409.534C277.88 408.203 277.926 406 274.688 408.226C272.048 410.039 268.052 415.983 268.052 415.983L251.404 414.377L253.884 437.327C253.884 437.327 272.897 437.051 275.768 437.051C278.638 437.028 288.236 433.769 291.13 431.245C296.388 426.678 293.081 426.448 293.081 426.448C298.041 421.193 292.645 421.445 292.645 421.445Z" fill="#FE9F73"/>
<path d="M286.399 420.183C286.261 420.183 286.123 420.114 286.055 419.976C285.986 419.793 286.055 419.609 286.238 419.517C288.695 418.508 292.186 416.121 292.208 416.098C292.369 415.983 292.576 416.029 292.691 416.19C292.806 416.35 292.76 416.557 292.599 416.672C292.461 416.763 289.04 419.104 286.491 420.16C286.468 420.183 286.422 420.183 286.399 420.183Z" fill="#F07162"/>
<path d="M286.744 424.544C286.583 424.566 286.422 424.452 286.376 424.291C286.33 424.107 286.445 423.924 286.629 423.878C289.752 423.029 292.415 421.193 292.461 421.193C292.622 421.078 292.829 421.124 292.944 421.285C293.058 421.445 293.013 421.652 292.852 421.767C292.737 421.835 290.073 423.694 286.813 424.566C286.767 424.544 286.744 424.544 286.744 424.544Z" fill="#F07162"/>
<path d="M287.892 429.432C287.731 429.455 287.593 429.34 287.524 429.179C287.478 428.996 287.57 428.812 287.754 428.743C290.441 427.94 292.783 426.173 292.806 426.15C292.967 426.035 293.173 426.058 293.288 426.219C293.403 426.379 293.38 426.586 293.219 426.701C293.127 426.77 290.739 428.56 287.938 429.409C287.938 429.432 287.915 429.432 287.892 429.432Z" fill="#F07162"/>
<path d="M226.673 404.347L261.14 406.551C261.14 406.551 264.539 417.222 260.451 438.887C260.061 440.999 259.234 444.579 259.234 444.579C259.234 444.579 242.219 445.933 239.555 440.402C237.879 436.937 241.553 421.95 241.553 421.95L226.673 404.347Z" fill="#E9516A"/>
<path d="M259.648 445.13L202.287 443.386L202.31 442.307L258.821 444.028C259.625 440.677 264.791 418.209 260.773 407.055L218.2 404.324L218.269 403.246L261.531 406.023L261.645 406.344C266.353 418.53 260.015 443.638 259.762 444.694L259.648 445.13Z" fill="#21111D"/>
<path d="M255.308 312.133C255.377 312.11 260.359 311.605 260.359 311.605C260.359 311.605 259.9 313.717 258.063 313.9C256.203 314.084 255.308 312.133 255.308 312.133Z" fill="#FBFDFA"/>
<path d="M363.737 290.307C363.737 290.307 349.707 296.32 355.723 309.792C361.326 322.346 373.106 316.333 376.137 314.818C379.168 313.304 363.737 290.307 363.737 290.307Z" fill="#91D3E2"/>
<path d="M379.742 316.471C379.742 316.471 386.011 327.051 387.549 336.162C388.973 344.654 390.535 345.709 393.543 344.631C396.551 343.552 403.531 339.696 402.865 336.713C402.2 333.729 396.757 318.903 389.386 312.133C382.038 305.363 379.742 316.471 379.742 316.471Z" fill="#52B6C6"/>
<path d="M400.478 250.787C400.478 250.787 381.005 274.862 374.622 282.275L371.866 290.308L380.431 309.264L389.272 311.009L429.502 308.323L427.459 304.261L415.38 286.888L405.966 265.934L401.327 252.761L400.478 250.787Z" fill="#52B6C6"/>
<path d="M374.622 282.275C374.622 282.275 375.93 299.947 389.272 311.009C389.272 311.009 390.144 312.133 389.18 313.235L382.452 316.999C382.452 316.999 379.421 319.087 375.31 315.025C371.2 310.986 363.324 301.53 363.094 288.839C363.094 288.839 362.957 285.419 366.722 283.79L371.705 281.403C371.751 281.403 373.979 280.416 374.622 282.275Z" fill="#D4EBF2"/>
<path d="M400.477 250.787C400.477 250.787 405.529 244.476 409.203 243.581C412.877 242.709 417.791 246.564 421.212 249.869C424.634 253.174 434.967 267.013 438.365 277.295C441.764 287.599 445.644 302.494 441.006 305.661C436.368 308.805 429.502 308.323 429.502 308.323C429.502 308.323 419.329 303.435 408.606 282.642C397.882 261.849 400.477 250.787 400.477 250.787Z" fill="#91D3E2"/>
<path d="M437.562 307.222C437.562 307.222 441.396 297.996 432.854 278.167C419.421 246.955 406.218 245.21 406.218 245.21C406.218 245.21 399.214 254.276 416.046 283.422C429.915 307.451 437.562 307.222 437.562 307.222Z" fill="#3B9DA8"/>
<path d="M409.686 270.983C411.293 274.656 413.36 278.787 416.046 283.445C417.401 285.763 418.664 287.875 419.904 289.757C423.21 287.508 428.285 282.734 423.601 275.344C419.238 268.482 413.015 269.652 409.686 270.983Z" fill="#D4EBF2"/>
<path d="M392.969 344.952C392.004 345.204 391.269 345.159 390.649 344.791C389.226 343.965 388.284 341.464 387.389 336.162C386.172 328.956 382.015 320.877 380.247 317.664C378.663 317.618 377.033 316.838 375.425 315.323C370.396 317.756 366.056 318.353 362.543 317.09C359.558 316.012 357.216 313.579 355.54 309.861C353.266 304.766 353.542 300.13 356.389 296.114C358.571 292.993 361.694 291.157 363.025 290.491C362.979 289.94 362.957 289.412 362.957 288.862C362.957 288.839 362.865 285.327 366.676 283.675L371.659 281.288C371.705 281.265 372.876 280.76 373.795 281.173C374.162 281.334 374.461 281.609 374.644 282.022C381.12 274.495 400.156 250.948 400.34 250.718C400.546 250.466 405.46 244.338 409.134 243.466C412.854 242.571 417.791 246.427 421.281 249.8C424.749 253.151 435.059 266.967 438.48 277.295C442.2 288.586 445.668 302.701 441.075 305.822C436.529 308.897 429.801 308.53 429.479 308.507L389.524 311.169C389.662 311.422 389.823 311.835 389.777 312.317C393.657 316.012 396.849 321.772 398.847 325.949C401.143 330.746 402.659 335.106 403.003 336.69C403.394 338.411 401.396 340.27 399.651 341.509C397.607 343.001 395.127 344.218 393.566 344.768C393.382 344.837 393.175 344.906 392.969 344.952ZM375.494 314.979L375.563 315.048C377.17 316.586 378.755 317.366 380.339 317.389H380.431L380.477 317.458C382.245 320.625 386.47 328.818 387.687 336.116C388.56 341.257 389.478 343.782 390.787 344.539C391.453 344.929 392.257 344.906 393.474 344.47C396.367 343.437 403.348 339.582 402.705 336.713C402.36 335.152 400.845 330.792 398.571 326.041C396.574 321.864 393.382 316.104 389.524 312.454L389.478 312.409L389.501 312.34C389.616 311.674 389.18 311.123 389.18 311.123L389.019 310.894L389.295 310.871L429.525 308.186C429.594 308.186 436.414 308.622 440.937 305.546C442.958 304.192 443.486 300.36 442.568 294.186C441.879 289.665 440.432 283.996 438.228 277.341C434.829 267.059 424.565 253.312 421.121 249.961C417.676 246.633 412.831 242.846 409.249 243.696C409.203 243.696 409.18 243.719 409.134 243.719C405.575 244.682 400.661 250.764 400.615 250.833C400.408 251.086 381.074 275 374.759 282.344L374.599 282.527L374.507 282.275C374.346 281.839 374.093 281.541 373.726 281.38C372.899 281.036 371.843 281.495 371.82 281.495L366.837 283.881C363.209 285.465 363.278 288.655 363.278 288.793C363.278 289.344 363.324 289.917 363.347 290.491V290.583L363.255 290.629C361.097 291.73 350.534 297.812 355.815 309.678C357.446 313.327 359.742 315.69 362.635 316.746C366.079 318.008 370.373 317.389 375.379 314.956L375.494 314.979Z" fill="#1D1D1B"/>
<path d="M375.379 315.254C369.225 309.425 366.217 303.022 364.748 298.684C363.186 293.98 363.071 290.583 363.071 290.56H363.37C363.37 290.583 363.485 293.934 365.046 298.615C366.493 302.93 369.478 309.264 375.586 315.048L375.379 315.254Z" fill="#1D1D1B"/>
<path d="M389.203 311.123C385.988 308.323 383.21 305.087 380.959 301.461C379.145 298.57 377.676 295.425 376.573 292.121C374.668 286.498 374.507 282.321 374.507 282.275H374.805C374.805 282.321 374.989 286.452 376.872 292.029C378.617 297.17 382.199 304.628 389.41 310.894L389.203 311.123Z" fill="#1D1D1B"/>
<path d="M381.487 317.412C380.845 317.572 380.431 317.664 380.362 317.687L380.316 317.389C380.385 317.366 387.113 316.035 389.501 312.271L389.754 312.432C387.871 315.392 383.554 316.861 381.487 317.412Z" fill="#1D1D1B"/>
<path d="M437.493 307.405C437.057 307.52 435.656 307.635 432.947 305.569C429.984 303.32 424.749 297.881 416.712 284.845C412.74 278.396 409.709 272.292 407.688 266.738C406.08 262.285 405.116 258.131 404.84 254.436C404.358 248.102 406.012 245.279 406.08 245.164L406.333 245.325C406.31 245.348 404.657 248.217 405.139 254.459C405.575 260.243 407.986 270.18 416.942 284.708C424.887 297.606 430.053 302.999 432.993 305.271C436.161 307.727 437.47 307.13 437.493 307.107L437.631 307.36C437.631 307.36 437.585 307.383 437.493 307.405Z" fill="#1D1D1B"/>
<path d="M371.069 289.784L370.819 289.62L368.214 293.593L368.463 293.757L371.069 289.784Z" fill="#1D1D1B"/>
<path d="M369.152 288.171L368.902 288.008L366.296 291.981L366.546 292.145L369.152 288.171Z" fill="#1D1D1B"/>
<path d="M397.126 264.45L396.876 264.286L394.27 268.259L394.52 268.423L397.126 264.45Z" fill="#1D1D1B"/>
<path d="M395.21 262.837L394.96 262.674L392.355 266.647L392.604 266.811L395.21 262.837Z" fill="#1D1D1B"/>
<path d="M379.926 322.369L389.868 322.851L390.351 325.238L390.971 327.303L390.075 328.841L383.485 329.484L379.512 327.12L379.926 322.369Z" fill="#FE9F73"/>
<path d="M378.295 330.7C378.111 330.631 377.974 330.402 377.974 330.103C377.974 329.782 378.18 329.53 378.41 329.552L389.065 328.359C390.075 328.405 390.925 327.418 390.993 326.11C391.039 325.398 390.879 324.733 390.534 324.205C390.19 323.677 389.708 323.379 389.202 323.333L379.397 322.851C379.168 322.828 378.984 322.576 378.984 322.254C378.984 321.933 379.191 321.681 379.42 321.703L389.225 322.185C389.96 322.231 390.672 322.69 391.177 323.448C391.682 324.228 391.935 325.215 391.866 326.248C391.751 328.175 390.511 329.621 389.065 329.552L378.387 330.723C378.364 330.723 378.341 330.7 378.295 330.7Z" fill="#F07162"/>
<path d="M402.498 320.166C403.256 321.864 402.544 323.218 402.268 323.356L393.68 327.556C392.647 328.061 391.246 327.418 390.512 326.018C389.731 324.48 390.029 322.713 391.155 322.185L399.697 318.008C399.697 317.963 401.74 318.467 402.498 320.166Z" fill="#FE9F73"/>
<path d="M404.748 324.985C405.529 326.661 405.322 328.382 405.047 328.52L395.908 333.293C394.874 333.821 393.474 333.224 392.739 331.824C391.935 330.287 392.211 328.52 393.313 327.946L402.682 323.057C402.704 323.057 403.967 323.31 404.748 324.985Z" fill="#FE9F73"/>
<path d="M403.21 323.425C403.348 323.287 403.394 323.035 403.279 322.782C403.141 322.507 402.888 322.346 402.682 322.461L393.451 327.028C392.578 327.464 391.453 326.913 390.879 325.789C390.58 325.192 390.466 324.526 390.557 323.93C390.649 323.333 390.948 322.874 391.407 322.667L399.857 318.536C400.064 318.444 400.11 318.123 399.995 317.848C399.857 317.572 399.605 317.412 399.398 317.526L390.948 321.658C390.305 321.979 389.869 322.644 389.708 323.494C389.57 324.366 389.731 325.33 390.19 326.225C391.04 327.877 392.67 328.68 393.933 328.061L403.164 323.494C403.164 323.471 403.187 323.448 403.21 323.425Z" fill="#F07162"/>
<path d="M399.237 314.566C400.041 316.241 399.788 317.963 399.536 318.1L390.373 322.782C389.363 323.287 387.985 322.736 387.228 321.359C386.378 319.799 386.654 317.985 387.779 317.412L396.344 313.051C397.285 312.569 398.755 313.602 399.237 314.566Z" fill="#FE9F73"/>
<path d="M399.811 318.513C399.949 318.376 399.972 318.123 399.857 317.871C399.72 317.595 399.467 317.458 399.26 317.549L390.098 322.277C389.226 322.713 388.1 322.185 387.503 321.061C387.182 320.464 387.067 319.799 387.159 319.202C387.251 318.605 387.549 318.146 387.986 317.917L396.39 313.648C396.597 313.533 396.643 313.235 396.528 312.959C396.39 312.684 396.137 312.546 395.931 312.638L387.526 316.907C386.883 317.228 386.447 317.917 386.309 318.766C386.172 319.638 386.355 320.602 386.815 321.497C387.664 323.126 389.317 323.93 390.557 323.287L399.72 318.559C399.765 318.559 399.788 318.536 399.811 318.513Z" fill="#F07162"/>
<path d="M404.932 328.864C405.069 328.726 405.115 328.451 404.978 328.198C404.84 327.923 404.564 327.785 404.381 327.9L395.563 332.72C394.69 333.179 393.68 332.72 393.083 331.595C392.762 330.998 392.647 330.333 392.739 329.736C392.83 329.139 393.106 328.68 393.565 328.451L402.934 323.562C403.141 323.471 403.187 323.149 403.049 322.874C402.911 322.599 402.658 322.461 402.452 322.553L393.083 327.441C392.463 327.762 392.027 328.451 391.889 329.323C391.751 330.195 391.935 331.159 392.394 332.031C393.267 333.661 394.782 334.372 396.045 333.706L404.886 328.887C404.909 328.887 404.932 328.864 404.932 328.864Z" fill="#F07162"/>
<path d="M406.378 330.746C407.113 332.306 406.952 333.913 406.7 334.051L398.25 338.641C397.308 339.146 395.999 338.595 395.287 337.31C394.53 335.887 394.759 334.234 395.793 333.683L404.45 328.979C404.45 328.979 405.621 329.185 406.378 330.746Z" fill="#FE9F73"/>
<path d="M406.746 334.211C406.884 334.074 406.93 333.798 406.792 333.546C406.654 333.27 406.378 333.133 406.195 333.247L397.745 337.837C396.964 338.251 395.93 337.792 395.379 336.782C395.081 336.231 394.966 335.634 395.035 335.083C395.104 334.533 395.379 334.097 395.77 333.89L404.427 329.185C404.633 329.07 404.679 328.772 404.541 328.497C404.404 328.221 404.128 328.084 403.944 328.198L395.287 332.903C394.69 333.224 394.3 333.867 394.185 334.693C394.07 335.519 394.254 336.437 394.69 337.264C395.517 338.801 397.079 339.513 398.227 338.87L406.677 334.28C406.723 334.234 406.723 334.211 406.746 334.211Z" fill="#F07162"/>
<path d="M308.397 467.001H201.529V473.427H308.397V467.001Z" fill="#230C1E"/>
<path d="M317.513 473.427H196.937V494.45H317.513V473.427Z" fill="#5B2750"/>
<path d="M576.164 459.221C573.546 459.221 571.617 458.464 570.308 456.926C567.185 453.254 569.481 446.782 571.961 441.986C574.671 436.73 577.381 432.576 579.998 429.638C585.394 423.557 589.643 423.763 592.26 424.979C600.527 428.858 604.522 433.655 604.178 439.255C603.65 447.608 593.064 454.746 583.466 457.844C580.572 458.762 578.161 459.221 576.164 459.221ZM589.183 428.789C585.831 428.789 580.917 434.412 575.911 444.051C573.109 449.444 572.788 452.956 573.707 454.034C574.051 454.448 575.681 455.641 582.042 453.575C590.423 450.867 599.31 444.671 599.677 438.956C599.953 434.504 594.74 431.084 590.331 429.019C589.964 428.858 589.597 428.789 589.183 428.789Z" fill="#ED2B47"/>
<path d="M564.544 459.198C562.524 459.198 560.113 458.762 557.265 457.867C547.644 454.815 537.012 447.746 536.438 439.392C536.048 433.792 540.02 428.973 548.264 425.048C550.882 423.809 555.107 423.602 560.549 429.638C563.19 432.576 565.922 436.707 568.655 441.94C571.158 446.713 573.477 453.162 570.377 456.857C569.091 458.418 567.162 459.175 564.544 459.198ZM550.193 429.088C545.784 431.199 540.595 434.619 540.893 439.094C541.283 444.786 550.216 450.959 558.597 453.598C564.958 455.618 566.588 454.425 566.933 454.012C567.851 452.933 567.484 449.421 564.659 444.028C559.033 433.242 553.477 427.504 550.193 429.088Z" fill="#ED2B47"/>
<path d="M618.272 456.837L523.804 457.11L524.047 541.039L618.515 540.766L618.272 456.837Z" fill="#FEC786"/>
<path d="M621.067 456.829L520.974 457.118L521.046 482.134L621.14 481.844L621.067 456.829Z" fill="#F7597F"/>
<path d="M520.48 482.699L520.411 457.11C520.411 456.788 520.663 456.536 520.985 456.536C521.306 456.536 521.559 456.788 521.559 457.11L521.628 481.529L621.147 481.23C621.469 481.23 621.721 481.483 621.721 481.804C621.721 482.126 621.469 482.378 621.147 482.378L520.48 482.699Z" fill="black"/>
<path d="M524.039 541.613C523.717 541.613 523.464 541.36 523.464 541.039L523.304 482.126C523.304 481.804 523.556 481.552 523.878 481.552C524.199 481.552 524.452 481.804 524.452 482.126L524.613 541.039C524.613 541.337 524.36 541.613 524.039 541.613Z" fill="black"/>
<path d="M618.438 523.665C618.116 523.665 617.864 523.413 617.864 523.092L617.749 481.85C617.749 481.529 618.002 481.276 618.323 481.276C618.645 481.276 618.897 481.529 618.897 481.85L619.012 523.092C619.035 523.39 618.782 523.665 618.438 523.665C618.461 523.665 618.461 523.665 618.438 523.665Z" fill="black"/>
<path d="M613.179 468.355C613.042 468.355 612.881 468.309 612.766 468.195L606.727 462.182C606.497 461.952 606.497 461.585 606.727 461.356C606.957 461.126 607.324 461.126 607.554 461.356L613.593 467.369C613.822 467.598 613.822 467.965 613.593 468.195C613.478 468.309 613.34 468.355 613.179 468.355Z" fill="black"/>
<path d="M611.48 473.749C611.342 473.749 611.182 473.703 611.067 473.588L605.028 467.575C604.798 467.346 604.798 466.978 605.028 466.749C605.257 466.519 605.625 466.519 605.854 466.749L611.893 472.762C612.123 472.991 612.123 473.359 611.893 473.588C611.779 473.703 611.641 473.749 611.48 473.749Z" fill="black"/>
<path d="M620.536 500.949L620.524 496.634L520.752 496.923L520.764 501.238L620.536 500.949Z" fill="#ED2B47"/>
<path d="M572.691 456.967L568.375 456.98L568.618 540.909L572.935 540.896L572.691 456.967Z" fill="#ED2B47"/>
<g opacity="0.5">
<path d="M618.308 481.508L587.401 481.598L587.573 540.855L618.48 540.766L618.308 481.508Z" fill="#F7597F"/>
</g>
<g opacity="0.5">
<path d="M621.091 456.831L586.348 456.932L586.421 481.948L621.163 481.847L621.091 456.831Z" fill="#F7597F"/>
</g>
<path d="M489.342 473.336C486.633 473.336 484.635 472.555 483.303 470.972C480.088 467.185 482.453 460.506 485.002 455.572C487.804 450.156 490.582 445.887 493.292 442.835C498.849 436.569 503.235 436.776 505.921 438.038C514.44 442.031 518.574 446.989 518.206 452.749C517.655 461.356 506.748 468.723 496.851 471.913C493.889 472.854 491.409 473.336 489.342 473.336ZM502.752 441.963C499.308 441.963 494.21 447.769 489.09 457.706C486.219 463.283 485.875 466.887 486.816 468.011C487.184 468.424 488.86 469.664 495.404 467.552C504.038 464.775 513.2 458.372 513.568 452.497C513.866 447.907 508.493 444.372 503.923 442.238C503.579 442.031 503.189 441.963 502.752 441.963Z" fill="#FEC369"/>
<path d="M477.356 475.332C475.289 475.332 472.786 474.873 469.87 473.955C459.95 470.811 448.997 463.513 448.4 454.929C448.01 449.169 452.097 444.189 460.593 440.15C463.28 438.864 467.666 438.658 473.246 444.877C475.955 447.907 478.78 452.175 481.604 457.569C484.176 462.48 486.587 469.136 483.395 472.945C482.063 474.506 480.065 475.309 477.356 475.332ZM462.568 444.281C458.021 446.438 452.672 449.995 452.994 454.585C453.407 460.461 462.591 466.795 471.248 469.549C477.815 471.614 479.491 470.398 479.836 469.962C480.777 468.837 480.41 465.234 477.494 459.68C471.684 448.572 465.966 442.674 462.568 444.281Z" fill="#FEC369"/>
<path d="M541.839 464.012L425.694 464.348L425.918 541.599L542.063 541.262L541.839 464.012Z" fill="#8FE98C"/>
<path d="M545.282 464.002L422.226 464.358L422.268 478.977L545.325 478.621L545.282 464.002Z" fill="#009A3A"/>
<path d="M425.919 540.075C425.552 540.075 425.254 539.777 425.254 539.409L425.07 479.004C425.07 478.637 425.368 478.316 425.736 478.316C426.103 478.316 426.402 478.614 426.402 478.981L426.585 539.386C426.585 539.754 426.287 540.075 425.919 540.075Z" fill="black"/>
<path d="M421.603 479.67L421.557 464.362C421.557 463.995 421.855 463.674 422.223 463.674C422.59 463.674 422.888 463.972 422.888 464.339L422.934 478.293L545.325 477.949C545.692 477.949 545.991 478.247 545.991 478.614C545.991 478.981 545.692 479.303 545.325 479.303L421.603 479.67Z" fill="black"/>
<path d="M542.018 527.36C541.651 527.36 541.352 527.062 541.352 526.695L541.214 478.66C541.214 478.293 541.513 477.972 541.88 477.972C542.248 477.972 542.546 478.27 542.546 478.637L542.684 526.672C542.707 527.062 542.385 527.36 542.018 527.36Z" fill="black"/>
<path d="M523.97 524.951C523.832 524.951 523.717 524.905 523.602 524.836L513.912 518.41C513.591 518.203 513.522 517.79 513.728 517.469C513.935 517.148 514.348 517.079 514.67 517.285L524.36 523.711C524.681 523.918 524.75 524.331 524.544 524.652C524.406 524.859 524.176 524.951 523.97 524.951Z" fill="black"/>
<path d="M522.799 529.564C522.661 529.564 522.546 529.518 522.431 529.449L512.741 523.023C512.42 522.816 512.351 522.403 512.557 522.082C512.764 521.761 513.177 521.692 513.499 521.898L523.189 528.324C523.511 528.531 523.579 528.944 523.373 529.265C523.235 529.449 523.028 529.564 522.799 529.564Z" fill="black"/>
<path d="M543.209 504.635L543.197 500.665L423.654 501.012L423.666 504.982L543.209 504.635Z" fill="#FEC369"/>
<path d="M485.305 464.174L481.333 464.186L481.557 541.436L485.529 541.425L485.305 464.174Z" fill="#FEC369"/>
<g opacity="0.5">
<path d="M541.884 478.653L504.478 478.762L504.659 541.393L542.065 541.284L541.884 478.653Z" fill="#4CB7D8"/>
</g>
<g opacity="0.5">
<path d="M545.306 464.004L503.238 464.126L503.281 478.745L545.348 478.623L545.306 464.004Z" fill="#3AA1C9"/>
</g>
<path d="M564.889 209.178C564.889 216.614 562.317 223.453 558 228.824C553.04 235.02 545.784 239.312 537.494 240.391C536.14 240.574 534.762 240.666 533.361 240.666C533.269 240.666 533.2 240.666 533.109 240.666C531.846 240.666 530.583 240.574 529.343 240.414C529.021 240.368 528.677 240.322 528.355 240.276C520.272 238.991 513.2 234.63 508.401 228.411C504.29 223.086 501.833 216.408 501.833 209.155C501.833 191.759 515.955 177.645 533.361 177.645C550.767 177.668 564.889 191.782 564.889 209.178Z" fill="#E9516A"/>
<path d="M527.414 206.08C527.414 206.08 528.769 218.198 530.56 218.313C532.374 218.427 529.32 232.611 524.521 225.657C522.844 223.224 522.913 207.296 526.932 203.9C530.95 200.503 527.414 206.08 527.414 206.08Z" fill="#2F0E1B"/>
<path d="M526.748 203.051C526.748 203.051 525.072 214.48 526.587 216.522C526.587 216.522 527.322 217.601 529.113 217.67L528.976 224.394L537.058 223.476L537.334 204.359C537.334 204.359 535.038 199.631 535.038 199.838C535.015 199.998 526.748 203.051 526.748 203.051Z" fill="#FE9F73"/>
<path d="M529.228 212.598C529.251 212.598 529.274 212.575 529.274 212.552C529.274 212.506 529.274 212.483 529.228 212.46C528.907 212.345 528.7 211.772 528.631 211.588C529.113 211.244 529.412 210.785 529.504 210.211C529.664 209.293 529.274 208.467 529.251 208.444C529.228 208.421 529.205 208.398 529.182 208.421C529.159 208.444 529.159 208.49 529.159 208.513C529.159 208.513 529.549 209.316 529.389 210.165C529.297 210.693 528.998 211.129 528.516 211.473L528.47 211.496L528.493 211.565C528.539 211.588 528.769 212.437 529.228 212.598Z" fill="#FB554B"/>
<path d="M529.09 219.942L529.113 217.647C529.113 217.647 532.994 217.463 535.382 216.017C535.382 216.017 532.121 219.07 529.09 219.942Z" fill="#FB554B"/>
<path d="M534.578 208.811C534.624 208.811 534.647 208.788 534.67 208.765C534.739 208.719 534.739 208.628 534.67 208.559C534.647 208.536 532.81 206.608 531.065 207.962C530.996 208.008 530.996 208.1 531.042 208.169C531.088 208.237 531.18 208.237 531.249 208.191C532.764 206.998 534.395 208.696 534.464 208.765C534.487 208.788 534.533 208.811 534.578 208.811Z" fill="#2F0E1B"/>
<path d="M528.562 208.421C528.608 208.421 528.654 208.398 528.677 208.375C528.723 208.306 528.723 208.214 528.654 208.169C528.608 208.123 527.322 206.998 526.472 207.687C526.404 207.732 526.404 207.824 526.449 207.893C526.495 207.962 526.587 207.962 526.656 207.916C527.299 207.388 528.447 208.375 528.447 208.398C528.493 208.398 528.516 208.398 528.562 208.421Z" fill="#2F0E1B"/>
<path d="M532.03 209.982C532.258 209.982 532.443 209.797 532.443 209.569C532.443 209.34 532.258 209.155 532.03 209.155C531.801 209.155 531.616 209.34 531.616 209.569C531.616 209.797 531.801 209.982 532.03 209.982Z" fill="#010103"/>
<path d="M527.276 209.936C527.504 209.936 527.689 209.751 527.689 209.523C527.689 209.294 527.504 209.109 527.276 209.109C527.048 209.109 526.863 209.294 526.863 209.523C526.863 209.751 527.048 209.936 527.276 209.936Z" fill="#010103"/>
<path d="M531.227 213.263C531.181 213.263 528.355 213.585 528.355 213.585C528.355 213.585 528.861 214.709 529.917 214.595C530.973 214.48 531.227 213.263 531.227 213.263Z" fill="#FBFDFA"/>
<path d="M530.262 203.28L532.236 200.549C532.236 200.549 529.09 202.523 529.343 202.592C529.596 202.683 530.262 203.28 530.262 203.28Z" fill="#FC8759"/>
<path d="M536.163 201.972C536.163 201.972 535.589 206.241 525.37 207.09C525.37 207.09 523.005 200.779 530.422 198.667C537.839 196.556 538.528 202.247 538.367 202.201C538.206 202.156 536.163 201.972 536.163 201.972Z" fill="#2F0E1B"/>
<path d="M534.601 204.382C534.601 204.382 536.232 207.182 537.104 209.224C537.104 209.224 533.935 227.079 540.824 226.093L542.064 226.07C548.149 225.978 543.947 212.827 543.832 205.828C543.763 201.444 538.459 197.015 534.992 199.677C531.547 202.316 534.601 204.382 534.601 204.382Z" fill="#2F0E1B"/>
<path d="M537.908 213.7C539.164 213.7 540.181 212.682 540.181 211.427C540.181 210.173 539.164 209.155 537.908 209.155C536.653 209.155 535.635 210.173 535.635 211.427C535.635 212.682 536.653 213.7 537.908 213.7Z" fill="#FE9F73"/>
<path d="M538.069 212.827C538.551 212.827 538.873 212.483 538.987 212.116C539.125 211.703 538.987 211.267 538.643 211.06C538.161 210.739 537.701 210.923 537.449 211.06C537.541 210.808 537.701 210.647 537.908 210.532C538.367 210.303 538.918 210.486 538.918 210.486C538.964 210.509 538.987 210.486 539.01 210.441C539.033 210.395 539.01 210.372 538.964 210.349C538.941 210.349 538.344 210.142 537.839 210.418C537.541 210.578 537.334 210.854 537.242 211.244L537.173 211.496L537.357 211.313C537.38 211.29 537.931 210.785 538.551 211.175C538.896 211.404 538.919 211.795 538.85 212.07C538.758 212.345 538.505 212.69 538.069 212.667C538.023 212.667 538 212.69 538 212.736C537.977 212.804 538 212.827 538.069 212.827C538.046 212.827 538.046 212.827 538.069 212.827Z" fill="#FB554B"/>
<path d="M526.312 201.123C526.312 201.123 522.776 204.864 523.579 215.604L526.013 205.001L526.312 201.123Z" fill="#2F0E1B"/>
<path d="M537.494 240.414C536.14 240.597 534.762 240.689 533.361 240.689C533.269 240.689 533.2 240.689 533.109 240.689C531.846 240.689 530.583 240.597 529.343 240.437L529.526 239.679L532.351 227.86L533.109 224.647L533.292 223.912L533.591 222.627H547.001C548.425 222.627 550.399 223.568 550.468 223.614C552.282 224.578 555.084 226.437 557.977 228.87C553.04 235.043 545.761 239.335 537.494 240.414Z" fill="#8FE98C"/>
<path d="M533.109 222.604V240.689C531.846 240.689 530.583 240.597 529.343 240.437C529.021 240.391 528.677 240.345 528.355 240.299C520.273 239.014 513.2 234.653 508.401 228.434C511.432 226.23 514.371 224.555 516.208 223.591C516.3 223.545 518.252 222.604 519.676 222.604H533.109Z" fill="#8FE98C"/>
<path d="M525.347 222.604H542.316C542.316 222.604 539.24 227.906 533.384 227.883C530.697 227.883 527.827 226.896 525.347 222.604Z" fill="#FE9F73"/>
<path d="M513.659 229.352C513.728 229.352 513.82 229.306 513.866 229.237C515.772 226.506 517.402 226.483 517.402 226.483C517.54 226.483 517.655 226.368 517.655 226.23C517.655 226.093 517.54 225.978 517.402 225.978C517.311 225.978 515.496 226.024 513.453 228.938C513.384 229.053 513.407 229.214 513.522 229.283C513.545 229.329 513.614 229.352 513.659 229.352Z" fill="#0D060E"/>
<path d="M514.188 231.922C514.28 231.922 514.371 231.876 514.417 231.784C515.887 228.847 517.494 228.548 517.517 228.548C517.655 228.525 517.747 228.388 517.724 228.25C517.701 228.112 517.586 228.02 517.448 228.043C517.38 228.043 515.566 228.342 513.981 231.555C513.912 231.67 513.981 231.83 514.096 231.899C514.119 231.899 514.165 231.922 514.188 231.922Z" fill="#0D060E"/>
<path d="M533.361 241.768C533.269 241.768 533.177 241.768 533.085 241.768C531.799 241.768 530.467 241.676 529.204 241.515C528.883 241.469 528.538 241.424 528.171 241.378C519.973 240.069 512.625 235.709 507.527 229.099C503.073 223.339 500.73 216.454 500.73 209.178C500.73 200.457 504.129 192.287 510.283 186.113C516.437 179.963 524.635 176.566 533.361 176.566C542.064 176.566 550.262 179.963 556.439 186.113C562.593 192.264 565.991 200.457 565.991 209.178C565.991 216.66 563.533 223.683 558.872 229.512C553.567 236.145 546.037 240.391 537.655 241.492C536.255 241.676 534.808 241.768 533.361 241.768ZM533.361 178.769C516.599 178.769 502.935 192.402 502.935 209.178C502.935 215.972 505.116 222.398 509.273 227.768C514.049 233.919 520.869 237.981 528.538 239.22C528.883 239.266 529.181 239.312 529.48 239.358C530.674 239.519 531.891 239.588 533.108 239.61C533.2 239.61 533.268 239.61 533.337 239.61C534.692 239.61 536.024 239.519 537.333 239.358C545.14 238.348 552.167 234.378 557.104 228.181C561.443 222.742 563.741 216.178 563.741 209.224C563.787 192.402 550.124 178.769 533.361 178.769Z" fill="white"/>
<path d="M563.786 380.548C563.786 385.413 562.823 390.049 561.078 394.295C561.032 394.387 560.985 394.502 560.962 394.593C560.962 394.616 560.94 394.639 560.94 394.662C559.287 398.564 556.967 402.121 554.12 405.196C554.028 405.288 553.959 405.38 553.867 405.472C553.776 405.564 553.683 405.655 553.591 405.747C547.001 412.563 537.748 416.786 527.529 416.786C521.927 416.786 516.644 415.524 511.914 413.252C511.018 412.839 510.169 412.38 509.319 411.875C509.181 411.783 509.044 411.714 508.883 411.622C508.492 411.393 508.125 411.163 507.735 410.911C507.597 410.819 507.482 410.75 507.344 410.659C504.727 408.914 502.362 406.826 500.296 404.485C499.538 403.636 498.825 402.741 498.159 401.823C496.713 399.826 495.45 397.669 494.439 395.397C492.396 390.875 491.271 385.849 491.271 380.548C491.271 360.535 507.506 344.309 527.529 344.309C547.553 344.309 563.786 360.535 563.786 380.548Z" fill="#FEC786"/>
<path d="M516.024 363.84C516.024 363.84 513.246 357.46 520.548 352.181C527.85 346.903 528.975 355.945 531.8 356.817C534.624 357.666 539.722 356.703 541.559 361.981C543.396 367.26 542.316 371.115 545.279 371.964C548.241 372.814 557.908 380.433 555.29 390.302C552.673 400.147 543.051 399.505 543.051 399.505C543.051 399.505 505.255 400.675 502.821 390.83C500.387 380.984 504.084 376.784 508.906 373.525C511.868 371.505 517.815 369.876 516.024 363.84Z" fill="#2D0F28"/>
<path d="M519.905 366.961C519.905 366.961 516.575 380.364 518.55 383.6C518.55 383.6 519.515 385.321 522.178 385.62L521.352 394.134L533.361 395.282L536.048 367.374L519.905 366.961Z" fill="#FE9F73"/>
<path d="M522.798 378.023C522.844 378.023 522.89 378 522.913 377.954C522.936 377.886 522.89 377.84 522.844 377.817C522.155 377.587 521.788 376.692 521.696 376.394C522.752 375.958 523.418 375.315 523.717 374.512C524.176 373.181 523.441 371.873 523.395 371.804C523.372 371.758 523.303 371.735 523.234 371.758C523.189 371.781 523.166 371.85 523.189 371.919C523.189 371.942 523.923 373.204 523.487 374.443C523.211 375.223 522.546 375.82 521.512 376.233L521.42 376.279L521.443 376.371C521.466 376.394 521.834 377.725 522.798 378.023C522.775 378.023 522.775 378.023 522.798 378.023Z" fill="#FB554B"/>
<path d="M521.857 389.039L522.178 385.62C522.178 385.62 527.988 385.849 531.754 383.944C531.777 383.944 526.518 388.098 521.857 389.039Z" fill="#F07162"/>
<path d="M530.054 372.905C530.1 372.905 530.169 372.905 530.215 372.86C530.307 372.791 530.33 372.653 530.261 372.561C530.238 372.538 527.712 369.394 524.957 371.207C524.865 371.276 524.819 371.414 524.888 371.505C524.957 371.597 525.094 371.643 525.186 371.574C527.62 369.991 529.825 372.722 529.916 372.837C529.939 372.86 529.985 372.883 530.054 372.905Z" fill="#2F0E1B"/>
<path d="M522.5 371.689C522.569 371.689 522.615 371.666 522.684 371.62C522.775 371.528 522.775 371.391 522.684 371.299C522.615 371.23 520.824 369.371 519.492 370.312C519.4 370.381 519.377 370.519 519.446 370.61C519.515 370.702 519.652 370.725 519.744 370.656C520.778 369.945 522.362 371.574 522.362 371.597C522.385 371.666 522.454 371.689 522.5 371.689Z" fill="#2F0E1B"/>
<path d="M520.432 373.823C520.774 373.823 521.052 373.546 521.052 373.204C521.052 372.862 520.774 372.584 520.432 372.584C520.09 372.584 519.812 372.862 519.812 373.204C519.812 373.546 520.09 373.823 520.432 373.823Z" fill="#010103"/>
<path d="M526.495 374.305C526.838 374.305 527.115 374.028 527.115 373.686C527.115 373.343 526.838 373.066 526.495 373.066C526.153 373.066 525.875 373.343 525.875 373.686C525.875 374.028 526.153 374.305 526.495 374.305Z" fill="#010103"/>
<path d="M536.14 380.777C538.029 380.777 539.561 379.246 539.561 377.358C539.561 375.469 538.029 373.938 536.14 373.938C534.25 373.938 532.718 375.469 532.718 377.358C532.718 379.246 534.25 380.777 536.14 380.777Z" fill="#FE9F73"/>
<path d="M536.185 379.469C536.897 379.538 537.425 379.056 537.632 378.528C537.885 377.909 537.724 377.266 537.242 376.899C536.553 376.371 535.864 376.577 535.473 376.761C535.657 376.417 535.91 376.164 536.208 376.027C536.92 375.728 537.724 376.073 537.724 376.073C537.77 376.096 537.839 376.073 537.862 376.027C537.885 375.981 537.862 375.912 537.816 375.889C537.77 375.866 536.92 375.499 536.116 375.843C535.657 376.05 535.313 376.44 535.106 377.014L534.968 377.381L535.267 377.128C535.313 377.105 536.185 376.394 537.081 377.082C537.563 377.45 537.563 378.046 537.402 378.459C537.242 378.873 536.805 379.332 536.162 379.263C536.093 379.263 536.047 379.309 536.047 379.354C536.07 379.423 536.116 379.469 536.185 379.469Z" fill="#FB554B"/>
<path d="M519.905 366.961C519.905 366.961 521.444 361.798 528.539 361.912C535.635 362.004 536.071 367.374 536.071 367.374L527.873 368.224L520.41 366.984L519.905 366.961Z" fill="#FE9F73"/>
<path d="M520.341 362.509C520.341 362.509 524.314 367.214 530.077 366.801C530.077 366.801 531.294 373.915 535.451 373.984C539.584 374.053 538.275 364.23 538.275 364.23C538.275 364.23 530.904 360.352 530.399 360.306C529.917 360.26 521.811 358.998 521.811 358.998L520.341 362.509Z" fill="#2D0F28"/>
<path d="M521.558 379.423C521.627 379.4 525.737 378.987 525.737 378.987C525.737 378.987 525.347 380.732 523.831 380.892C522.316 381.053 521.558 379.423 521.558 379.423Z" fill="#FBFDFA"/>
<path d="M555.474 392.528C557.357 392.918 559.217 393.63 560.962 394.616C560.962 394.639 560.939 394.662 560.939 394.685C559.286 398.587 556.967 402.144 554.119 405.219C554.027 405.311 553.958 405.403 553.867 405.495C553.775 405.587 553.683 405.678 553.591 405.77C547.001 412.586 537.747 416.809 527.529 416.809C521.926 416.809 516.644 415.547 511.914 413.275C511.018 412.862 510.169 412.403 509.319 411.898C509.181 411.806 509.044 411.737 508.883 411.645C508.493 411.416 508.125 411.186 507.735 410.934C507.597 410.842 507.482 410.773 507.344 410.682C504.727 408.937 502.362 406.849 500.295 404.508C499.537 403.659 498.825 402.764 498.159 401.846C496.713 399.849 495.45 397.692 494.439 395.42C496.231 394.226 499.744 393.331 503.762 392.689C506.885 392.184 510.284 391.816 513.429 391.541C516.69 391.266 519.675 391.105 521.673 391.013C523.349 390.944 524.36 390.921 524.36 390.921C524.36 390.921 528.47 390.944 533.774 391.082C536.185 391.151 538.826 391.22 541.467 391.334H541.49C543.51 391.426 545.531 391.541 547.414 391.656C550.216 391.839 552.718 392.092 554.555 392.39C554.693 392.413 554.854 392.436 554.992 392.459C555.015 392.459 555.015 392.459 555.038 392.459C555.152 392.482 555.267 392.505 555.359 392.528C555.405 392.505 555.451 392.505 555.474 392.528Z" fill="#FF0000"/>
<path d="M561.1 394.295C561.054 394.387 561.008 394.502 560.985 394.593C560.985 394.616 560.962 394.639 560.962 394.662C560.273 394.318 559.585 394.02 558.896 393.79C557.679 393.4 556.186 393.033 554.441 392.711C552.489 392.367 550.215 392.069 547.621 391.839C547.506 391.839 547.438 391.725 547.438 391.633V391.61C547.461 391.518 547.552 391.449 547.644 391.449C550.284 391.679 552.604 391.977 554.578 392.344C554.716 392.367 554.854 392.39 554.992 392.413C555.015 392.413 555.016 392.413 555.039 392.413C555.199 392.436 555.336 392.459 555.474 392.505C556.829 392.78 558 393.079 558.987 393.4C559.699 393.652 560.411 393.951 561.1 394.295Z" fill="#010103"/>
<path d="M513.407 391.518C513.407 391.518 527.207 405.265 541.49 391.289C541.513 391.289 525.164 389.453 513.407 391.518Z" fill="#FE9F73"/>
<path d="M527.529 416.832C527.437 416.832 527.322 416.832 527.23 416.832C525.738 416.832 524.222 416.717 522.775 416.534C522.408 416.488 522.018 416.442 521.604 416.373C512.167 414.881 503.716 409.855 497.838 402.259C492.717 395.649 490.008 387.708 490.008 379.331C490.008 369.302 493.911 359.893 501.007 352.801C508.102 345.709 517.517 341.808 527.552 341.808C537.586 341.808 547.001 345.709 554.096 352.801C561.192 359.893 565.095 369.302 565.095 379.331C565.095 387.938 562.248 396.039 556.898 402.741C550.79 410.36 542.133 415.272 532.489 416.534C530.835 416.717 529.182 416.832 527.529 416.832ZM527.529 344.355C508.24 344.355 492.534 360.053 492.534 379.331C492.534 387.158 495.06 394.548 499.836 400.698C505.324 407.79 513.177 412.472 521.995 413.872C522.385 413.94 522.752 413.986 523.097 414.032C524.475 414.216 525.875 414.308 527.276 414.308C527.368 414.308 527.46 414.308 527.552 414.308C529.09 414.308 530.652 414.216 532.144 414.009C541.122 412.839 549.205 408.272 554.9 401.157C559.906 394.915 562.547 387.364 562.547 379.331C562.524 360.03 546.817 344.355 527.529 344.355Z" fill="white"/>
<path d="M591.296 302.058C591.296 310.114 594.396 317.458 599.494 322.92C599.562 322.989 599.631 323.08 599.7 323.149C599.769 323.241 599.861 323.31 599.93 323.402C605.51 329.162 613.34 332.765 622.02 332.765C626.75 332.765 631.251 331.687 635.246 329.782C639.012 327.992 642.342 325.444 645.074 322.346C645.717 321.635 646.314 320.877 646.888 320.097C650.562 315.025 652.744 308.805 652.744 302.058C652.744 285.098 638.989 271.351 622.02 271.351C605.028 271.374 591.296 285.121 591.296 302.058Z" fill="#8FE98C"/>
<path d="M628.243 316.379C628.243 316.379 628.472 316.815 628.886 317.595C629.023 317.871 629.207 318.192 629.391 318.559C630.034 319.799 630.929 321.497 631.94 323.448C632.031 323.608 632.123 323.792 632.215 323.953C633.157 325.743 634.19 327.739 635.246 329.759C639.012 327.969 642.342 325.421 645.074 322.323C645.717 321.612 646.314 320.854 646.888 320.074C646.498 319.707 646.085 319.385 645.648 319.133C641.102 316.563 632.56 316.333 629.437 316.356C628.679 316.356 628.243 316.379 628.243 316.379Z" fill="#5B2750"/>
<path d="M645.051 322.346C643.605 320.258 641.814 318.812 639.609 318.513C637.198 318.169 633.34 317.871 629.414 317.641C629.23 317.618 629.046 317.618 628.863 317.595C623.283 317.251 617.657 317.022 615.866 316.953C615.498 316.93 615.292 316.93 615.292 316.93C615.292 316.93 615.246 316.953 615.154 316.953C614.672 317.068 613.064 317.481 613.707 317.182C607.393 318.307 602.892 320.579 599.7 323.149C599.769 323.241 599.861 323.31 599.93 323.402C605.51 329.162 613.34 332.765 622.02 332.765C626.75 332.765 631.251 331.687 635.246 329.782C638.989 327.992 642.342 325.444 645.051 322.346Z" fill="#5B2750"/>
<path d="M621.561 329.162C621.308 329.185 621.056 329.208 620.803 329.231C620.665 329.231 620.527 329.139 620.504 328.979C620.504 328.841 620.596 328.703 620.757 328.68C631.917 327.9 633.983 319.73 633.983 319.661C634.006 319.523 634.144 319.408 634.282 319.454C634.42 319.477 634.535 319.615 634.512 319.753C634.512 319.845 632.445 328.038 621.561 329.162Z" fill="#0D060E"/>
<path d="M615.2 316.631C607.875 317.664 602.869 320.212 599.471 322.92C599.54 322.989 599.608 323.08 599.677 323.149C599.746 323.241 599.838 323.31 599.907 323.402C603.191 320.785 608.036 318.33 615.108 317.297C615.269 317.274 615.43 317.251 615.59 317.228C615.728 317.205 615.843 317.09 615.866 316.953C615.866 316.93 615.866 316.907 615.866 316.861C615.843 316.677 615.682 316.563 615.499 316.586C615.407 316.609 615.315 316.631 615.2 316.631Z" fill="#0D060E"/>
<path d="M612.628 292.671L612.261 306.763C612.261 306.763 611.962 311.284 615.912 311.95L615.016 317.963C614.672 320.212 615.98 322.392 618.116 323.126C619.172 323.494 620.412 323.769 621.836 323.792C626.36 323.907 628.908 320.579 629.322 318.881C629.735 317.182 628.817 309.058 628.817 309.058L629.069 305.065L628.954 289.619L612.628 292.671Z" fill="#FE9F73"/>
<path d="M625.188 308.323C625.188 308.323 624.729 315.897 615.246 316.379L615.911 311.95C615.911 311.95 622.02 313.327 625.188 308.323Z" fill="#F07162"/>
<path d="M623.375 300.337C623.421 300.337 623.467 300.314 623.513 300.291C623.581 300.222 623.604 300.107 623.536 300.015C623.513 299.993 620.987 297.261 618.553 299.12C618.461 299.189 618.461 299.304 618.507 299.396C618.576 299.488 618.69 299.488 618.782 299.442C620.918 297.812 623.145 300.199 623.237 300.291C623.283 300.314 623.329 300.337 623.375 300.337Z" fill="#2D0F28"/>
<path d="M629.942 298.524L625.854 299.258L625.097 299.993C625.097 299.993 625.625 293.176 626.429 291.845C627.209 290.56 629.942 298.524 629.942 298.524Z" fill="#2F0E1B"/>
<path d="M615.636 299.006C615.682 299.006 615.751 298.983 615.774 298.937C615.843 298.868 615.843 298.73 615.751 298.661C615.682 298.593 613.914 297.009 612.743 297.95C612.651 298.019 612.651 298.134 612.72 298.225C612.789 298.317 612.904 298.317 612.996 298.248C613.914 297.514 615.476 298.937 615.498 298.937C615.544 298.983 615.59 299.006 615.636 299.006Z" fill="#2D0F28"/>
<path d="M620.114 301.599C620.431 301.599 620.688 301.342 620.688 301.025C620.688 300.708 620.431 300.452 620.114 300.452C619.797 300.452 619.54 300.708 619.54 301.025C619.54 301.342 619.797 301.599 620.114 301.599Z" fill="#010103"/>
<path d="M614.098 300.865C614.415 300.865 614.672 300.608 614.672 300.291C614.672 299.974 614.415 299.717 614.098 299.717C613.78 299.717 613.523 299.974 613.523 300.291C613.523 300.608 613.78 300.865 614.098 300.865Z" fill="#010103"/>
<path d="M627.623 304.422C629.499 304.422 631.021 302.901 631.021 301.025C631.021 299.149 629.499 297.629 627.623 297.629C625.746 297.629 624.224 299.149 624.224 301.025C624.224 302.901 625.746 304.422 627.623 304.422Z" fill="#FE9F73"/>
<path d="M628.174 302.907C628.885 302.93 629.368 302.402 629.528 301.874C629.735 301.255 629.528 300.635 629.023 300.314C628.288 299.832 627.6 300.107 627.232 300.337C627.393 299.947 627.623 299.671 627.944 299.511C628.633 299.166 629.437 299.442 629.459 299.442C629.505 299.465 629.551 299.442 629.574 299.396C629.597 299.35 629.574 299.304 629.528 299.281C629.482 299.258 628.633 298.96 627.875 299.35C627.439 299.579 627.14 299.992 626.98 300.566L626.888 300.888L627.14 300.658C627.186 300.635 628.013 299.855 628.931 300.474C629.46 300.819 629.482 301.415 629.345 301.829C629.207 302.265 628.817 302.747 628.174 302.724H628.151C628.105 302.724 628.059 302.769 628.059 302.815C628.059 302.861 628.082 302.907 628.174 302.907C628.151 302.907 628.151 302.907 628.174 302.907Z" fill="#FB554B"/>
<path d="M617.45 304.766C617.496 304.766 617.519 304.743 617.542 304.697C617.565 304.651 617.542 304.606 617.496 304.583L615.613 303.917L616.325 299.488C616.325 299.442 616.302 299.396 616.256 299.373C616.21 299.373 616.164 299.396 616.142 299.442L615.407 304.032L617.427 304.766C617.427 304.766 617.427 304.766 617.45 304.766Z" fill="#FB554B"/>
<path d="M618.851 306.648C618.782 306.625 615.108 306.464 615.108 306.464C615.108 306.464 615.521 308.002 616.899 308.071C618.277 308.117 618.851 306.648 618.851 306.648Z" fill="#FBFDFA"/>
<path d="M629.942 298.524C629.942 298.524 631.251 291.937 629.299 289.435C627.347 286.911 615.82 282.298 614.396 283.491C612.95 284.685 614.327 286.222 614.327 286.222C614.327 286.222 609.689 284.616 608.541 288.724C607.37 292.832 617.358 294.852 623.398 293.062C623.375 293.062 627.301 294.324 629.942 298.524Z" fill="#2F0E1B"/>
<path d="M622.066 334.693C621.974 334.693 621.882 334.693 621.813 334.693C620.55 334.693 619.264 334.601 618.024 334.441C617.726 334.395 617.381 334.349 617.037 334.303C609.046 333.041 601.905 328.795 596.922 322.346C592.582 316.746 590.286 310.022 590.286 302.93C590.286 294.439 593.592 286.452 599.608 280.462C605.625 274.472 613.593 271.144 622.089 271.144C630.585 271.144 638.553 274.449 644.569 280.462C650.562 286.475 653.892 294.439 653.892 302.93C653.892 310.228 651.481 317.067 646.934 322.759C641.768 329.231 634.42 333.362 626.268 334.441C624.867 334.601 623.467 334.693 622.066 334.693ZM622.066 273.278C605.716 273.278 592.421 286.567 592.421 302.907C592.421 309.54 594.557 315.782 598.598 321.015C603.237 327.028 609.896 330.975 617.358 332.169C617.68 332.215 618.001 332.261 618.277 332.306C619.448 332.467 620.642 332.536 621.813 332.536C621.905 332.536 621.974 332.536 622.043 332.536C623.352 332.536 624.661 332.444 625.924 332.283C633.524 331.297 640.39 327.418 645.189 321.405C649.437 316.104 651.665 309.723 651.665 302.93C651.711 286.59 638.415 273.278 622.066 273.278Z" fill="white"/>
<path d="M443.807 265.613L442.797 263.8L451.637 258.889L452.648 260.702L443.807 265.613ZM461.465 255.767L460.455 253.954L469.296 249.02L470.306 250.833L461.465 255.767ZM479.147 245.922L478.136 244.109L486.977 239.174L487.987 240.987L479.147 245.922ZM496.805 236.076L495.794 234.263L504.635 229.329L505.645 231.142L496.805 236.076Z" fill="white"/>
<path d="M603.328 277.685L597.909 270.41L599.563 269.17L604.982 276.446L603.328 277.685ZM591.87 262.308L585.831 254.207L587.484 252.968L593.523 261.069L591.87 262.308ZM579.792 246.105L573.753 238.004L575.406 236.765L581.445 244.866L579.792 246.105ZM567.736 229.88L561.697 221.778L563.351 220.539L569.39 228.64L567.736 229.88Z" fill="white"/>
<path d="M561.468 362.693L560.113 361.109L567.805 354.545L569.16 356.129L561.468 362.693ZM576.853 349.588L575.498 348.004L583.19 341.441L584.545 343.024L576.853 349.588ZM592.237 336.46L590.883 334.877L598.575 328.313L599.93 329.897L592.237 336.46Z" fill="white"/>
<path d="M590.422 299.625L585.28 298.868L585.577 296.825L590.721 297.583L590.422 299.625ZM575.267 297.376L565.255 295.884L565.554 293.842L575.565 295.334L575.267 297.376ZM555.267 294.416L545.255 292.924L545.553 290.881L555.565 292.373L555.267 294.416ZM535.267 291.432L525.254 289.94L525.553 287.898L535.565 289.39L535.267 291.432ZM515.243 288.472L505.231 286.98L505.53 284.937L515.541 286.429L515.243 288.472ZM495.242 285.511L485.231 284.019L485.529 281.977L495.541 283.468L495.242 285.511ZM475.242 282.55L465.23 281.059L465.529 279.016L475.541 280.508L475.242 282.55ZM455.242 279.59L445.23 278.098L445.528 276.055L455.54 277.547L455.242 279.59Z" fill="white"/>
<path d="M678.071 405.334C678.071 412.265 675.408 418.553 671.045 423.258C670.976 423.327 670.93 423.396 670.861 423.465C670.792 423.534 670.723 423.602 670.654 423.671C665.855 428.629 659.127 431.704 651.687 431.704C647.623 431.704 643.765 430.786 640.321 429.133C637.083 427.596 634.213 425.416 631.893 422.753C631.342 422.134 630.837 421.491 630.332 420.825C627.163 416.488 625.303 411.14 625.303 405.357C625.303 390.807 637.106 378.987 651.687 378.987C666.268 378.987 678.071 390.784 678.071 405.334Z" fill="#52B6C6"/>
<path d="M646.36 417.635C646.36 417.635 646.154 418.003 645.81 418.668C645.672 418.921 645.533 419.196 645.372 419.494C644.821 420.573 644.042 422.019 643.169 423.694C643.1 423.832 643.007 423.993 642.938 424.13C642.135 425.668 641.239 427.389 640.344 429.11C637.106 427.573 634.237 425.393 631.917 422.73C631.366 422.111 630.86 421.468 630.355 420.802C630.676 420.481 631.045 420.206 631.435 419.999C635.339 417.796 642.663 417.589 645.35 417.612C645.97 417.612 646.36 417.635 646.36 417.635Z" fill="#DCF4FF"/>
<path d="M631.917 422.753C633.156 420.963 634.695 419.724 636.578 419.448C638.644 419.15 641.951 418.898 645.327 418.691C645.487 418.691 645.648 418.668 645.809 418.668C650.608 418.37 655.43 418.186 656.969 418.117C657.29 418.094 657.474 418.094 657.474 418.094C657.474 418.094 657.52 418.117 657.589 418.117C658.002 418.232 659.38 418.576 658.852 418.324C664.294 419.288 668.151 421.239 670.884 423.442C670.815 423.511 670.746 423.579 670.677 423.648C665.878 428.606 659.15 431.681 651.71 431.681C647.646 431.681 643.788 430.763 640.344 429.11C637.106 427.596 634.236 425.415 631.917 422.753Z" fill="#DCF4FF"/>
<path d="M652.1 428.629C652.307 428.651 652.537 428.674 652.766 428.674C652.904 428.674 652.996 428.583 653.019 428.468C653.019 428.33 652.927 428.238 652.812 428.215C643.237 427.55 641.469 420.527 641.446 420.458C641.423 420.344 641.308 420.252 641.17 420.275C641.055 420.298 640.963 420.412 640.986 420.527C640.963 420.619 642.732 427.642 652.1 428.629Z" fill="#0D060E"/>
<path d="M657.543 417.865C663.835 418.737 668.129 420.94 671.045 423.281C670.976 423.35 670.93 423.419 670.861 423.488C670.792 423.557 670.723 423.625 670.654 423.694C667.83 421.445 663.674 419.334 657.612 418.462C657.474 418.439 657.336 418.416 657.198 418.393C657.061 418.37 656.969 418.278 656.969 418.163C656.969 418.14 656.969 418.117 656.969 418.094C656.992 417.934 657.13 417.842 657.29 417.865C657.359 417.842 657.451 417.842 657.543 417.865Z" fill="#0D060E"/>
<path d="M651.549 424.911C648.036 424.956 645.189 421.032 645.327 416.327L645.671 409.603L656.785 409.557L657.313 416.396C657.634 421.17 655.132 424.865 651.549 424.911Z" fill="#FE9F73"/>
<path d="M645.533 414.262C647.531 419.081 656.188 418.645 657.06 413.872L656.762 409.511L645.648 409.557L645.533 414.262Z" fill="#F07162"/>
<path d="M660.987 405.426C662.673 405.426 664.041 404.059 664.041 402.374C664.041 400.688 662.673 399.321 660.987 399.321C659.3 399.321 657.933 400.688 657.933 402.374C657.933 404.059 659.3 405.426 660.987 405.426Z" fill="#FE9F73"/>
<path d="M661.239 404.256C661.882 404.256 662.295 403.774 662.456 403.292C662.617 402.718 662.433 402.167 661.951 401.892C661.285 401.479 660.688 401.731 660.366 401.938C660.504 401.616 660.688 401.364 660.963 401.226C661.561 400.905 662.295 401.134 662.318 401.134C662.364 401.157 662.433 401.111 662.433 401.065C662.456 401.02 662.433 400.951 662.364 400.951C662.341 400.951 661.538 400.675 660.872 401.065C660.481 401.272 660.229 401.662 660.091 402.19L659.999 402.534L660.252 402.282C660.275 402.259 661.009 401.547 661.859 402.075C662.341 402.374 662.364 402.901 662.272 403.269C662.158 403.659 661.836 404.095 661.239 404.095C661.193 404.095 661.147 404.141 661.147 404.187C661.124 404.21 661.17 404.256 661.239 404.256C661.216 404.256 661.216 404.256 661.239 404.256Z" fill="#F07162"/>
<path d="M660.183 400.239C661.469 383.876 635.935 377.036 642.295 405.449C645.579 417.727 660.78 416.19 660.183 400.239Z" fill="#FE9F73"/>
<path d="M640.504 405.518C642.191 405.518 643.558 404.151 643.558 402.465C643.558 400.78 642.191 399.413 640.504 399.413C638.818 399.413 637.45 400.78 637.45 402.465C637.45 404.151 638.818 405.518 640.504 405.518Z" fill="#FE9F73"/>
<path d="M640.298 404.347C639.655 404.347 639.218 403.865 639.081 403.383C638.92 402.81 639.104 402.259 639.563 401.96C640.229 401.547 640.826 401.777 641.147 401.983C641.009 401.662 640.803 401.433 640.55 401.272C639.953 400.951 639.218 401.18 639.195 401.203C639.149 401.226 639.081 401.203 639.081 401.134C639.058 401.088 639.081 401.019 639.15 401.019C639.172 401.019 639.976 400.744 640.642 401.111C641.032 401.318 641.308 401.708 641.423 402.236L641.515 402.58L641.262 402.328C641.239 402.305 640.504 401.593 639.655 402.144C639.195 402.442 639.15 402.97 639.264 403.337C639.379 403.728 639.724 404.164 640.298 404.164C640.344 404.164 640.389 404.21 640.389 404.255C640.412 404.301 640.367 404.347 640.298 404.347Z" fill="#F07162"/>
<path d="M647.439 401.111C647.781 401.111 648.059 400.834 648.059 400.492C648.059 400.149 647.781 399.872 647.439 399.872C647.096 399.872 646.819 400.149 646.819 400.492C646.819 400.834 647.096 401.111 647.439 401.111Z" fill="#010103"/>
<path d="M655.108 401.18C655.451 401.18 655.728 400.903 655.728 400.56C655.728 400.218 655.451 399.941 655.108 399.941C654.766 399.941 654.488 400.218 654.488 400.56C654.488 400.903 654.766 401.18 655.108 401.18Z" fill="#010103"/>
<path d="M657.68 399.482C657.566 399.482 657.451 399.436 657.359 399.367C655.889 398.128 653.777 398.839 653.754 398.839C653.478 398.931 653.203 398.793 653.111 398.518C653.019 398.243 653.157 397.967 653.432 397.875C653.547 397.829 656.096 396.98 658.025 398.587C658.232 398.77 658.277 399.092 658.094 399.298C657.979 399.413 657.841 399.482 657.68 399.482Z" fill="#2D0F28"/>
<path d="M644.959 399.482C644.821 399.482 644.661 399.413 644.569 399.298C644.385 399.092 644.431 398.77 644.638 398.587C646.566 397.003 649.115 397.898 649.23 397.944C649.483 398.036 649.62 398.334 649.529 398.587C649.437 398.839 649.138 398.977 648.886 398.885C648.863 398.885 646.75 398.151 645.281 399.367C645.189 399.459 645.074 399.482 644.959 399.482Z" fill="#2D0F28"/>
<path d="M649.505 407.078C649.574 407.055 653.294 406.964 653.294 406.964C653.294 406.964 652.835 408.501 651.457 408.547C650.056 408.593 649.505 407.078 649.505 407.078Z" fill="#FBFDFA"/>
<path d="M660.229 388.03C658.094 384.174 644.017 382.361 640.963 387.892C640.298 389.085 640.412 398.747 640.918 399.551C641.423 400.354 642.525 400.675 642.525 400.675C642.525 400.675 642.617 392.826 643.076 391.793C643.535 390.761 646.222 388.649 648.22 390.393C649.253 391.311 650.011 391.426 650.493 391.357C650.952 391.495 651.779 391.472 652.973 390.462C654.994 388.741 657.657 390.875 658.094 391.908C658.553 392.941 658.553 400.813 658.553 400.813C658.553 400.813 659.655 400.492 660.16 399.711C660.688 398.908 660.895 389.223 660.229 388.03Z" fill="#2D0F28"/>
<path d="M652.652 404.209C652.698 404.209 652.721 404.187 652.743 404.141C652.766 404.095 652.721 404.049 652.675 404.026L650.746 403.567L650.975 399.115C650.975 399.069 650.929 399.023 650.884 399.023C650.838 399.023 650.792 399.069 650.792 399.115L650.539 403.728L652.629 404.232C652.629 404.209 652.629 404.209 652.652 404.209Z" fill="#F07162"/>
<path d="M655.683 407.239C655.66 406.046 654.879 404.967 653.708 404.646C652.606 404.347 651.297 404.393 650.126 404.485C645.257 404.255 647.003 413.895 650.493 414.331C655.774 415.065 655.751 410.704 655.683 407.239ZM648.771 406.528C649.115 405.816 652.123 405.609 653.662 406.114C654.098 406.252 654.42 406.665 654.443 407.124C654.557 408.96 653.409 412.586 651.986 409.282L651.021 409.304C649.735 413.78 647.99 407.652 648.771 406.528Z" fill="#2D0F28"/>
<path d="M651.388 433.333C651.319 433.333 651.228 433.333 651.159 433.333C650.034 433.333 648.932 433.241 647.83 433.104C647.554 433.081 647.278 433.035 646.956 432.989C639.907 431.864 633.615 428.124 629.229 422.455C625.417 417.521 623.396 411.599 623.396 405.334C623.396 397.852 626.313 390.829 631.594 385.528C636.875 380.249 643.925 377.335 651.411 377.335C658.897 377.335 665.924 380.249 671.228 385.528C676.51 390.807 679.426 397.852 679.426 405.334C679.426 411.76 677.313 417.796 673.294 422.799C668.748 428.491 662.273 432.14 655.086 433.081C653.869 433.264 652.628 433.333 651.388 433.333ZM651.388 379.24C636.99 379.24 625.28 390.944 625.28 405.334C625.28 411.163 627.162 416.694 630.721 421.284C634.809 426.586 640.687 430.074 647.255 431.107C647.553 431.153 647.807 431.199 648.059 431.222C649.093 431.36 650.126 431.428 651.182 431.428C651.251 431.428 651.319 431.428 651.388 431.428C652.536 431.428 653.708 431.36 654.81 431.199C661.515 430.327 667.553 426.907 671.802 421.606C675.544 416.947 677.52 411.301 677.52 405.311C677.497 390.944 665.785 379.24 651.388 379.24Z" fill="white"/>
<path d="M623.329 406.39L615.912 406.092L616.004 404.026L623.421 404.324L623.329 406.39ZM605.808 405.701L595.705 405.311L595.797 403.246L605.9 403.636L605.808 405.701ZM585.601 404.898L575.498 404.508L575.589 402.442L585.693 402.833L585.601 404.898ZM565.394 404.095L555.291 403.705L555.382 401.639L565.486 402.029L565.394 404.095Z" fill="white"/>
<path d="M645.786 378.207L644.041 369.142L646.085 368.751L647.83 377.817L645.786 378.207ZM642.135 359.204L640.229 349.267L642.273 348.876L644.179 358.814L642.135 359.204ZM638.346 339.352L636.44 329.415L638.484 329.025L640.39 338.962L638.346 339.352Z" fill="white"/>
<path d="M239.349 540.465C236.502 537.619 214.343 497.869 199.004 518.318C199.004 518.318 173.929 460.69 142.194 471.959C142.194 471.959 121.964 483.663 136.66 512.833C136.66 512.833 87.6582 509.712 88.3012 540.442H239.349V540.465Z" fill="#8FE98C"/>
<path d="M166.052 482.86C166.144 482.86 166.236 482.814 166.305 482.745C166.42 482.608 166.397 482.401 166.259 482.286C165.938 482.034 158.153 475.975 151.035 475.103C150.851 475.08 150.691 475.218 150.668 475.401C150.645 475.585 150.782 475.745 150.966 475.768C157.901 476.595 165.777 482.745 165.869 482.814C165.892 482.837 165.961 482.86 166.052 482.86Z" fill="#8FE98C"/>
<path d="M166.053 486.693C166.144 486.693 166.236 486.647 166.305 486.578C166.42 486.44 166.397 486.234 166.259 486.119C166.213 486.073 160.863 481.804 154.066 479.808C153.882 479.762 153.699 479.853 153.653 480.037C153.607 480.221 153.699 480.404 153.882 480.45C160.565 482.401 165.777 486.601 165.846 486.647C165.892 486.67 165.961 486.693 166.053 486.693Z" fill="#8FE98C"/>
<path d="M692.469 540.167H76.6123V541.59H692.469V540.167Z" fill="#223749"/>
<path d="M425.07 486.165C437.485 486.165 447.55 476.105 447.55 463.697C447.55 451.288 437.485 441.228 425.07 441.228C412.654 441.228 402.589 451.288 402.589 463.697C402.589 476.105 412.654 486.165 425.07 486.165Z" fill="white"/>
<path d="M420.891 475.126L412.417 463.352C412.027 462.801 412.142 462.021 412.693 461.608C413.244 461.218 414.025 461.333 414.438 461.883L420.982 470.972L437.355 450.225C437.791 449.674 438.572 449.582 439.1 450.018C439.651 450.454 439.743 451.235 439.307 451.762L420.891 475.126Z" fill="#5AB3BF"/>
</g>
<path d="M1641.15 3.44907C1641.81 148.513 1517.05 250.119 1452.2 248.303C1358.05 245.677 1351.29 164.68 1285.95 117.488C1215.7 66.7414 1168.12 145.937 1075.28 67.5838C984.848 -8.73822 1018.96 -133.896 1066.99 -210.762C1115.93 -289.089 1161.78 -317.605 1184.01 -327.52L1641.15 3.44907Z" fill="url(#paint1_linear_125_9419)"/>
</g>
<defs>
<linearGradient id="paint0_linear_125_9419" x1="517.634" y1="558.435" x2="357.627" y2="124.838" gradientUnits="userSpaceOnUse">
<stop stop-color="#2A21FF"/>
<stop offset="1" stop-color="#241DCF" stop-opacity="0"/>
</linearGradient>
<linearGradient id="paint1_linear_125_9419" x1="1389.51" y1="288.145" x2="1146.77" y2="-118.798" gradientUnits="userSpaceOnUse">
<stop stop-color="#2A21FF"/>
<stop offset="1" stop-color="#241DCF" stop-opacity="0"/>
</linearGradient>
</defs>
</svg>
