<svg width="36" height="36" viewBox="0 0 36 36" fill="none" xmlns="http://www.w3.org/2000/svg">
<path d="M32.3301 5.99979C32.1938 5.98575 32.0564 5.98575 31.9201 5.99979H3.92014C3.74068 6.00256 3.56241 6.02947 3.39014 6.07979L17.8401 20.4698L32.3301 5.99979Z" fill="#006496"/>
<path d="M33.8102 7.38965L19.2502 21.8896C18.8755 22.2622 18.3685 22.4712 17.8402 22.4712C17.3118 22.4712 16.8049 22.2622 16.4302 21.8896L2.00018 7.49965C1.95582 7.66269 1.93229 7.83069 1.93018 7.99965V27.9996C1.93018 28.5301 2.14089 29.0388 2.51596 29.4139C2.89103 29.7889 3.39974 29.9996 3.93018 29.9996H31.9302C32.4606 29.9996 32.9693 29.7889 33.3444 29.4139C33.7195 29.0388 33.9302 28.5301 33.9302 27.9996V7.99965C33.9222 7.7913 33.8817 7.58548 33.8102 7.38965ZM5.30018 27.9996H3.91018V26.5696L11.1802 19.3596L12.5902 20.7696L5.30018 27.9996ZM31.9102 27.9996H30.5102L23.2202 20.7696L24.6302 19.3596L31.9002 26.5696L31.9102 27.9996Z" fill="#006496"/>
</svg>
