<svg width="14" height="14" viewBox="0 0 14 14" fill="none" xmlns="http://www.w3.org/2000/svg">
<circle cx="7" cy="7" r="7" fill="#DC2430"/>
<g clip-path="url(#clip0_555_35400)">
<path d="M8.57505 5.42719C8.47755 5.32969 8.32005 5.32969 8.22255 5.42719L7.00005 6.64719L5.77755 5.42469C5.68005 5.32719 5.52255 5.32719 5.42505 5.42469C5.32755 5.52219 5.32755 5.67969 5.42505 5.77719L6.64755 6.99969L5.42505 8.22219C5.32755 8.31969 5.32755 8.47719 5.42505 8.57469C5.52255 8.67219 5.68005 8.67219 5.77755 8.57469L7.00005 7.35219L8.22255 8.57469C8.32005 8.67219 8.47755 8.67219 8.57505 8.57469C8.67255 8.47719 8.67255 8.31969 8.57505 8.22219L7.35255 6.99969L8.57505 5.77719C8.67005 5.68219 8.67005 5.52219 8.57505 5.42719V5.42719Z" fill="white"/>
</g>
<defs>
<clipPath id="clip0_555_35400">
<rect width="6" height="6" fill="white" transform="translate(4 4)"/>
</clipPath>
</defs>
</svg>
