<svg width="49" height="49" viewBox="0 0 49 49" fill="none" xmlns="http://www.w3.org/2000/svg">
<g clip-path="url(#clip0_1209_6469)">
<path d="M24.5001 3.0625C10.9677 3.0625 0.00146484 11.9725 0.00146484 22.9688C0.00146484 27.7147 2.04855 32.0605 5.45559 35.4771C4.2593 40.2996 0.257949 44.5977 0.210098 44.6455C0.000125006 44.8656 -0.0567226 45.191 0.0659688 45.4781C0.105398 45.7652 0.460744 45.9375 0.76575 45.9375C7.11182 45.9375 11.8673 42.8941 14.2216 41.0174C17.3511 42.1955 20.8251 42.875 24.5001 42.875C38.0325 42.875 49.0001 33.965 49.0001 22.9688C49.0001 11.9725 38.0325 3.0625 24.5001 3.0625ZM16.0113 26.0217C15.6859 27.8592 14.0015 29.0938 11.5898 29.0938C11.1863 29.0934 10.7834 29.0614 10.3849 28.998C9.67571 28.8832 8.88233 28.5961 8.18274 28.3377C7.38726 28.0506 6.83716 27.1261 7.1214 26.3308C7.40563 25.5355 8.13489 24.9881 8.93688 25.3518C9.60479 25.5908 10.3274 25.8732 10.9352 25.9679C12.03 26.1365 12.92 25.9355 12.9966 25.4953C13.0974 24.9295 11.9592 24.6918 10.6461 24.3143C9.48622 23.9764 6.40841 23.0731 6.94913 19.912C7.33787 17.6745 9.56278 16.4753 12.4999 16.9366C13.0651 17.0233 13.6905 17.2088 14.279 17.4121C15.0776 17.6873 15.5021 18.5606 15.2271 19.3587C14.9585 20.1646 14.0876 20.5857 13.2837 20.3082C12.868 20.1646 12.4283 20.027 12.031 19.9642C10.9572 19.8058 10.048 20.0031 9.97335 20.4338C9.87669 20.9781 10.872 21.1982 11.9056 21.4949C13.5325 21.9639 16.5663 22.8252 16.0113 26.0217ZM30.6251 27.5625C30.6251 28.4089 29.9403 29.0938 29.0939 29.0938C28.2475 29.0938 27.5626 28.4047 27.5626 27.5625V22.9688L25.7261 25.4178C25.1459 26.1894 23.8551 26.1894 23.2742 25.4178L21.4376 22.9688V27.5625C21.4376 28.4089 20.7528 29.0938 19.9064 29.0938C19.06 29.0938 18.3751 28.4047 18.3751 27.5625V18.375C18.3751 17.717 18.7968 17.217 19.4221 16.9222C20.0442 16.7218 20.7342 16.9279 21.1323 17.4572L24.5001 21.9447L27.8679 17.4534C28.2657 16.924 28.9589 16.7211 29.5781 16.9184C30.204 17.1309 30.6251 17.7146 30.6251 18.375V27.5625ZM42.0425 26.0217C41.7171 27.8592 40.0327 29.0938 37.621 29.0938C37.2175 29.0934 36.8146 29.0614 36.4161 28.998C35.6266 28.8784 34.8313 28.5913 34.1307 28.3371C33.3352 28.05 32.7851 27.1255 33.0694 26.3302C33.3536 25.5349 34.0829 25.0708 34.8849 25.355C35.5528 25.5941 36.2754 25.8765 36.8832 25.9711C37.978 26.1357 38.8719 25.9353 38.9465 25.4986C39.0473 24.9328 37.9091 24.695 36.596 24.3176C35.4361 23.9797 32.3583 23.0763 32.899 19.9152C33.2848 17.6777 35.5069 16.4785 38.4498 16.9398C39.015 17.0265 39.6404 17.212 40.2289 17.4154C41.0275 17.6905 41.452 18.5638 41.177 19.362C40.9018 20.1605 40.0343 20.5879 39.2304 20.31C38.8146 20.1665 38.375 20.0288 37.9776 19.9661C36.9067 19.8076 35.9946 20.0049 35.92 20.4356C35.9079 20.9781 36.9032 21.1982 37.9368 21.4949C39.5638 21.9639 42.5976 22.8252 42.0425 26.0217Z" fill="#3BA9E6"/>
</g>
<defs>
<clipPath id="clip0_1209_6469">
<rect width="49" height="49" fill="white"/>
</clipPath>
</defs>
</svg>
