<svg width="48" height="48" viewBox="0 0 48 48" fill="none" xmlns="http://www.w3.org/2000/svg">
<path d="M10.0465 23.9995C10.0465 22.4391 10.3019 20.9397 10.7752 19.5381L2.51475 13.3662C0.90374 16.5674 0 20.1752 0 23.9995C0 27.8221 0.901953 31.4282 2.51118 34.6276L10.7681 28.4417C10.3001 27.0453 10.0465 25.5512 10.0465 23.9995Z" fill="#FBBC05"/>
<path d="M24.558 9.81818C28.0194 9.81818 31.145 11.0191 33.6008 12.9827L40.745 6.00087C36.3906 2.29178 30.8092 0 24.558 0C14.8527 0 6.51003 5.42836 2.51465 13.3667L10.7751 19.5386C12.6808 13.8816 18.1175 9.81818 24.558 9.81818Z" fill="#EA4335"/>
<path d="M24.558 38.1814C18.1176 38.1814 12.6808 34.118 10.7751 28.4609L2.51465 34.6329C6.51003 42.5712 14.8527 47.9996 24.558 47.9996C30.5484 47.9996 36.2727 45.9225 40.5646 42.0231L32.7238 36.0903C30.5091 37.4553 27.714 38.1814 24.558 38.1814Z" fill="#34A853"/>
<path d="M10.7681 28.4424L2.51123 34.6283C2.51302 34.63 2.51302 34.6335 2.5148 34.6353L10.7753 28.4633C10.7717 28.4546 10.7699 28.4476 10.7681 28.4424Z" fill="#34A853"/>
<path d="M47.4427 19.6367H24.5581V28.9103H37.7302C37.0711 32.0713 35.2869 34.5097 32.7239 36.0911L40.5647 42.0239C45.0708 37.9291 48 31.8235 48 24.0004C48 22.583 47.7767 21.0558 47.4427 19.6367Z" fill="#4285F4"/>
</svg>
