<svg width="56" height="57" viewBox="0 0 56 57" fill="none" xmlns="http://www.w3.org/2000/svg">
<g clip-path="url(#clip0_1209_6463)">
<path d="M14.8011 48.8185L15.7165 49.2791C19.5315 51.5818 23.8039 52.6564 28.0766 52.6564C41.5045 52.6564 52.491 41.6033 52.491 28.0938C52.491 21.6462 49.8969 15.352 45.3193 10.7465C40.7415 6.14092 34.6377 3.53125 28.0766 3.53125C14.6486 3.53125 3.66187 14.5844 3.81456 28.2475C3.81456 32.8528 5.18787 37.305 7.47665 41.1427L8.08697 42.0639L5.64572 51.1214L14.8011 48.8185Z" fill="#00E676"/>
<path d="M47.9135 8.28987C42.7254 2.9169 35.5537 0 28.2293 0C12.6652 0 0.152687 12.7418 0.305156 28.2469C0.305156 33.1595 1.67847 37.9186 3.96747 42.217L0 56.8011L14.8013 52.9631C18.9212 55.266 23.4988 56.3406 28.0768 56.3406C43.4884 56.3406 56.0009 43.5986 56.0009 28.0937C56.0009 20.5713 53.1016 13.5094 47.9137 8.28987H47.9135ZM28.2293 51.5817C24.1093 51.5817 19.9894 50.5073 16.4797 48.358L15.5643 47.8974L6.71409 50.2001L9.00287 41.4498L8.39256 40.5285C1.67847 29.629 4.88294 15.1981 15.8694 8.44326C26.8559 1.68865 41.0469 4.91256 47.761 15.9657C54.4749 27.0189 51.2704 41.2959 40.2841 48.0508C36.7743 50.3534 32.5019 51.5815 28.2293 51.5815V51.5817ZM41.6572 34.5416L39.9787 33.7739C39.9787 33.7739 37.5375 32.6993 36.0115 31.9317C35.8588 31.9317 35.7063 31.7781 35.5537 31.7781C35.0958 31.7781 34.7907 31.9317 34.4855 32.0853C34.4855 32.0853 34.333 32.2387 32.1967 34.695C32.044 35.002 31.7389 35.1556 31.4337 35.1556H31.281C31.1286 35.1556 30.8234 35.002 30.6707 34.8486L29.9077 34.5416C28.2292 33.7739 26.7035 32.8527 25.4826 31.6247C25.1775 31.3176 24.7196 31.0106 24.4145 30.7036C23.3463 29.629 22.2782 28.4007 21.5154 27.0191L21.3627 26.7121C21.2102 26.5585 21.2102 26.4051 21.0575 26.0981C21.0575 25.7911 21.0575 25.4841 21.2102 25.3304C21.2102 25.3304 21.8205 24.5628 22.2782 24.1024C22.5835 23.7952 22.736 23.3348 23.0412 23.0278C23.3463 22.5672 23.499 21.9531 23.3463 21.4925C23.1938 20.7249 21.3627 16.58 20.9051 15.6589C20.5997 15.1983 20.2948 15.0449 19.8369 14.8913H18.1584C17.8531 14.8913 17.5481 15.0449 17.2428 15.0449L17.0901 15.1983C16.7849 15.3519 16.4797 15.6589 16.1746 15.8123C15.8694 16.1196 15.7168 16.4263 15.4116 16.7336C14.3434 18.1152 13.7331 19.8039 13.7331 21.4925C13.7331 22.7206 14.0383 23.9488 14.4961 25.0234L14.6488 25.4841C16.0221 28.4007 17.8531 31.0106 20.2948 33.3133L20.9051 33.9273C21.3627 34.3879 21.8205 34.695 22.1257 35.1554C25.3302 37.9189 28.9922 39.9145 33.1122 40.9892C33.57 41.1426 34.1803 41.1426 34.6382 41.2962H36.164C36.927 41.2962 37.8424 40.9892 38.453 40.6822C38.9106 40.3751 39.2158 40.3751 39.5209 40.0681L39.8263 39.7609C40.1314 39.4539 40.4366 39.3005 40.7417 38.9935C41.0469 38.6865 41.3521 38.3795 41.5047 38.0723C41.8099 37.4582 41.9624 36.6906 42.1151 35.9232V34.8486C42.1151 34.8486 41.9624 34.695 41.6572 34.5416Z" fill="white"/>
</g>
<defs>
<clipPath id="clip0_1209_6463">
<rect width="56" height="57" fill="white"/>
</clipPath>
</defs>
</svg>
