<svg width="31" height="31" viewBox="0 0 31 31" fill="none" xmlns="http://www.w3.org/2000/svg">
<g clip-path="url(#clip0_1211_6505)">
<path d="M18.2424 3.40043C18.3237 3.42744 18.4071 3.36544 18.4032 3.27982C18.3136 1.31381 16.74 0 15.0166 0C13.2827 0 11.7197 1.3307 11.63 3.28103C11.6261 3.36665 11.7095 3.42865 11.7908 3.40164C13.7776 2.74053 16.2901 2.75125 18.2424 3.40043Z" fill="#006496"/>
<path d="M27.2307 22.7711C25.625 21.3949 24.7041 19.3926 24.7041 17.2783V16.4616C24.7041 16.3847 24.6336 16.3283 24.5582 16.3434C20.4455 17.1671 16.4697 14 16.4697 9.68752C16.4697 6.75965 18.0746 5.19185 18.5927 4.74732C18.6615 4.68828 18.6436 4.57682 18.5594 4.54339C12.2841 2.05359 5.32912 6.67949 5.32912 13.5625V17.2783C5.32912 19.3499 4.43926 21.3688 2.8025 22.7711C2.53246 23.0024 2.31207 23.2948 2.16494 23.6157C1.41161 25.2531 2.6145 27.125 4.41365 27.125H25.5763C26.8819 27.125 27.9958 26.1305 28.0884 24.8281C28.1469 24.0058 27.7965 23.2557 27.2307 22.7711ZM15.0166 31C16.8144 31 18.3613 29.9064 19.0268 28.3492C19.0785 28.2283 18.9922 28.0938 18.8607 28.0938H11.1725C11.041 28.0938 10.9548 28.2283 11.0064 28.3492C11.6719 29.9064 13.2189 31 15.0166 31Z" fill="#006496"/>
<path d="M23.252 15.5C26.4774 15.5 29.0645 12.8886 29.0645 9.6875C29.0645 6.48275 26.4567 3.875 23.252 3.875C20.029 3.875 17.4395 6.49238 17.4395 9.6875C17.4395 12.8922 20.0472 15.5 23.252 15.5Z" fill="#006496"/>
</g>
<defs>
<clipPath id="clip0_1211_6505">
<rect width="31" height="31" fill="white"/>
</clipPath>
</defs>
</svg>
