<svg width="83" height="80" viewBox="0 0 83 80" fill="none" xmlns="http://www.w3.org/2000/svg">
<rect x="15.8691" y="12.553" width="66" height="66" rx="3.5" stroke="white" stroke-opacity="0.75"/>
<rect x="0.369141" y="0.552979" width="67" height="67" rx="4" fill="#FFE7E3"/>
<g clip-path="url(#clip0_3_3929)">
<path d="M33.8711 42.0873C32.647 42.0873 31.656 40.7664 31.656 39.1403C31.656 37.5142 32.647 36.1933 33.8711 36.1933C35.0952 36.1933 36.0829 37.5142 36.0829 39.1403C36.0829 40.7664 35.092 42.0873 33.8711 42.0873ZM34.1752 22.053L19.3691 32.7482H23.1354L23.0479 46.053H28.9192V44.7643C28.9192 44.7643 28.6504 44.4429 29.7288 43.7456C30.7424 43.0932 31.8532 42.2962 31.9827 42.203C31.9863 42.1999 31.991 42.1982 31.9957 42.1982C32.0005 42.1982 32.0051 42.1999 32.0087 42.203C32.1285 42.2865 33.0774 42.9357 33.8837 42.8361C34.4751 42.7374 35.0402 42.5209 35.545 42.1998C35.5492 42.1979 35.5539 42.1972 35.5584 42.1978C35.563 42.1983 35.5673 42.2002 35.5709 42.203L38.8384 44.3819C38.8449 44.3883 38.8514 44.3947 38.8514 44.4011V46.053H45.1275V32.5747H48.3692L34.1752 22.053Z" fill="#241DCF"/>
</g>
<defs>
<clipPath id="clip0_3_3929">
<rect width="29" height="24" fill="white" transform="translate(19.3691 22.053)"/>
</clipPath>
</defs>
</svg>
