<svg width="81" height="80" viewBox="0 0 81 80" fill="none" xmlns="http://www.w3.org/2000/svg">
<rect x="14.4785" y="12.553" width="66" height="66" rx="3.5" stroke="white" stroke-opacity="0.75"/>
<rect x="0.478516" y="0.552979" width="67" height="67" rx="4" fill="#FFE7E3"/>
<g clip-path="url(#clip0_3_3932)">
<path d="M31.1681 37.2868C33.1842 37.2868 34.8185 35.0733 34.8185 32.3428C34.8185 29.6123 33.1842 27.3988 31.1681 27.3988C29.152 27.3988 27.5176 29.6123 27.5176 32.3428C27.5176 35.0733 29.152 37.2868 31.1681 37.2868Z" fill="#241DCF"/>
<path d="M38.9348 41.2342V44.553H23.4785V40.9598C23.4781 40.7895 23.5203 40.6216 23.6014 40.4704C23.6825 40.3191 23.8002 40.1889 23.9445 40.0908L28.5271 36.9872H28.8377C29.4733 37.5531 30.3029 37.8731 31.1678 37.8861C31.9683 37.8764 32.7407 37.6001 33.3541 37.104C33.4475 37.0297 33.5645 36.9884 33.6856 36.9872C33.7996 36.9871 33.9106 37.0233 34.0013 37.09L38.5008 40.3904C38.6357 40.4893 38.745 40.6169 38.8203 40.7633C38.8956 40.9097 38.9348 41.0708 38.9348 41.2342Z" fill="#241DCF"/>
<path d="M44.0984 23.8032C42.8557 23.3148 42.1597 23.6923 42.1597 23.6923L38.5869 25.1905V27.8483L41.032 28.858V32.2319H41.5384V32.6035L41.032 32.6424L40.6436 32.7174L40.2366 32.9241L39.7489 33.3915H38.9349V33.6912L39.4009 33.7661L40.0223 33.7301L40.7617 34.4403H41.5757V35.2283H41.0724V35.5279H40.6063V35.8635H39.7893V36.5946H40.3143L40.5256 36.7984H41.5757V37.5115H40.6063V38.0359H39.867V38.5962H40.7617V38.746H41.498L41.5384 39.1955L41.8864 39.4232L42.2344 39.7228L42.4704 39.609V29.6071H43.2068V39.7588L42.6631 40.1723C42.7003 40.9214 43.0514 41.1431 43.0514 41.1431L44.4091 40.2832V29.2715L47.4786 27.9981V25.2624C47.4786 25.2624 45.3412 24.2916 44.0984 23.8032ZM46.0029 26.8385H40.6063C40.4575 26.6738 40.3722 26.4645 40.3648 26.2462C40.3575 26.0278 40.4285 25.8136 40.566 25.6399C40.6746 25.4438 40.8489 25.2888 41.0604 25.2001C41.2719 25.1115 41.5082 25.0944 41.731 25.1515H45.1858C45.513 25.287 45.777 25.5337 45.9276 25.8448C46.0783 26.1559 46.1051 26.5096 46.0029 26.8385Z" fill="#241DCF"/>
</g>
<defs>
<clipPath id="clip0_3_3932">
<rect width="24" height="21" fill="white" transform="translate(23.4785 23.553)"/>
</clipPath>
</defs>
</svg>
