<svg width="164" height="47" viewBox="0 0 164 47" fill="none" xmlns="http://www.w3.org/2000/svg">
<g clip-path="url(#clip0_320_310)" filter="url(#filter0_d_320_310)">
<path d="M36.3614 0.531311C36.7529 0.531311 37.0811 0.847561 37.0811 1.25236V38.6458H36.9675L31.475 30.9166C31.4624 30.904 31.4624 30.904 31.4497 30.8913L26.1087 23.3772C30.8815 21.796 33.5836 17.8998 33.5836 12.4856C33.5836 10.4236 33.0533 8.29842 31.9548 6.41357C31.8412 6.22382 31.7275 6.03407 31.6013 5.84432C31.5634 5.78107 31.5255 5.71782 31.475 5.65457C31.3487 5.46482 31.2098 5.28772 31.0709 5.11062C31.0331 5.06002 30.9826 4.99677 30.9321 4.94617C30.9321 4.93352 30.9194 4.93352 30.9194 4.93352C30.8689 4.87027 30.831 4.81967 30.7805 4.76907C30.5785 4.54137 30.3639 4.31367 30.1492 4.08597C30.0987 4.03537 30.0356 3.97212 29.9851 3.92152C29.8083 3.75707 29.6315 3.60526 29.4548 3.45346C29.3916 3.40286 29.3285 3.35226 29.2654 3.30166C29.2149 3.25106 29.1517 3.21311 29.1012 3.17516C28.9623 3.07396 28.8234 2.97276 28.6845 2.87156C28.634 2.83361 28.5709 2.79566 28.5204 2.75771C28.4699 2.71976 28.4194 2.69446 28.3815 2.66916C28.3184 2.63121 28.2552 2.59326 28.1921 2.55531C28.1795 2.54266 28.1542 2.53001 28.1416 2.51736C28.0911 2.49206 28.0532 2.46676 28.0027 2.44146C27.8764 2.36556 27.7502 2.30231 27.6239 2.22641C27.5229 2.17581 27.4219 2.12521 27.3209 2.07461C27.2451 2.03666 27.1694 1.99871 27.0936 1.96076C27.0684 1.94811 27.0305 1.93546 27.0052 1.92281C26.9421 1.89751 26.8916 1.87221 26.8285 1.84691C26.7022 1.78366 26.5759 1.73306 26.4497 1.68246C26.3739 1.64451 26.2855 1.61921 26.2098 1.58126C26.1466 1.55596 26.0709 1.53066 26.0077 1.50536C25.932 1.48006 25.8562 1.44211 25.7805 1.41681C25.6921 1.37886 25.6037 1.35356 25.5153 1.32826C25.4395 1.30296 25.3638 1.27766 25.2754 1.25236C25.1113 1.20176 24.9471 1.15116 24.783 1.11321C24.6946 1.08791 24.6062 1.06261 24.5304 1.04996C24.5178 1.04996 24.5052 1.03731 24.4926 1.03731C24.4168 1.02466 24.341 0.999362 24.2653 0.986712C24.1138 0.948762 23.9622 0.923462 23.8107 0.885512C23.6845 0.860211 23.5708 0.834911 23.4446 0.822261C23.3435 0.809611 23.2552 0.796961 23.1541 0.771661C23.1036 0.759011 23.0405 0.759011 22.99 0.746361C22.9142 0.733711 22.8511 0.721061 22.7754 0.721061C22.6238 0.695761 22.4723 0.683111 22.3082 0.670461C22.1819 0.657811 22.0683 0.645161 21.942 0.645161C21.9168 0.645161 21.8915 0.645161 21.8663 0.645161C21.7652 0.632511 21.6769 0.632511 21.5758 0.632511C21.538 0.632511 21.4875 0.632511 21.4496 0.619861C21.3359 0.619861 21.2349 0.607211 21.1213 0.607211C20.9824 0.607211 20.8435 0.607211 20.7046 0.594561C19.9344 0.594561 18.1414 0.594561 16.0202 0.581911C15.8561 0.581911 15.6793 0.581911 15.5151 0.581911H36.3614V0.531311Z" fill="#006496"/>
<path d="M25.3009 12.6121C25.3009 14.6487 24.0887 16.8372 20.6922 16.8372H4V0.531311C4.02525 4.87027 7.54804 8.38697 11.9042 8.38697H20.6922C24.1013 8.38697 25.3009 10.664 25.3009 12.6121Z" fill="#006496"/>
<path d="M29.7832 38.6458H4.97217C5.30046 38.6078 5.61612 38.5572 5.93178 38.4813C5.98229 38.4687 6.03279 38.456 6.07067 38.4434C6.57573 38.3169 7.06816 38.1398 7.54797 37.9121C7.58585 37.8994 7.62373 37.8741 7.66161 37.8488C7.81312 37.7729 7.96464 37.697 8.10353 37.6085C8.14141 37.5832 8.19192 37.5579 8.2298 37.5326C8.24242 37.5326 8.24242 37.5326 8.24242 37.5199C8.2803 37.4946 8.33081 37.4693 8.36869 37.444C8.40657 37.4187 8.44445 37.3934 8.48233 37.3808C8.55808 37.3302 8.63384 37.2796 8.7096 37.229C8.76011 37.191 8.81061 37.1657 8.84849 37.1278C8.91163 37.0772 8.98738 37.0266 9.05052 36.976C9.11365 36.9254 9.17678 36.8874 9.22729 36.8368C9.27779 36.7989 9.3283 36.7609 9.36618 36.723C9.39143 36.6977 9.42931 36.6724 9.45456 36.6471C9.61871 36.5079 9.77023 36.3561 9.93437 36.2043C9.98488 36.1537 10.0354 36.1031 10.0733 36.0525C10.1238 36.0019 10.1616 35.9513 10.1995 35.9134C10.2627 35.8501 10.3258 35.7742 10.3763 35.6983C10.4142 35.6477 10.4647 35.5971 10.5026 35.5465C10.7803 35.1923 11.0329 34.8128 11.2601 34.408C11.298 34.3448 11.3359 34.2815 11.3612 34.2056C11.4874 33.9653 11.5884 33.7249 11.6894 33.4719C11.7273 33.3834 11.7526 33.2948 11.7905 33.2063C11.7905 33.1936 11.8031 33.181 11.8031 33.1683C11.841 33.0798 11.8662 32.9912 11.8915 32.9027C11.8915 32.89 11.9041 32.8774 11.9041 32.8521C11.9167 32.8141 11.9294 32.7762 11.942 32.7256C12.0051 32.5358 12.043 32.3334 12.0935 32.1437C12.1061 32.1057 12.1061 32.0804 12.1187 32.0425C12.1819 31.7515 12.2198 31.4606 12.245 31.1696C12.245 31.119 12.2576 31.0684 12.2576 31.0178C12.2703 30.904 12.2703 30.7775 12.2703 30.6636C12.2703 30.5877 12.2703 30.4992 12.2703 30.4233V24.4904H16.7274L22.5735 34.0159C24.1644 36.5712 26.816 38.3169 29.7832 38.6458Z" fill="#006496"/>
<path d="M53.6221 0.543945H64.0768C67.7132 0.543945 70.3648 1.25235 72.0315 2.6818C73.6982 4.11125 74.5315 6.2997 74.5315 9.25981V11.5874C74.5315 15.5216 72.9911 18.0136 69.9102 19.0636V19.1774C71.6148 19.6075 72.8269 20.493 73.534 21.8339C74.2411 23.1748 74.5946 24.9585 74.5946 27.1975V33.8641C74.5946 34.952 74.6325 35.8248 74.7209 36.4953C74.8093 37.1657 75.0239 37.8235 75.3648 38.4687H68.1804C67.9279 37.8488 67.7511 37.2796 67.6627 36.7356C67.5743 36.1917 67.5364 35.2176 67.5364 33.8135V26.8813C67.5364 25.1482 67.2081 23.9338 66.5389 23.2507C65.8697 22.5676 64.7334 22.2261 63.1045 22.2261H60.6676V38.4813H53.6221V0.543945ZM63.2434 16.7992C64.6576 16.7992 65.7182 16.4956 66.4127 15.8758C67.1198 15.2559 67.4733 14.2313 67.4733 12.7892V9.85436C67.4733 8.48815 67.1829 7.4888 66.6021 6.86895C66.0213 6.2491 65.1122 5.9455 63.8748 5.9455H60.6676V16.7739H63.2434V16.7992Z" fill="url(#paint0_linear_320_310)"/>
<path d="M79.4683 0.543945C83.3572 0.543945 86.5265 3.70645 86.5265 7.6153V38.4687H79.4683V0.543945Z" fill="url(#paint1_linear_320_310)"/>
<path d="M91.7793 0.543945C95.6809 0.543945 98.8375 3.70645 98.8375 7.6153V33.0545H110.441V38.4687H91.7793V0.543945Z" fill="url(#paint2_linear_320_310)"/>
<path d="M119.545 0.543945C125.088 0.543945 129.861 4.49075 130.909 9.94291L136.401 38.4687H129.343L128.055 30.9419V31.0558H120.038L118.775 38.4687H112.234L119.545 0.543945ZM127.235 25.8946L124.091 7.14725H123.964L120.884 25.8946H127.235Z" fill="url(#paint3_linear_320_310)"/>
<path d="M141.881 36.5712C140.101 34.952 139.217 32.6497 139.217 29.6896V9.32306C139.217 6.36296 140.101 4.07331 141.881 2.44145C143.649 0.822251 146.224 0 149.608 0C152.98 0 155.555 0.809601 157.336 2.44145C159.103 4.06066 160 6.36296 160 9.32306V13.3331H157.715C155.29 13.3331 153.333 11.3724 153.333 8.94356C153.333 6.59066 152.159 5.42686 149.81 5.42686C147.462 5.42686 146.288 6.60331 146.288 8.94356V30.1197C146.288 32.4346 147.462 33.5858 149.81 33.5858C152.159 33.5858 153.333 32.4346 153.333 30.1197C153.333 26.9192 155.922 24.326 159.116 24.326H160V29.6896C160 32.6497 159.116 34.9394 157.336 36.5712C155.555 38.1904 152.98 39.0127 149.608 39.0127C146.237 39 143.661 38.1904 141.881 36.5712Z" fill="url(#paint4_linear_320_310)"/>
</g>
<defs>
<filter id="filter0_d_320_310" x="0" y="0" width="164" height="47" filterUnits="userSpaceOnUse" color-interpolation-filters="sRGB">
<feFlood flood-opacity="0" result="BackgroundImageFix"/>
<feColorMatrix in="SourceAlpha" type="matrix" values="0 0 0 0 0 0 0 0 0 0 0 0 0 0 0 0 0 0 127 0" result="hardAlpha"/>
<feOffset dy="4"/>
<feGaussianBlur stdDeviation="2"/>
<feComposite in2="hardAlpha" operator="out"/>
<feColorMatrix type="matrix" values="0 0 0 0 0 0 0 0 0 0 0 0 0 0 0 0 0 0 0.25 0"/>
<feBlend mode="normal" in2="BackgroundImageFix" result="effect1_dropShadow_320_310"/>
<feBlend mode="normal" in="SourceGraphic" in2="effect1_dropShadow_320_310" result="shape"/>
</filter>
<linearGradient id="paint0_linear_320_310" x1="63.7145" y1="2.97504" x2="87.4823" y2="27.6902" gradientUnits="userSpaceOnUse">
<stop stop-color="#006496"/>
<stop offset="0.60984" stop-color="#323C47"/>
<stop offset="1" stop-color="#323C47"/>
</linearGradient>
<linearGradient id="paint1_linear_320_310" x1="82.7445" y1="2.97423" x2="97.1593" y2="7.84175" gradientUnits="userSpaceOnUse">
<stop stop-color="#006496"/>
<stop offset="0.60984" stop-color="#323C47"/>
<stop offset="1" stop-color="#323C47"/>
</linearGradient>
<linearGradient id="paint2_linear_320_310" x1="100.442" y1="2.97423" x2="124.068" y2="24.0679" gradientUnits="userSpaceOnUse">
<stop stop-color="#006496"/>
<stop offset="0.60984" stop-color="#323C47"/>
<stop offset="1" stop-color="#323C47"/>
</linearGradient>
<linearGradient id="paint3_linear_320_310" x1="123.452" y1="2.97423" x2="146.982" y2="30.1791" gradientUnits="userSpaceOnUse">
<stop stop-color="#006496"/>
<stop offset="0.60984" stop-color="#323C47"/>
<stop offset="1" stop-color="#323C47"/>
</linearGradient>
<linearGradient id="paint4_linear_320_310" x1="148.864" y1="2.5" x2="173.31" y2="26.1288" gradientUnits="userSpaceOnUse">
<stop stop-color="#006496"/>
<stop offset="0.60984" stop-color="#323C47"/>
<stop offset="1" stop-color="#323C47"/>
</linearGradient>
<clipPath id="clip0_320_310">
<rect width="156" height="39" fill="white" transform="translate(4)"/>
</clipPath>
</defs>
</svg>
