<svg width="34" height="39" viewBox="0 0 34 39" fill="none" xmlns="http://www.w3.org/2000/svg">
<path d="M32.3614 0.531311C32.7529 0.531311 33.0811 0.847561 33.0811 1.25236V38.6458H32.9675L27.475 30.9166C27.4624 30.904 27.4624 30.904 27.4497 30.8913L22.1087 23.3772C26.8815 21.796 29.5836 17.8998 29.5836 12.4856C29.5836 10.4236 29.0533 8.29842 27.9548 6.41357C27.8412 6.22382 27.7275 6.03407 27.6013 5.84432C27.5634 5.78107 27.5255 5.71782 27.475 5.65457C27.3487 5.46482 27.2098 5.28772 27.0709 5.11062C27.0331 5.06002 26.9826 4.99677 26.9321 4.94617C26.9321 4.93352 26.9194 4.93352 26.9194 4.93352C26.8689 4.87027 26.831 4.81967 26.7805 4.76907C26.5785 4.54137 26.3639 4.31367 26.1492 4.08597C26.0987 4.03537 26.0356 3.97212 25.9851 3.92152C25.8083 3.75707 25.6315 3.60526 25.4548 3.45346C25.3916 3.40286 25.3285 3.35226 25.2654 3.30166C25.2149 3.25106 25.1517 3.21311 25.1012 3.17516C24.9623 3.07396 24.8234 2.97276 24.6845 2.87156C24.634 2.83361 24.5709 2.79566 24.5204 2.75771C24.4699 2.71976 24.4194 2.69446 24.3815 2.66916C24.3184 2.63121 24.2552 2.59326 24.1921 2.55531C24.1795 2.54266 24.1542 2.53001 24.1416 2.51736C24.0911 2.49206 24.0532 2.46676 24.0027 2.44146C23.8764 2.36556 23.7502 2.30231 23.6239 2.22641C23.5229 2.17581 23.4219 2.12521 23.3209 2.07461C23.2451 2.03666 23.1694 1.99871 23.0936 1.96076C23.0684 1.94811 23.0305 1.93546 23.0052 1.92281C22.9421 1.89751 22.8916 1.87221 22.8285 1.84691C22.7022 1.78366 22.5759 1.73306 22.4497 1.68246C22.3739 1.64451 22.2855 1.61921 22.2098 1.58126C22.1466 1.55596 22.0709 1.53066 22.0077 1.50536C21.932 1.48006 21.8562 1.44211 21.7805 1.41681C21.6921 1.37886 21.6037 1.35356 21.5153 1.32826C21.4395 1.30296 21.3638 1.27766 21.2754 1.25236C21.1113 1.20176 20.9471 1.15116 20.783 1.11321C20.6946 1.08791 20.6062 1.06261 20.5304 1.04996C20.5178 1.04996 20.5052 1.03731 20.4926 1.03731C20.4168 1.02466 20.341 0.999362 20.2653 0.986712C20.1138 0.948762 19.9622 0.923462 19.8107 0.885512C19.6845 0.860211 19.5708 0.834911 19.4446 0.822261C19.3435 0.809611 19.2552 0.796961 19.1541 0.771661C19.1036 0.759011 19.0405 0.759011 18.99 0.746361C18.9142 0.733711 18.8511 0.721061 18.7754 0.721061C18.6238 0.695761 18.4723 0.683111 18.3082 0.670461C18.1819 0.657811 18.0683 0.645161 17.942 0.645161C17.9168 0.645161 17.8915 0.645161 17.8663 0.645161C17.7652 0.632511 17.6769 0.632511 17.5758 0.632511C17.538 0.632511 17.4875 0.632511 17.4496 0.619861C17.3359 0.619861 17.2349 0.607211 17.1213 0.607211C16.9824 0.607211 16.8435 0.607211 16.7046 0.594561C15.9344 0.594561 14.1414 0.594561 12.0202 0.581911C11.8561 0.581911 11.6793 0.581911 11.5151 0.581911H32.3614V0.531311Z" fill="#006496"/>
<path d="M21.3009 12.6121C21.3009 14.6487 20.0887 16.8372 16.6922 16.8372H0V0.531311C0.0252529 4.87027 3.54804 8.38697 7.90417 8.38697H16.6922C20.1013 8.38697 21.3009 10.664 21.3009 12.6121Z" fill="#006496"/>
<path d="M25.7832 38.6458H0.972168C1.30046 38.6078 1.61612 38.5572 1.93178 38.4813C1.98229 38.4687 2.03279 38.456 2.07067 38.4434C2.57573 38.3169 3.06816 38.1398 3.54797 37.9121C3.58585 37.8994 3.62373 37.8741 3.66161 37.8488C3.81312 37.7729 3.96464 37.697 4.10353 37.6085C4.14141 37.5832 4.19192 37.5579 4.2298 37.5326C4.24242 37.5326 4.24242 37.5326 4.24242 37.5199C4.2803 37.4946 4.33081 37.4693 4.36869 37.444C4.40657 37.4187 4.44445 37.3934 4.48233 37.3808C4.55808 37.3302 4.63384 37.2796 4.7096 37.229C4.76011 37.191 4.81061 37.1657 4.84849 37.1278C4.91163 37.0772 4.98738 37.0266 5.05052 36.976C5.11365 36.9254 5.17678 36.8874 5.22729 36.8368C5.27779 36.7989 5.3283 36.7609 5.36618 36.723C5.39143 36.6977 5.42931 36.6724 5.45456 36.6471C5.61871 36.5079 5.77023 36.3561 5.93437 36.2043C5.98488 36.1537 6.03538 36.1031 6.07326 36.0525C6.12377 36.0019 6.16165 35.9513 6.19953 35.9134C6.26266 35.8501 6.32579 35.7742 6.3763 35.6983C6.41418 35.6477 6.46468 35.5971 6.50256 35.5465C6.78034 35.1923 7.03287 34.8128 7.26015 34.408C7.29803 34.3448 7.33591 34.2815 7.36116 34.2056C7.48743 33.9653 7.58844 33.7249 7.68945 33.4719C7.72733 33.3834 7.75258 33.2948 7.79046 33.2063C7.79046 33.1936 7.80309 33.181 7.80309 33.1683C7.84097 33.0798 7.86622 32.9912 7.89147 32.9027C7.89147 32.89 7.9041 32.8774 7.9041 32.8521C7.91672 32.8141 7.92935 32.7762 7.94198 32.7256C8.00511 32.5358 8.04299 32.3334 8.0935 32.1437C8.10612 32.1057 8.10612 32.0804 8.11875 32.0425C8.18188 31.7515 8.21976 31.4606 8.24501 31.1696C8.24501 31.119 8.25764 31.0684 8.25764 31.0178C8.27027 30.904 8.27027 30.7775 8.27027 30.6636C8.27027 30.5877 8.27027 30.4992 8.27027 30.4233V24.4904H12.7274L18.5735 34.0159C20.1644 36.5712 22.816 38.3169 25.7832 38.6458Z" fill="#006496"/>
</svg>
