<svg width="107" height="40" viewBox="0 0 107 40" fill="none" xmlns="http://www.w3.org/2000/svg">
<path d="M0.62207 0.543945H11.0768C14.7132 0.543945 17.3648 1.25235 19.0315 2.6818C20.6981 4.11125 21.5315 6.2997 21.5315 9.25981V11.5874C21.5315 15.5216 19.9911 18.0136 16.9102 19.0636V19.1774C18.6148 19.6075 19.8269 20.493 20.534 21.8339C21.2411 23.1748 21.5946 24.9585 21.5946 27.1975V33.8641C21.5946 34.952 21.6325 35.8248 21.7209 36.4953C21.8093 37.1657 22.0239 37.8235 22.3648 38.4687H15.1804C14.9279 37.8488 14.7511 37.2796 14.6627 36.7356C14.5743 36.1917 14.5364 35.2176 14.5364 33.8135V26.8813C14.5364 25.1482 14.2081 23.9338 13.5389 23.2507C12.8697 22.5676 11.7334 22.2261 10.1045 22.2261H7.66764V38.4813H0.62207V0.543945ZM10.2434 16.7992C11.6576 16.7992 12.7182 16.4956 13.4127 15.8758C14.1198 15.2559 14.4733 14.2313 14.4733 12.7892V9.85436C14.4733 8.48816 14.1829 7.4888 13.6021 6.86895C13.0213 6.2491 12.1122 5.9455 10.8748 5.9455H7.66764V16.7739H10.2434V16.7992Z" fill="url(#paint0_linear_372_272)"/>
<path d="M26.4683 0.543945C30.3572 0.543945 33.5265 3.70645 33.5265 7.6153V38.4687H26.4683V0.543945Z" fill="url(#paint1_linear_372_272)"/>
<path d="M38.7793 0.543945C42.6809 0.543945 45.8375 3.70645 45.8375 7.6153V33.0545H57.4412V38.4687H38.7793V0.543945Z" fill="url(#paint2_linear_372_272)"/>
<path d="M66.5451 0.543945C72.0881 0.543945 76.8609 4.49075 77.9089 9.94291L83.4014 38.4687H76.3432L75.0553 30.9419V31.0558H67.0375L65.7749 38.4687H59.2344L66.5451 0.543945ZM74.2346 25.8946L71.0906 7.14725H70.9644L67.8835 25.8946H74.2346Z" fill="url(#paint3_linear_372_272)"/>
<path d="M88.881 36.5712C87.1006 34.952 86.2168 32.6497 86.2168 29.6896V9.32306C86.2168 6.36296 87.1006 4.07331 88.881 2.44145C90.6487 0.822251 93.2245 0 96.6084 0C99.9796 0 102.555 0.809601 104.336 2.44145C106.103 4.06066 107 6.36296 107 9.32306V13.3331H104.715C102.29 13.3331 100.333 11.3724 100.333 8.94356C100.333 6.59066 99.1589 5.42686 96.8104 5.42686C94.4619 5.42686 93.2876 6.60331 93.2876 8.94356V30.1197C93.2876 32.4346 94.4619 33.5858 96.8104 33.5858C99.1589 33.5858 100.333 32.4346 100.333 30.1197C100.333 26.9192 102.922 24.326 106.116 24.326H107V29.6896C107 32.6497 106.116 34.9393 104.336 36.5712C102.555 38.1904 99.9796 39.0127 96.6084 39.0127C93.2371 39 90.6613 38.1904 88.881 36.5712Z" fill="url(#paint4_linear_372_272)"/>
<defs>
<linearGradient id="paint0_linear_372_272" x1="10.7145" y1="2.97504" x2="34.4823" y2="27.6902" gradientUnits="userSpaceOnUse">
<stop stop-color="#006496"/>
<stop offset="0.60984" stop-color="#323C47"/>
<stop offset="1" stop-color="#323C47"/>
</linearGradient>
<linearGradient id="paint1_linear_372_272" x1="29.7445" y1="2.97423" x2="44.1593" y2="7.84175" gradientUnits="userSpaceOnUse">
<stop stop-color="#006496"/>
<stop offset="0.60984" stop-color="#323C47"/>
<stop offset="1" stop-color="#323C47"/>
</linearGradient>
<linearGradient id="paint2_linear_372_272" x1="47.4417" y1="2.97423" x2="71.0677" y2="24.0679" gradientUnits="userSpaceOnUse">
<stop stop-color="#006496"/>
<stop offset="0.60984" stop-color="#323C47"/>
<stop offset="1" stop-color="#323C47"/>
</linearGradient>
<linearGradient id="paint3_linear_372_272" x1="70.4521" y1="2.97423" x2="93.9819" y2="30.1791" gradientUnits="userSpaceOnUse">
<stop stop-color="#006496"/>
<stop offset="0.60984" stop-color="#323C47"/>
<stop offset="1" stop-color="#323C47"/>
</linearGradient>
<linearGradient id="paint4_linear_372_272" x1="95.8638" y1="2.5" x2="120.31" y2="26.1288" gradientUnits="userSpaceOnUse">
<stop stop-color="#006496"/>
<stop offset="0.60984" stop-color="#323C47"/>
<stop offset="1" stop-color="#323C47"/>
</linearGradient>
</defs>
</svg>
