<svg width="36" height="26" viewBox="0 0 36 26" fill="none" xmlns="http://www.w3.org/2000/svg">
<g clip-path="url(#clip0_17_392)">
<path d="M35 7.44863C34.931 6.25404 34.3448 5.69187 31.4828 5.65674C23.7586 6.25404 16.0345 6.85133 8.31035 7.44863C7.44829 7.5189 6.51725 7.62431 5.89656 8.1162C5.24139 8.64322 4.8276 9.38106 4.86208 10.1189C4.96553 11.6297 5.06897 13.1054 5.13794 14.5459C5.6207 14.6162 6.10346 14.7919 6.44829 15.073C6.86208 15.3892 7.17242 15.8459 7.24139 16.3378C7.31035 16.7946 7.10346 17.3216 6.79311 17.7081C6.44829 18.1297 5.96553 18.4459 5.4138 18.6919C5.37932 18.6919 5.37932 18.6919 5.34484 18.727C5.44829 20.273 5.55173 21.7838 5.68966 23.3297C5.72415 23.7865 5.79311 24.2784 6.13794 24.6297C6.8276 25.3675 8.27587 25.1567 9.48277 25.0865C17.6552 24.4892 25.0345 23.9621 32.069 23.4703C33.1724 23.4 34.4828 23.4351 35.2069 22.7675C35.7586 22.2405 35.7931 21.5378 35.7931 20.8703C35.8621 17.2865 35.1035 8.78377 35 7.44863Z" fill="white"/>
<path d="M7.93103 25.2973C7.17241 25.2973 6.48276 25.1919 6.03448 24.7C5.65517 24.2784 5.5862 23.7162 5.55172 23.2946C5.41379 21.9243 5.31034 20.4838 5.20689 18.6919C5.20689 18.6216 5.24138 18.5513 5.31034 18.5162H5.34482H5.37931C5.93103 18.3054 6.37931 17.9892 6.68965 17.6027C7 17.1811 7.17241 16.7594 7.10345 16.373C7.03448 15.9513 6.75862 15.5649 6.37931 15.2486C6.03448 14.9676 5.5862 14.7919 5.13793 14.7567C5.06896 14.7567 5 14.6865 5 14.5811C4.93103 13.1757 4.82758 11.7 4.72413 10.154C4.68965 9.4162 5.10345 8.6081 5.82758 8.0108C6.44827 7.48377 7.37931 7.37837 8.34482 7.3081L31.5172 5.5162C34.2069 5.55134 35.1034 6.0081 35.2069 7.44864C35.2414 7.69458 35.2759 8.18647 35.3103 8.88918C35.5517 11.8405 36.069 17.9892 36.0345 20.8351C36.0345 21.3973 36 22.2757 35.3793 22.873C34.7241 23.5054 33.6897 23.5405 32.6897 23.6108C32.5172 23.6108 32.3448 23.6459 32.1724 23.6459C28.7586 23.8919 25.2759 24.1378 21.6897 24.3838C17.8276 24.6649 13.8276 24.9459 9.62069 25.2622C9.48276 25.2622 9.34482 25.2973 9.20689 25.2973C8.72413 25.2621 8.31034 25.2973 7.93103 25.2973ZM5.55172 18.7973C5.65517 20.5189 5.75862 21.9243 5.89655 23.2594C5.93103 23.7162 6 24.1378 6.27586 24.454C6.86207 25.0513 8.03448 24.9459 9.10345 24.8757C9.24138 24.8757 9.37931 24.8405 9.51724 24.8405C13.7241 24.5243 17.7241 24.2432 21.5862 23.9621C25.2069 23.7162 28.6897 23.4703 32.069 23.2243C32.2414 23.2243 32.4138 23.1892 32.6207 23.1892C33.5517 23.154 34.5172 23.0838 35.1034 22.5567C35.5862 22.1 35.6552 21.4676 35.6552 20.7649C35.6897 17.954 35.1724 11.8054 34.931 8.85404C34.8621 8.18648 34.8276 7.69458 34.8276 7.4135C34.7586 6.46485 34.4828 5.83242 31.4828 5.79729L8.31034 7.55404C7.41379 7.62431 6.55172 7.72972 6 8.18647C5.37931 8.7135 5 9.4162 5.03448 10.0135C5.13793 11.4892 5.20689 12.9649 5.31034 14.3C5.75862 14.3703 6.20689 14.5811 6.5862 14.8622C7.06896 15.2486 7.37931 15.7054 7.44827 16.2324C7.51724 16.7243 7.34482 17.2513 6.96551 17.7432C6.5862 18.2 6.13793 18.5513 5.55172 18.7973Z" fill="black"/>
<path d="M28.6551 1.33514C28.2758 0.210814 27.5862 -0.175673 24.7931 0.562165C17.4827 3.1973 10.1724 5.83244 2.89653 8.50271C2.06894 8.78379 1.20687 9.13514 0.724116 9.76757C0.241357 10.4351 0.0344605 11.2784 0.241357 11.9459C0.724116 13.3865 1.20687 14.7568 1.65515 16.1622C2.13791 16.0919 2.65515 16.1622 3.06894 16.3378C3.5517 16.5487 3.9655 16.8649 4.17239 17.3216C4.37929 17.7432 4.31032 18.3054 4.10343 18.7622C3.89653 19.2541 3.51722 19.7108 3.03446 20.0622C2.99998 20.0622 2.99998 20.0973 2.9655 20.0973C3.44825 21.5378 3.96549 22.9784 4.48274 24.4541C4.65515 24.8757 4.82756 25.3324 5.24136 25.5784C6.10343 26.1054 7.44825 25.5081 8.58618 25.1216C16.3793 22.3811 23.3448 19.8865 30 17.4973C31.0689 17.1108 32.3103 16.8297 32.8276 15.9865C33.2414 15.3541 33.0689 14.6162 32.8965 13.9838C32.0689 10.6108 29.1034 2.63514 28.6551 1.33514Z" fill="white"/>
<path d="M6.10344 26C5.75861 26 5.44827 25.9297 5.1724 25.754C4.68965 25.4378 4.48275 24.9108 4.34482 24.5243C3.86206 23.2243 3.3793 21.854 2.82758 20.1676C2.79309 20.0973 2.82758 20.027 2.89654 19.9567L2.93102 19.9216C2.93102 19.9216 2.96551 19.9216 2.96551 19.8865C3.44827 19.5351 3.79309 19.1135 3.96551 18.6567C4.1724 18.1649 4.20689 17.7081 4.03447 17.3568C3.86206 16.9703 3.51723 16.654 3.03447 16.4432C2.62068 16.2676 2.1724 16.2324 1.72413 16.2676C1.65516 16.2676 1.55171 16.2324 1.55171 16.1622C1.10344 14.827 0.655163 13.4216 0.137922 11.9459C-0.103458 11.2432 0.103439 10.3649 0.62068 9.59188C1.10344 8.92432 1.93102 8.57297 2.86206 8.25675L24.7241 0.386478C27.3448 -0.316225 28.3103 -0.105414 28.7931 1.26486C28.8621 1.5108 29.0345 1.96756 29.2758 2.59999C30.2758 5.37567 32.3448 11.173 33.069 13.9135C33.2069 14.4757 33.4138 15.3189 32.9655 16.0567C32.4827 16.8297 31.5172 17.1459 30.5517 17.4622C30.3793 17.5324 30.2069 17.5676 30.0345 17.6378C26.8276 18.7973 23.5517 19.9568 20.1379 21.1513C16.5172 22.5216 12.6896 23.8567 8.68964 25.2973C8.55171 25.3324 8.44827 25.4027 8.31033 25.4378C7.5862 25.6838 6.82758 26 6.10344 26ZM3.20689 20.2027C3.75861 21.8189 4.24137 23.154 4.68965 24.4189C4.86206 24.8757 5.03447 25.2622 5.3793 25.473C6.10344 25.8946 7.20689 25.5081 8.20689 25.1216C8.34482 25.0865 8.48275 25.0162 8.5862 24.9811C12.5862 23.5405 16.3793 22.2054 20.069 20.9054C23.4827 19.6757 26.7586 18.5162 29.9655 17.3919C30.1379 17.3216 30.3103 17.2865 30.4827 17.2162C31.3793 16.9 32.3103 16.6189 32.7241 15.9513C33.069 15.3892 32.9655 14.7567 32.7931 14.0892C32.1034 11.3486 30.0345 5.58648 29.0345 2.8108C28.7586 2.1081 28.5862 1.65134 28.5172 1.4054C28.2069 0.527019 27.7586 -0.0351437 24.8621 0.737829L2.93102 8.64324C2.06896 8.95945 1.27585 9.27567 0.862059 9.87297C0.379301 10.5405 0.206887 11.3135 0.413784 11.9108C0.896542 13.3162 1.34482 14.6865 1.79309 15.9865C2.24137 15.9513 2.72413 16.0216 3.13792 16.1973C3.68965 16.4432 4.10344 16.7946 4.34482 17.2865C4.55171 17.7081 4.51723 18.3054 4.27585 18.8676C4.06896 19.3243 3.68965 19.7811 3.20689 20.2027Z" fill="black"/>
<path d="M15 22.4865C14.8965 22.1703 14.7586 21.8541 14.6552 21.5378C14.4138 20.9054 14.1724 20.3081 13.9655 19.6757C13.1724 17.427 12.3793 15.1784 11.5862 12.9297C10.8276 10.6811 10.0689 8.43243 9.37929 6.14865C7.20687 6.92162 5.06894 7.6946 2.89653 8.50271C2.06894 8.78379 1.20687 9.13514 0.724116 9.76757C0.241357 10.4351 0.0344605 11.2784 0.241357 11.9459C0.724116 13.3865 1.20687 14.7568 1.65515 16.1622C2.13791 16.0919 2.65515 16.1622 3.06894 16.3378C3.5517 16.5486 3.9655 16.8649 4.17239 17.3216C4.37929 17.7432 4.31032 18.3054 4.10343 18.7622C3.89653 19.2541 3.51722 19.7108 3.03446 20.0622C2.99998 20.0622 2.99998 20.0973 2.9655 20.0973C3.44825 21.5378 3.96549 22.9784 4.48274 24.4541C4.65515 24.8757 4.82756 25.3324 5.24136 25.5784C6.10343 26.1054 7.44825 25.5081 8.58618 25.1216C10.7931 24.3135 12.9655 23.5757 15.0689 22.8027C15.1034 22.6973 15.0689 22.5919 15 22.4865Z" fill="#ACD4F7"/>
<path d="M6.10344 26C5.75861 26 5.44827 25.9297 5.17241 25.754C4.68965 25.4378 4.48275 24.9108 4.34482 24.5243C3.86206 23.2243 3.3793 21.854 2.82758 20.1676C2.79309 20.0973 2.82758 20.027 2.89654 19.9567L2.93103 19.9216C2.93103 19.9216 2.96551 19.9216 2.96551 19.8865C3.44827 19.5351 3.79309 19.1135 3.96551 18.6567C4.1724 18.1649 4.20689 17.7081 4.03447 17.3567C3.86206 16.9703 3.51723 16.654 3.03447 16.4432C2.62068 16.2676 2.1724 16.2324 1.72413 16.2676C1.65516 16.2676 1.55171 16.2324 1.55171 16.1621C1.10344 14.827 0.655163 13.4216 0.137922 11.9459C-0.103458 11.2432 0.103439 10.3649 0.62068 9.59188C1.10344 8.92431 1.93103 8.57296 2.86206 8.25675L9.31034 5.97296C9.34482 5.97296 9.41378 5.97296 9.44827 5.97296C9.48275 6.0081 9.51723 6.04323 9.55172 6.07837C10.2759 8.39729 11 10.6811 11.7586 12.8594C12.3448 14.5811 12.9655 16.3027 13.5517 17.954C13.7586 18.5162 13.931 19.0432 14.1379 19.6054C14.2759 19.9567 14.3793 20.3081 14.5172 20.6243C14.6207 20.9054 14.7241 21.1865 14.8276 21.4676C14.8965 21.6432 14.9655 21.7838 15 21.9594C15.069 22.1 15.1034 22.2757 15.1724 22.4162C15.2069 22.5216 15.2414 22.627 15.2759 22.7324C15.2759 22.7676 15.2759 22.8378 15.2759 22.873C15.2414 22.9081 15.2069 22.9432 15.1724 22.9784C13.069 23.7162 10.8965 24.4892 8.68965 25.2973C8.55172 25.3324 8.44827 25.4027 8.31034 25.4378C7.5862 25.6838 6.82758 26 6.10344 26ZM3.20689 20.2027C3.75861 21.8189 4.24137 23.154 4.68965 24.4189C4.86206 24.8757 5.03447 25.2621 5.3793 25.473C6.10344 25.8946 7.20689 25.5081 8.20689 25.1216C8.34482 25.0865 8.48275 25.0162 8.5862 24.9811C10.7586 24.2081 12.8621 23.4703 14.8965 22.7324C14.8621 22.6973 14.8621 22.627 14.8276 22.5919C14.7586 22.4513 14.7241 22.2757 14.6552 22.1351C14.5862 21.9594 14.5172 21.7838 14.4483 21.6432C14.3448 21.3621 14.2414 21.0811 14.1379 20.8C14 20.4486 13.8621 20.0973 13.7586 19.7811C13.5517 19.2189 13.3793 18.6919 13.1724 18.1297C12.5862 16.4432 11.9655 14.7216 11.3793 13C10.6552 10.8919 9.93103 8.64323 9.20689 6.39458L2.93103 8.64323C2.06896 8.95945 1.27585 9.27566 0.86206 9.87296C0.379301 10.5405 0.206887 11.3135 0.413784 11.9108C0.896542 13.3162 1.34482 14.6865 1.79309 15.9865C2.24137 15.9513 2.72413 16.0216 3.13792 16.1973C3.68965 16.4432 4.10344 16.7946 4.34482 17.2865C4.55172 17.7081 4.51723 18.3054 4.27585 18.8676C4.06896 19.3243 3.68965 19.7811 3.20689 20.2027Z" fill="black"/>
<path d="M20.2413 16.127H20.2069C20.1034 16.0919 20.0689 15.9865 20.1034 15.9162L22.931 6.04323C22.9655 5.93783 23.0689 5.90269 23.1379 5.93783C23.2413 5.97296 23.2758 6.07837 23.2413 6.14864L20.4138 16.0216C20.3793 16.0919 20.3103 16.127 20.2413 16.127Z" fill="black"/>
<path d="M18.7586 10.5054C18.5862 10.5054 18.4138 10.4703 18.2414 10.4C17.8965 10.2243 17.5862 9.9081 17.4483 9.52161C17.2069 8.81891 17.1724 7.97567 17.7241 7.58918C18.2758 7.20269 18.7586 7.27296 19.0345 7.37837C19.6207 7.62431 20 8.29188 20.0689 8.67837C20.1379 9.02972 20.3103 9.94323 19.3448 10.3649C19.1724 10.4351 18.9655 10.5054 18.7586 10.5054ZM18.5862 7.62431C18.3793 7.62431 18.1379 7.69458 17.931 7.87026C17.4138 8.22161 17.7586 9.27566 17.7931 9.41621C17.8965 9.73242 18.1034 9.97837 18.3793 10.0838C18.6207 10.1892 18.931 10.1892 19.2414 10.0486C19.862 9.76756 19.862 9.24053 19.7586 8.74864C19.7241 8.46756 19.4138 7.90539 18.931 7.69458C18.8276 7.62431 18.6896 7.62431 18.5862 7.62431Z" fill="black"/>
<path d="M24.8276 14.6162C24.6552 14.6162 24.4827 14.5811 24.3103 14.5108C23.9655 14.3351 23.6552 14.0189 23.5172 13.6324C23.2758 12.9297 23.2414 12.0865 23.7931 11.7C24.3448 11.3135 24.8276 11.3838 25.1034 11.4892C25.6896 11.7351 26.0689 12.4027 26.1379 12.7892C26.2069 13.1405 26.3793 14.054 25.4138 14.4757C25.2414 14.5459 25.0345 14.6162 24.8276 14.6162ZM24.6552 11.7351C24.4483 11.7351 24.2069 11.8054 24 11.9811C23.4827 12.3324 23.8276 13.3865 23.8621 13.527C23.9655 13.8432 24.1724 14.0892 24.4483 14.1946C24.6896 14.3 25 14.3 25.3103 14.1594C25.931 13.8784 25.931 13.3513 25.8276 12.8594C25.7931 12.5784 25.4827 12.0162 25 11.8054C24.8965 11.7351 24.7586 11.7351 24.6552 11.7351Z" fill="black"/>
<path d="M7.89654 22.1351C7.86206 22.1351 7.86206 22.1351 7.82758 22.1C7.82758 22.0648 7.82758 22.0297 7.86206 22.0297L11.6896 20.6946C11.7241 20.6946 11.7586 20.6946 11.7586 20.7297C11.7586 20.7648 11.7586 20.8 11.7241 20.8L7.89654 22.1351Z" fill="black"/>
<path d="M8.06893 20.3081C8.03445 20.3081 8.03445 20.3081 7.99997 20.273C7.99997 20.2378 7.99997 20.2027 8.03445 20.2027L11.1379 19.1135C11.1724 19.1135 11.2069 19.1135 11.2069 19.1486C11.2069 19.1838 11.2069 19.2189 11.1724 19.2189L8.06893 20.3081Z" fill="black"/>
<path d="M6.48275 19.0784C6.44827 19.0784 6.44827 19.0784 6.41379 19.0432C6.41379 19.0081 6.41379 18.973 6.44827 18.973L10.5862 17.5324C10.6207 17.5324 10.6552 17.5324 10.6552 17.5675C10.6552 17.6027 10.6552 17.6378 10.6207 17.6378L6.48275 19.0784C6.51724 19.0784 6.48275 19.0784 6.48275 19.0784Z" fill="black"/>
<path d="M5.41378 15.9162C5.3793 15.9162 5.3793 15.9162 5.34482 15.8811C5.34482 15.8459 5.34482 15.8108 5.3793 15.8108L9.51723 14.3703C9.55171 14.3703 9.5862 14.3703 9.5862 14.4054C9.5862 14.4405 9.5862 14.4757 9.55171 14.4757L5.41378 15.9162Z" fill="black"/>
<path d="M3.7586 11.173C3.72412 11.173 3.72412 11.173 3.68964 11.1378C3.68964 11.1027 3.68964 11.0676 3.72412 11.0676L7.86205 9.62701C7.89653 9.62701 7.93102 9.62701 7.93102 9.66215C7.93102 9.69728 7.93102 9.73242 7.89653 9.73242L3.7586 11.173Z" fill="black"/>
<path d="M5.3793 14.1594C5.34482 14.1594 5.34482 14.1594 5.31033 14.1243C5.31033 14.0892 5.31033 14.054 5.34482 14.054L8.9655 12.754C8.99999 12.754 9.03447 12.754 9.03447 12.7892C9.03447 12.8243 9.03447 12.8594 8.99999 12.8594L5.3793 14.1594Z" fill="black"/>
<path d="M6.96551 17.146C6.93103 17.146 6.93103 17.146 6.89655 17.1108C6.89655 17.0757 6.89655 17.0405 6.93103 17.0405L10.0345 15.9514C10.069 15.9514 10.1034 15.9514 10.1034 15.9865C10.1034 16.0216 10.1034 16.0568 10.069 16.0568L6.96551 17.146C6.99999 17.146 6.96551 17.146 6.96551 17.146Z" fill="black"/>
<path d="M5.34481 12.4027C5.31033 12.4027 5.31033 12.4027 5.27585 12.3676C5.27585 12.3324 5.27585 12.2973 5.31033 12.2973L8.41378 11.2081C8.44826 11.2081 8.48274 11.2081 8.48274 11.2432C8.48274 11.2784 8.48274 11.3135 8.44826 11.3135L5.34481 12.4027Z" fill="black"/>
<path d="M35 7.44863C34.931 6.25404 34.3448 5.69187 31.4828 5.65674C23.7586 6.25404 16.0345 6.85133 8.31035 7.44863C7.44829 7.5189 6.51725 7.62431 5.89656 8.1162C5.24139 8.64322 4.8276 9.38106 4.86208 10.1189C4.96553 11.6297 5.06897 13.1054 5.13794 14.5459C5.6207 14.6162 6.10346 14.7919 6.44829 15.073C6.86208 15.3892 7.17242 15.8459 7.24139 16.3378C7.31035 16.7946 7.10346 17.3216 6.79311 17.7081C6.44829 18.1297 5.96553 18.4459 5.4138 18.6919C5.37932 18.6919 5.37932 18.6919 5.34484 18.727C5.44829 20.273 5.55173 21.7838 5.68966 23.3297C5.72415 23.7865 5.79311 24.2784 6.13794 24.6297C6.8276 25.3675 8.27587 25.1567 9.48277 25.0865C17.6552 24.4892 25.0345 23.9621 32.069 23.4703C33.1724 23.4 34.4828 23.4351 35.2069 22.7675C35.7586 22.2405 35.7931 21.5378 35.7931 20.8703C35.8621 17.2865 35.1035 8.78377 35 7.44863Z" fill="white"/>
<path d="M7.93103 25.2973C7.17241 25.2973 6.48276 25.1919 6.03448 24.7C5.65517 24.2784 5.5862 23.7162 5.55172 23.2946C5.41379 21.9243 5.31034 20.4838 5.20689 18.6919C5.20689 18.6216 5.24138 18.5513 5.31034 18.5162H5.34482H5.37931C5.93103 18.3054 6.37931 17.9892 6.68965 17.6027C7 17.1811 7.17241 16.7594 7.10345 16.373C7.03448 15.9513 6.75862 15.5649 6.37931 15.2486C6.03448 14.9676 5.5862 14.7919 5.13793 14.7567C5.06896 14.7567 5 14.6865 5 14.5811C4.93103 13.1757 4.82758 11.7 4.72413 10.154C4.68965 9.4162 5.10345 8.6081 5.82758 8.0108C6.44827 7.48377 7.37931 7.37837 8.34482 7.3081L31.5172 5.5162C34.2069 5.55134 35.1034 6.0081 35.2069 7.44864C35.2414 7.69458 35.2759 8.18647 35.3103 8.88918C35.5517 11.8405 36.069 17.9892 36.0345 20.8351C36.0345 21.3973 36 22.2757 35.3793 22.873C34.7241 23.5054 33.6897 23.5405 32.6897 23.6108C32.5172 23.6108 32.3448 23.6459 32.1724 23.6459C28.7586 23.8919 25.2759 24.1378 21.6897 24.3838C17.8276 24.6649 13.8276 24.9459 9.62069 25.2622C9.48276 25.2622 9.34482 25.2973 9.20689 25.2973C8.72413 25.2621 8.31034 25.2973 7.93103 25.2973ZM5.55172 18.7973C5.65517 20.5189 5.75862 21.9243 5.89655 23.2594C5.93103 23.7162 6 24.1378 6.27586 24.454C6.86207 25.0513 8.03448 24.9459 9.10345 24.8757C9.24138 24.8757 9.37931 24.8405 9.51724 24.8405C13.7241 24.5243 17.7241 24.2432 21.5862 23.9621C25.2069 23.7162 28.6897 23.4703 32.069 23.2243C32.2414 23.2243 32.4138 23.1892 32.6207 23.1892C33.5517 23.154 34.5172 23.0838 35.1034 22.5567C35.5862 22.1 35.6552 21.4676 35.6552 20.7649C35.6897 17.954 35.1724 11.8054 34.931 8.85404C34.8621 8.18648 34.8276 7.69458 34.8276 7.4135C34.7586 6.46485 34.4828 5.83242 31.4828 5.79729L8.31034 7.55404C7.41379 7.62431 6.55172 7.72972 6 8.18647C5.37931 8.7135 5 9.4162 5.03448 10.0135C5.13793 11.4892 5.20689 12.9649 5.31034 14.3C5.75862 14.3703 6.20689 14.5811 6.5862 14.8622C7.06896 15.2486 7.37931 15.7054 7.44827 16.2324C7.51724 16.7243 7.34482 17.2513 6.96551 17.7432C6.5862 18.2 6.13793 18.5513 5.55172 18.7973Z" fill="black"/>
<path d="M28.6551 1.33514C28.2758 0.210814 27.5862 -0.175673 24.7931 0.562165C17.4827 3.1973 10.1724 5.83244 2.89653 8.50271C2.06894 8.78379 1.20687 9.13514 0.724116 9.76757C0.241357 10.4351 0.0344605 11.2784 0.241357 11.9459C0.724116 13.3865 1.20687 14.7568 1.65515 16.1622C2.13791 16.0919 2.65515 16.1622 3.06894 16.3378C3.5517 16.5487 3.9655 16.8649 4.17239 17.3216C4.37929 17.7432 4.31032 18.3054 4.10343 18.7622C3.89653 19.2541 3.51722 19.7108 3.03446 20.0622C2.99998 20.0622 2.99998 20.0973 2.9655 20.0973C3.44825 21.5378 3.96549 22.9784 4.48274 24.4541C4.65515 24.8757 4.82756 25.3324 5.24136 25.5784C6.10343 26.1054 7.44825 25.5081 8.58618 25.1216C16.3793 22.3811 23.3448 19.8865 30 17.4973C31.0689 17.1108 32.3103 16.8297 32.8276 15.9865C33.2414 15.3541 33.0689 14.6162 32.8965 13.9838C32.0689 10.6108 29.1034 2.63514 28.6551 1.33514Z" fill="white"/>
<path d="M6.10344 26C5.75861 26 5.44827 25.9297 5.1724 25.754C4.68965 25.4378 4.48275 24.9108 4.34482 24.5243C3.86206 23.2243 3.3793 21.854 2.82758 20.1676C2.79309 20.0973 2.82758 20.027 2.89654 19.9567L2.93102 19.9216C2.93102 19.9216 2.96551 19.9216 2.96551 19.8865C3.44827 19.5351 3.79309 19.1135 3.96551 18.6567C4.1724 18.1649 4.20689 17.7081 4.03447 17.3568C3.86206 16.9703 3.51723 16.654 3.03447 16.4432C2.62068 16.2676 2.1724 16.2324 1.72413 16.2676C1.65516 16.2676 1.55171 16.2324 1.55171 16.1622C1.10344 14.827 0.655163 13.4216 0.137922 11.9459C-0.103458 11.2432 0.103439 10.3649 0.62068 9.59188C1.10344 8.92432 1.93102 8.57297 2.86206 8.25675L24.7241 0.386478C27.3448 -0.316225 28.3103 -0.105414 28.7931 1.26486C28.8621 1.5108 29.0345 1.96756 29.2758 2.59999C30.2758 5.37567 32.3448 11.173 33.069 13.9135C33.2069 14.4757 33.4138 15.3189 32.9655 16.0567C32.4827 16.8297 31.5172 17.1459 30.5517 17.4622C30.3793 17.5324 30.2069 17.5676 30.0345 17.6378C26.8276 18.7973 23.5517 19.9568 20.1379 21.1513C16.5172 22.5216 12.6896 23.8567 8.68964 25.2973C8.55171 25.3324 8.44827 25.4027 8.31033 25.4378C7.5862 25.6838 6.82758 26 6.10344 26ZM3.20689 20.2027C3.75861 21.8189 4.24137 23.154 4.68965 24.4189C4.86206 24.8757 5.03447 25.2622 5.3793 25.473C6.10344 25.8946 7.20689 25.5081 8.20689 25.1216C8.34482 25.0865 8.48275 25.0162 8.5862 24.9811C12.5862 23.5405 16.3793 22.2054 20.069 20.9054C23.4827 19.6757 26.7586 18.5162 29.9655 17.3919C30.1379 17.3216 30.3103 17.2865 30.4827 17.2162C31.3793 16.9 32.3103 16.6189 32.7241 15.9513C33.069 15.3892 32.9655 14.7567 32.7931 14.0892C32.1034 11.3486 30.0345 5.58648 29.0345 2.8108C28.7586 2.1081 28.5862 1.65134 28.5172 1.4054C28.2069 0.527019 27.7586 -0.0351437 24.8621 0.737829L2.93102 8.64324C2.06896 8.95945 1.27585 9.27567 0.862059 9.87297C0.379301 10.5405 0.206887 11.3135 0.413784 11.9108C0.896542 13.3162 1.34482 14.6865 1.79309 15.9865C2.24137 15.9513 2.72413 16.0216 3.13792 16.1973C3.68965 16.4432 4.10344 16.7946 4.34482 17.2865C4.55171 17.7081 4.51723 18.3054 4.27585 18.8676C4.06896 19.3243 3.68965 19.7811 3.20689 20.2027Z" fill="black"/>
<path d="M15 22.4865C14.8965 22.1703 14.7586 21.8541 14.6552 21.5378C14.4138 20.9054 14.1724 20.3081 13.9655 19.6757C13.1724 17.427 12.3793 15.1784 11.5862 12.9297C10.8276 10.6811 10.0689 8.43243 9.37929 6.14865C7.20687 6.92162 5.06894 7.6946 2.89653 8.50271C2.06894 8.78379 1.20687 9.13514 0.724116 9.76757C0.241357 10.4351 0.0344605 11.2784 0.241357 11.9459C0.724116 13.3865 1.20687 14.7568 1.65515 16.1622C2.13791 16.0919 2.65515 16.1622 3.06894 16.3378C3.5517 16.5486 3.9655 16.8649 4.17239 17.3216C4.37929 17.7432 4.31032 18.3054 4.10343 18.7622C3.89653 19.2541 3.51722 19.7108 3.03446 20.0622C2.99998 20.0622 2.99998 20.0973 2.9655 20.0973C3.44825 21.5378 3.96549 22.9784 4.48274 24.4541C4.65515 24.8757 4.82756 25.3324 5.24136 25.5784C6.10343 26.1054 7.44825 25.5081 8.58618 25.1216C10.7931 24.3135 12.9655 23.5757 15.0689 22.8027C15.1034 22.6973 15.0689 22.5919 15 22.4865Z" fill="#ACD4F7"/>
<path d="M6.10344 26C5.75861 26 5.44827 25.9297 5.17241 25.754C4.68965 25.4378 4.48275 24.9108 4.34482 24.5243C3.86206 23.2243 3.3793 21.854 2.82758 20.1676C2.79309 20.0973 2.82758 20.027 2.89654 19.9567L2.93103 19.9216C2.93103 19.9216 2.96551 19.9216 2.96551 19.8865C3.44827 19.5351 3.79309 19.1135 3.96551 18.6567C4.1724 18.1649 4.20689 17.7081 4.03447 17.3567C3.86206 16.9703 3.51723 16.654 3.03447 16.4432C2.62068 16.2676 2.1724 16.2324 1.72413 16.2676C1.65516 16.2676 1.55171 16.2324 1.55171 16.1621C1.10344 14.827 0.655163 13.4216 0.137922 11.9459C-0.103458 11.2432 0.103439 10.3649 0.62068 9.59188C1.10344 8.92431 1.93103 8.57296 2.86206 8.25675L9.31034 5.97296C9.34482 5.97296 9.41378 5.97296 9.44827 5.97296C9.48275 6.0081 9.51723 6.04323 9.55172 6.07837C10.2759 8.39729 11 10.6811 11.7586 12.8594C12.3448 14.5811 12.9655 16.3027 13.5517 17.954C13.7586 18.5162 13.931 19.0432 14.1379 19.6054C14.2759 19.9567 14.3793 20.3081 14.5172 20.6243C14.6207 20.9054 14.7241 21.1865 14.8276 21.4676C14.8965 21.6432 14.9655 21.7838 15 21.9594C15.069 22.1 15.1034 22.2757 15.1724 22.4162C15.2069 22.5216 15.2414 22.627 15.2759 22.7324C15.2759 22.7676 15.2759 22.8378 15.2759 22.873C15.2414 22.9081 15.2069 22.9432 15.1724 22.9784C13.069 23.7162 10.8965 24.4892 8.68965 25.2973C8.55172 25.3324 8.44827 25.4027 8.31034 25.4378C7.5862 25.6838 6.82758 26 6.10344 26ZM3.20689 20.2027C3.75861 21.8189 4.24137 23.154 4.68965 24.4189C4.86206 24.8757 5.03447 25.2621 5.3793 25.473C6.10344 25.8946 7.20689 25.5081 8.20689 25.1216C8.34482 25.0865 8.48275 25.0162 8.5862 24.9811C10.7586 24.2081 12.8621 23.4703 14.8965 22.7324C14.8621 22.6973 14.8621 22.627 14.8276 22.5919C14.7586 22.4513 14.7241 22.2757 14.6552 22.1351C14.5862 21.9594 14.5172 21.7838 14.4483 21.6432C14.3448 21.3621 14.2414 21.0811 14.1379 20.8C14 20.4486 13.8621 20.0973 13.7586 19.7811C13.5517 19.2189 13.3793 18.6919 13.1724 18.1297C12.5862 16.4432 11.9655 14.7216 11.3793 13C10.6552 10.8919 9.93103 8.64323 9.20689 6.39458L2.93103 8.64323C2.06896 8.95945 1.27585 9.27566 0.86206 9.87296C0.379301 10.5405 0.206887 11.3135 0.413784 11.9108C0.896542 13.3162 1.34482 14.6865 1.79309 15.9865C2.24137 15.9513 2.72413 16.0216 3.13792 16.1973C3.68965 16.4432 4.10344 16.7946 4.34482 17.2865C4.55172 17.7081 4.51723 18.3054 4.27585 18.8676C4.06896 19.3243 3.68965 19.7811 3.20689 20.2027Z" fill="black"/>
<path d="M20.2413 16.127H20.2069C20.1034 16.0919 20.0689 15.9865 20.1034 15.9162L22.931 6.04323C22.9655 5.93783 23.0689 5.90269 23.1379 5.93783C23.2413 5.97296 23.2758 6.07837 23.2413 6.14864L20.4138 16.0216C20.3793 16.0919 20.3103 16.127 20.2413 16.127Z" fill="black"/>
<path d="M18.7586 10.5054C18.5862 10.5054 18.4138 10.4703 18.2414 10.4C17.8965 10.2243 17.5862 9.9081 17.4483 9.52161C17.2069 8.81891 17.1724 7.97567 17.7241 7.58918C18.2758 7.20269 18.7586 7.27296 19.0345 7.37837C19.6207 7.62431 20 8.29188 20.0689 8.67837C20.1379 9.02972 20.3103 9.94323 19.3448 10.3649C19.1724 10.4351 18.9655 10.5054 18.7586 10.5054ZM18.5862 7.62431C18.3793 7.62431 18.1379 7.69458 17.931 7.87026C17.4138 8.22161 17.7586 9.27566 17.7931 9.41621C17.8965 9.73242 18.1034 9.97837 18.3793 10.0838C18.6207 10.1892 18.931 10.1892 19.2414 10.0486C19.862 9.76756 19.862 9.24053 19.7586 8.74864C19.7241 8.46756 19.4138 7.90539 18.931 7.69458C18.8276 7.62431 18.6896 7.62431 18.5862 7.62431Z" fill="black"/>
<path d="M24.8276 14.6162C24.6552 14.6162 24.4827 14.5811 24.3103 14.5108C23.9655 14.3351 23.6552 14.0189 23.5172 13.6324C23.2758 12.9297 23.2414 12.0865 23.7931 11.7C24.3448 11.3135 24.8276 11.3838 25.1034 11.4892C25.6896 11.7351 26.0689 12.4027 26.1379 12.7892C26.2069 13.1405 26.3793 14.054 25.4138 14.4757C25.2414 14.5459 25.0345 14.6162 24.8276 14.6162ZM24.6552 11.7351C24.4483 11.7351 24.2069 11.8054 24 11.9811C23.4827 12.3324 23.8276 13.3865 23.8621 13.527C23.9655 13.8432 24.1724 14.0892 24.4483 14.1946C24.6896 14.3 25 14.3 25.3103 14.1594C25.931 13.8784 25.931 13.3513 25.8276 12.8594C25.7931 12.5784 25.4827 12.0162 25 11.8054C24.8965 11.7351 24.7586 11.7351 24.6552 11.7351Z" fill="black"/>
<path d="M7.89654 22.1351C7.86206 22.1351 7.86206 22.1351 7.82758 22.1C7.82758 22.0648 7.82758 22.0297 7.86206 22.0297L11.6896 20.6946C11.7241 20.6946 11.7586 20.6946 11.7586 20.7297C11.7586 20.7648 11.7586 20.8 11.7241 20.8L7.89654 22.1351Z" fill="black"/>
<path d="M8.06893 20.3081C8.03445 20.3081 8.03445 20.3081 7.99997 20.273C7.99997 20.2378 7.99997 20.2027 8.03445 20.2027L11.1379 19.1135C11.1724 19.1135 11.2069 19.1135 11.2069 19.1486C11.2069 19.1838 11.2069 19.2189 11.1724 19.2189L8.06893 20.3081Z" fill="black"/>
<path d="M6.48275 19.0784C6.44827 19.0784 6.44827 19.0784 6.41379 19.0432C6.41379 19.0081 6.41379 18.973 6.44827 18.973L10.5862 17.5324C10.6207 17.5324 10.6552 17.5324 10.6552 17.5675C10.6552 17.6027 10.6552 17.6378 10.6207 17.6378L6.48275 19.0784C6.51724 19.0784 6.48275 19.0784 6.48275 19.0784Z" fill="black"/>
<path d="M5.41378 15.9162C5.3793 15.9162 5.3793 15.9162 5.34482 15.8811C5.34482 15.8459 5.34482 15.8108 5.3793 15.8108L9.51723 14.3703C9.55171 14.3703 9.5862 14.3703 9.5862 14.4054C9.5862 14.4405 9.5862 14.4757 9.55171 14.4757L5.41378 15.9162Z" fill="black"/>
<path d="M3.7586 11.173C3.72412 11.173 3.72412 11.173 3.68964 11.1378C3.68964 11.1027 3.68964 11.0676 3.72412 11.0676L7.86205 9.62701C7.89653 9.62701 7.93102 9.62701 7.93102 9.66215C7.93102 9.69728 7.93102 9.73242 7.89653 9.73242L3.7586 11.173Z" fill="black"/>
<path d="M5.3793 14.1594C5.34482 14.1594 5.34482 14.1594 5.31033 14.1243C5.31033 14.0892 5.31033 14.054 5.34482 14.054L8.9655 12.754C8.99999 12.754 9.03447 12.754 9.03447 12.7892C9.03447 12.8243 9.03447 12.8594 8.99999 12.8594L5.3793 14.1594Z" fill="black"/>
<path d="M6.96551 17.146C6.93103 17.146 6.93103 17.146 6.89655 17.1108C6.89655 17.0757 6.89655 17.0405 6.93103 17.0405L10.0345 15.9514C10.069 15.9514 10.1034 15.9514 10.1034 15.9865C10.1034 16.0216 10.1034 16.0568 10.069 16.0568L6.96551 17.146C6.99999 17.146 6.96551 17.146 6.96551 17.146Z" fill="black"/>
<path d="M5.34481 12.4027C5.31033 12.4027 5.31033 12.4027 5.27585 12.3676C5.27585 12.3324 5.27585 12.2973 5.31033 12.2973L8.41378 11.2081C8.44826 11.2081 8.48274 11.2081 8.48274 11.2432C8.48274 11.2784 8.48274 11.3135 8.44826 11.3135L5.34481 12.4027Z" fill="black"/>
<path d="M32.069 15.5297C32.0345 15.5297 32 15.4946 32 15.4946C31.931 14.7567 31.7586 14.054 31.5172 13.3513C31.5172 13.3162 31.5172 13.2811 31.5517 13.2811C31.5862 13.2811 31.6207 13.2811 31.6207 13.3162C31.8621 14.0189 32.0345 14.7567 32.1034 15.4946C32.1034 15.4946 32.1035 15.5297 32.069 15.5297Z" fill="black"/>
<path d="M31.4483 15.9865C31.4138 15.9865 31.4138 15.9514 31.3793 15.9514L31.1724 15.0027C31.1724 14.9676 31.1724 14.9324 31.2069 14.9324C31.2414 14.9324 31.2758 14.9324 31.2758 14.9676L31.4827 15.9162C31.5172 15.9514 31.4827 15.9514 31.4483 15.9865Z" fill="black"/>
<path d="M10.9655 8.32701C10.931 8.32701 10.931 8.32701 10.8965 8.29187C10.6896 7.79998 10.5172 7.27296 10.3793 6.74593C10.3793 6.71079 10.3793 6.67566 10.4138 6.67566C10.4483 6.67566 10.4828 6.67566 10.4828 6.71079C10.6207 7.23782 10.7931 7.76485 11 8.25674C11.0345 8.29187 11.0345 8.32701 10.9655 8.32701Z" fill="black"/>
<g opacity="0.1294">
<path opacity="0.1294" d="M32.7931 16.0568C32.6896 16.0919 32.6207 16.1973 32.5517 16.2676C32.5172 16.3027 32.4827 16.3378 32.4827 16.3378C31.8965 16.7243 31.9655 16.6892 31.4827 16.8649C30.5172 17.1811 30.5862 17.1108 29.8965 17.3216C29.3793 17.4622 29.3448 17.5676 28.6896 17.8487C27.8276 18.1649 26.9655 18.446 26.1034 18.7622C25.6551 18.9027 25.1724 19.0433 24.7241 19.2189C24.4483 19.3595 24.1724 19.4649 23.8965 19.5703C22.6207 20.027 21.3448 20.4838 20.0689 20.9054C19.2758 21.2568 16.931 22.0297 16.0345 22.346C15.1379 22.6622 14.2758 23.0135 13.3793 23.3297C12.5862 23.5757 11.8965 23.8216 11.4138 24.0676C10.8965 24.2784 11.2069 24.1027 10.6896 24.2432C10.3103 24.4189 10.4827 25.0514 10.8965 24.9811C11.6207 24.946 12.3103 24.7 12.6552 24.4892C13.8276 24.1378 15.7931 23.4 16.5172 23.0487C17.6207 22.5919 18.7931 22.346 19.8965 21.9243C20.3448 21.7838 20.6207 21.7135 21.2414 21.4324C22.2758 21.0108 23.3793 20.8 24.4138 20.3433C24.9655 20.1324 25.5172 19.8514 26.1034 19.6757C26.862 19.4297 27.1034 19.4297 27.7586 19.1838C28.3793 18.973 28.9655 18.6919 29.5862 18.5162C29.931 18.4108 30.1724 18.3405 30.7586 18.1297C31.0689 18.0243 31.4138 17.9541 31.6896 17.7784C32.2414 17.4622 32.6896 17.2514 33.0345 16.7595C33.0345 16.7595 33 16.8297 33 16.7946C33.0689 16.6892 33.1724 16.6189 33.2069 16.4784C33.3448 16.2676 33.0345 15.9514 32.7931 16.0568Z" fill="black"/>
</g>
</g>
<defs>
<clipPath id="clip0_17_392">
<rect width="36" height="26" fill="white"/>
</clipPath>
</defs>
</svg>
